%TF.GenerationSoftware,KiCad,Pcbnew,4.0.7*%
%TF.CreationDate,2018-07-21T22:05:15-04:00*%
%TF.ProjectId,arduino-ir-relay,61726475696E6F2D69722D72656C6179,rev?*%
%TF.FileFunction,Copper,L1,Top,Signal*%
%FSLAX46Y46*%
G04 Gerber Fmt 4.6, Leading zero omitted, Abs format (unit mm)*
G04 Created by KiCad (PCBNEW 4.0.7) date Sat Jul 21 22:05:15 2018*
%MOMM*%
%LPD*%
G01*
G04 APERTURE LIST*
%ADD10C,0.150000*%
%ADD11C,1.700000*%
%ADD12O,1.700000X1.700000*%
%ADD13R,1.400000X1.400000*%
%ADD14C,1.400000*%
%ADD15C,1.600000*%
%ADD16C,1.500000*%
%ADD17R,1.800000X1.800000*%
%ADD18C,1.800000*%
%ADD19O,1.400000X1.400000*%
%ADD20O,1.800000X1.800000*%
%ADD21R,2.500000X2.500000*%
%ADD22C,2.500000*%
%ADD23R,1.600000X1.600000*%
%ADD24O,1.600000X1.600000*%
%ADD25C,0.152400*%
%ADD26C,0.254000*%
G04 APERTURE END LIST*
D10*
X64770000Y-50800000D02*
X63500000Y-50800000D01*
X119380000Y-50800000D02*
X64770000Y-50800000D01*
X119380000Y-120650000D02*
X119380000Y-50800000D01*
X63500000Y-120650000D02*
X119380000Y-120650000D01*
X63500000Y-50800000D02*
X63500000Y-120650000D01*
D11*
X110490000Y-90170000D03*
D12*
X113030000Y-90170000D03*
X110490000Y-92710000D03*
X113030000Y-92710000D03*
X110490000Y-95250000D03*
X113030000Y-95250000D03*
D13*
X90170000Y-58420000D03*
D14*
X87630000Y-58420000D03*
X82550000Y-58420000D03*
D15*
X74970000Y-114300000D03*
X77470000Y-114300000D03*
X86360000Y-109220000D03*
X86360000Y-106720000D03*
X72390000Y-74930000D03*
X69890000Y-74930000D03*
X72390000Y-92710000D03*
X69890000Y-92710000D03*
D16*
X71120000Y-86160000D03*
X71120000Y-81280000D03*
D17*
X91440000Y-111760000D03*
D18*
X93980000Y-111760000D03*
D14*
X90170000Y-104140000D03*
D19*
X95250000Y-104140000D03*
D14*
X76200000Y-57150000D03*
D19*
X76200000Y-62230000D03*
D17*
X76200000Y-107950000D03*
D20*
X78740000Y-107950000D03*
X81280000Y-107950000D03*
D21*
X102990000Y-110490000D03*
D22*
X110490000Y-110490000D03*
D11*
X110490000Y-67310000D03*
D12*
X113030000Y-67310000D03*
X110490000Y-69850000D03*
X113030000Y-69850000D03*
X110490000Y-72390000D03*
X113030000Y-72390000D03*
D11*
X97790000Y-67310000D03*
D12*
X100330000Y-67310000D03*
X97790000Y-69850000D03*
X100330000Y-69850000D03*
X97790000Y-72390000D03*
X100330000Y-72390000D03*
D11*
X97790000Y-90170000D03*
D12*
X100330000Y-90170000D03*
X97790000Y-92710000D03*
X100330000Y-92710000D03*
X97790000Y-95250000D03*
X100330000Y-95250000D03*
D23*
X80010000Y-64770000D03*
D24*
X87630000Y-97790000D03*
X80010000Y-67310000D03*
X87630000Y-95250000D03*
X80010000Y-69850000D03*
X87630000Y-92710000D03*
X80010000Y-72390000D03*
X87630000Y-90170000D03*
X80010000Y-74930000D03*
X87630000Y-87630000D03*
X80010000Y-77470000D03*
X87630000Y-85090000D03*
X80010000Y-80010000D03*
X87630000Y-82550000D03*
X80010000Y-82550000D03*
X87630000Y-80010000D03*
X80010000Y-85090000D03*
X87630000Y-77470000D03*
X80010000Y-87630000D03*
X87630000Y-74930000D03*
X80010000Y-90170000D03*
X87630000Y-72390000D03*
X80010000Y-92710000D03*
X87630000Y-69850000D03*
X80010000Y-95250000D03*
X87630000Y-67310000D03*
X80010000Y-97790000D03*
X87630000Y-64770000D03*
D25*
X91440000Y-101600000D02*
X91440000Y-99060000D01*
X90170000Y-102870000D02*
X91440000Y-101600000D01*
X90170000Y-104140000D02*
X90170000Y-102870000D01*
X80010000Y-80010000D02*
X78740000Y-80010000D01*
X73660000Y-57150000D02*
X76200000Y-57150000D01*
X72390000Y-58420000D02*
X73660000Y-57150000D01*
X72390000Y-63500000D02*
X72390000Y-58420000D01*
X74930000Y-66040000D02*
X72390000Y-63500000D01*
X74930000Y-76200000D02*
X74930000Y-66040000D01*
X78740000Y-80010000D02*
X74930000Y-76200000D01*
X76200000Y-57150000D02*
X81280000Y-57150000D01*
X81280000Y-57150000D02*
X82550000Y-58420000D01*
X87630000Y-82550000D02*
X82550000Y-82550000D01*
X82550000Y-82550000D02*
X80010000Y-80010000D01*
X97790000Y-69850000D02*
X92710000Y-69850000D01*
X91440000Y-71120000D02*
X91440000Y-88900000D01*
X92710000Y-69850000D02*
X91440000Y-71120000D01*
X91440000Y-99060000D02*
X91440000Y-88900000D01*
X91440000Y-88900000D02*
X87630000Y-85090000D01*
X87630000Y-85090000D02*
X87630000Y-82550000D01*
X91440000Y-99060000D02*
X97790000Y-92710000D01*
X86360000Y-109220000D02*
X88900000Y-109220000D01*
X90170000Y-107950000D02*
X90170000Y-104140000D01*
X88900000Y-109220000D02*
X90170000Y-107950000D01*
X81280000Y-107950000D02*
X85090000Y-107950000D01*
X85090000Y-107950000D02*
X86360000Y-109220000D01*
X113030000Y-92710000D02*
X110490000Y-92710000D01*
X110490000Y-92710000D02*
X100330000Y-92710000D01*
X100330000Y-92710000D02*
X97790000Y-92710000D01*
X113030000Y-69850000D02*
X110490000Y-69850000D01*
X110490000Y-69850000D02*
X100330000Y-69850000D01*
X100330000Y-69850000D02*
X97790000Y-69850000D01*
X80010000Y-64770000D02*
X78740000Y-64770000D01*
X78740000Y-64770000D02*
X76200000Y-62230000D01*
X80010000Y-85090000D02*
X74930000Y-85090000D01*
X74930000Y-85090000D02*
X71120000Y-81280000D01*
X71120000Y-81280000D02*
X71120000Y-76200000D01*
X71120000Y-76200000D02*
X72390000Y-74930000D01*
X80010000Y-87630000D02*
X72590000Y-87630000D01*
X72590000Y-87630000D02*
X71120000Y-86160000D01*
X71120000Y-86160000D02*
X71120000Y-91440000D01*
X71120000Y-91440000D02*
X72390000Y-92710000D01*
X95250000Y-104140000D02*
X95250000Y-110490000D01*
X95250000Y-110490000D02*
X93980000Y-111760000D01*
X102990000Y-110490000D02*
X102870000Y-110490000D01*
X102870000Y-110490000D02*
X96520000Y-116840000D01*
X96520000Y-116840000D02*
X85090000Y-116840000D01*
X85090000Y-116840000D02*
X76200000Y-107950000D01*
X76200000Y-107950000D02*
X76200000Y-113070000D01*
X76200000Y-113070000D02*
X74970000Y-114300000D01*
X90170000Y-58420000D02*
X83820000Y-64770000D01*
X81280000Y-72390000D02*
X80010000Y-72390000D01*
X83820000Y-69850000D02*
X81280000Y-72390000D01*
X83820000Y-64770000D02*
X83820000Y-69850000D01*
D26*
G36*
X118670000Y-119940000D02*
X64210000Y-119940000D01*
X64210000Y-105712255D01*
X85531861Y-105712255D01*
X86360000Y-106540395D01*
X87188139Y-105712255D01*
X87114005Y-105466136D01*
X86576777Y-105273035D01*
X86006546Y-105300222D01*
X85605995Y-105466136D01*
X85531861Y-105712255D01*
X64210000Y-105712255D01*
X64210000Y-93717745D01*
X69061861Y-93717745D01*
X69135995Y-93963864D01*
X69673223Y-94156965D01*
X70243454Y-94129778D01*
X70644005Y-93963864D01*
X70718139Y-93717745D01*
X69890000Y-92889605D01*
X69061861Y-93717745D01*
X64210000Y-93717745D01*
X64210000Y-92493223D01*
X68443035Y-92493223D01*
X68470222Y-93063454D01*
X68636136Y-93464005D01*
X68882255Y-93538139D01*
X69710395Y-92710000D01*
X68882255Y-91881861D01*
X68636136Y-91955995D01*
X68443035Y-92493223D01*
X64210000Y-92493223D01*
X64210000Y-75937745D01*
X69061861Y-75937745D01*
X69135995Y-76183864D01*
X69673223Y-76376965D01*
X70243454Y-76349778D01*
X70408800Y-76281289D01*
X70408800Y-80075289D01*
X70336485Y-80105169D01*
X69946539Y-80494436D01*
X69735241Y-81003298D01*
X69734760Y-81554285D01*
X69945169Y-82063515D01*
X70334436Y-82453461D01*
X70843298Y-82664759D01*
X71394285Y-82665240D01*
X71468703Y-82634491D01*
X74427106Y-85592895D01*
X74657836Y-85747063D01*
X74930000Y-85801200D01*
X78764398Y-85801200D01*
X78967189Y-86104698D01*
X79349275Y-86360000D01*
X78967189Y-86615302D01*
X78764398Y-86918800D01*
X72884588Y-86918800D01*
X72474753Y-86508965D01*
X72504759Y-86436702D01*
X72505240Y-85885715D01*
X72294831Y-85376485D01*
X71905564Y-84986539D01*
X71396702Y-84775241D01*
X70845715Y-84774760D01*
X70336485Y-84985169D01*
X69946539Y-85374436D01*
X69735241Y-85883298D01*
X69734760Y-86434285D01*
X69945169Y-86943515D01*
X70334436Y-87333461D01*
X70408800Y-87364340D01*
X70408800Y-91371594D01*
X70106777Y-91263035D01*
X69536546Y-91290222D01*
X69135995Y-91456136D01*
X69061861Y-91702255D01*
X69890000Y-92530395D01*
X69904143Y-92516253D01*
X70083748Y-92695858D01*
X70069605Y-92710000D01*
X70897745Y-93538139D01*
X71143864Y-93464005D01*
X71146196Y-93457517D01*
X71172757Y-93521800D01*
X71576077Y-93925824D01*
X72103309Y-94144750D01*
X72674187Y-94145248D01*
X73201800Y-93927243D01*
X73605824Y-93523923D01*
X73824750Y-92996691D01*
X73825248Y-92425813D01*
X73607243Y-91898200D01*
X73203923Y-91494176D01*
X72676691Y-91275250D01*
X72105813Y-91274752D01*
X72003015Y-91317227D01*
X71831200Y-91145412D01*
X71831200Y-87876988D01*
X72087106Y-88132894D01*
X72317835Y-88287063D01*
X72590000Y-88341200D01*
X78764398Y-88341200D01*
X78967189Y-88644698D01*
X79349275Y-88900000D01*
X78967189Y-89155302D01*
X78656120Y-89620849D01*
X78546887Y-90170000D01*
X78656120Y-90719151D01*
X78967189Y-91184698D01*
X79349275Y-91440000D01*
X78967189Y-91695302D01*
X78656120Y-92160849D01*
X78546887Y-92710000D01*
X78656120Y-93259151D01*
X78967189Y-93724698D01*
X79349275Y-93980000D01*
X78967189Y-94235302D01*
X78656120Y-94700849D01*
X78546887Y-95250000D01*
X78656120Y-95799151D01*
X78967189Y-96264698D01*
X79349275Y-96520000D01*
X78967189Y-96775302D01*
X78656120Y-97240849D01*
X78546887Y-97790000D01*
X78656120Y-98339151D01*
X78967189Y-98804698D01*
X79432736Y-99115767D01*
X79981887Y-99225000D01*
X80038113Y-99225000D01*
X80587264Y-99115767D01*
X81052811Y-98804698D01*
X81363880Y-98339151D01*
X81473113Y-97790000D01*
X81363880Y-97240849D01*
X81052811Y-96775302D01*
X80670725Y-96520000D01*
X81052811Y-96264698D01*
X81363880Y-95799151D01*
X81473113Y-95250000D01*
X81363880Y-94700849D01*
X81052811Y-94235302D01*
X80670725Y-93980000D01*
X81052811Y-93724698D01*
X81363880Y-93259151D01*
X81473113Y-92710000D01*
X81363880Y-92160849D01*
X81052811Y-91695302D01*
X80670725Y-91440000D01*
X81052811Y-91184698D01*
X81363880Y-90719151D01*
X81473113Y-90170000D01*
X81363880Y-89620849D01*
X81052811Y-89155302D01*
X80670725Y-88900000D01*
X81052811Y-88644698D01*
X81363880Y-88179151D01*
X81473113Y-87630000D01*
X81363880Y-87080849D01*
X81052811Y-86615302D01*
X80670725Y-86360000D01*
X81052811Y-86104698D01*
X81363880Y-85639151D01*
X81473113Y-85090000D01*
X81363880Y-84540849D01*
X81052811Y-84075302D01*
X80648297Y-83805014D01*
X80865134Y-83702389D01*
X81241041Y-83287423D01*
X81401904Y-82899039D01*
X81279915Y-82677000D01*
X80137000Y-82677000D01*
X80137000Y-82697000D01*
X79883000Y-82697000D01*
X79883000Y-82677000D01*
X78740085Y-82677000D01*
X78618096Y-82899039D01*
X78778959Y-83287423D01*
X79154866Y-83702389D01*
X79371703Y-83805014D01*
X78967189Y-84075302D01*
X78764398Y-84378800D01*
X75224589Y-84378800D01*
X72474753Y-81628965D01*
X72504759Y-81556702D01*
X72505240Y-81005715D01*
X72294831Y-80496485D01*
X71905564Y-80106539D01*
X71831200Y-80075660D01*
X71831200Y-76494588D01*
X72002781Y-76323007D01*
X72103309Y-76364750D01*
X72674187Y-76365248D01*
X73201800Y-76147243D01*
X73605824Y-75743923D01*
X73824750Y-75216691D01*
X73825248Y-74645813D01*
X73607243Y-74118200D01*
X73203923Y-73714176D01*
X72676691Y-73495250D01*
X72105813Y-73494752D01*
X71578200Y-73712757D01*
X71174176Y-74116077D01*
X71146577Y-74182544D01*
X71143864Y-74175995D01*
X70897745Y-74101861D01*
X70069605Y-74930000D01*
X70083748Y-74944142D01*
X69904143Y-75123748D01*
X69890000Y-75109605D01*
X69061861Y-75937745D01*
X64210000Y-75937745D01*
X64210000Y-74713223D01*
X68443035Y-74713223D01*
X68470222Y-75283454D01*
X68636136Y-75684005D01*
X68882255Y-75758139D01*
X69710395Y-74930000D01*
X68882255Y-74101861D01*
X68636136Y-74175995D01*
X68443035Y-74713223D01*
X64210000Y-74713223D01*
X64210000Y-73922255D01*
X69061861Y-73922255D01*
X69890000Y-74750395D01*
X70718139Y-73922255D01*
X70644005Y-73676136D01*
X70106777Y-73483035D01*
X69536546Y-73510222D01*
X69135995Y-73676136D01*
X69061861Y-73922255D01*
X64210000Y-73922255D01*
X64210000Y-58420000D01*
X71678800Y-58420000D01*
X71678800Y-63500000D01*
X71732937Y-63772165D01*
X71887106Y-64002894D01*
X74218800Y-66334589D01*
X74218800Y-76200000D01*
X74272937Y-76472165D01*
X74427106Y-76702894D01*
X78237106Y-80512895D01*
X78467836Y-80667063D01*
X78740000Y-80721200D01*
X78764398Y-80721200D01*
X78967189Y-81024698D01*
X79371703Y-81294986D01*
X79154866Y-81397611D01*
X78778959Y-81812577D01*
X78618096Y-82200961D01*
X78740085Y-82423000D01*
X79883000Y-82423000D01*
X79883000Y-82403000D01*
X80137000Y-82403000D01*
X80137000Y-82423000D01*
X81279915Y-82423000D01*
X81328599Y-82334388D01*
X82047105Y-83052894D01*
X82116334Y-83099151D01*
X82277836Y-83207063D01*
X82550000Y-83261200D01*
X86384398Y-83261200D01*
X86587189Y-83564698D01*
X86918800Y-83786274D01*
X86918800Y-83853726D01*
X86587189Y-84075302D01*
X86276120Y-84540849D01*
X86166887Y-85090000D01*
X86276120Y-85639151D01*
X86587189Y-86104698D01*
X86969275Y-86360000D01*
X86587189Y-86615302D01*
X86276120Y-87080849D01*
X86166887Y-87630000D01*
X86276120Y-88179151D01*
X86587189Y-88644698D01*
X86969275Y-88900000D01*
X86587189Y-89155302D01*
X86276120Y-89620849D01*
X86166887Y-90170000D01*
X86276120Y-90719151D01*
X86587189Y-91184698D01*
X86969275Y-91440000D01*
X86587189Y-91695302D01*
X86276120Y-92160849D01*
X86166887Y-92710000D01*
X86276120Y-93259151D01*
X86587189Y-93724698D01*
X86969275Y-93980000D01*
X86587189Y-94235302D01*
X86276120Y-94700849D01*
X86166887Y-95250000D01*
X86276120Y-95799151D01*
X86587189Y-96264698D01*
X86969275Y-96520000D01*
X86587189Y-96775302D01*
X86276120Y-97240849D01*
X86166887Y-97790000D01*
X86276120Y-98339151D01*
X86587189Y-98804698D01*
X87052736Y-99115767D01*
X87601887Y-99225000D01*
X87658113Y-99225000D01*
X88207264Y-99115767D01*
X88672811Y-98804698D01*
X88983880Y-98339151D01*
X89093113Y-97790000D01*
X88983880Y-97240849D01*
X88672811Y-96775302D01*
X88290725Y-96520000D01*
X88672811Y-96264698D01*
X88983880Y-95799151D01*
X89093113Y-95250000D01*
X88983880Y-94700849D01*
X88672811Y-94235302D01*
X88290725Y-93980000D01*
X88672811Y-93724698D01*
X88983880Y-93259151D01*
X89093113Y-92710000D01*
X88983880Y-92160849D01*
X88672811Y-91695302D01*
X88290725Y-91440000D01*
X88672811Y-91184698D01*
X88983880Y-90719151D01*
X89093113Y-90170000D01*
X88983880Y-89620849D01*
X88672811Y-89155302D01*
X88290725Y-88900000D01*
X88672811Y-88644698D01*
X88983880Y-88179151D01*
X89093113Y-87630000D01*
X89075459Y-87541248D01*
X90728800Y-89194589D01*
X90728800Y-101305411D01*
X89667106Y-102367106D01*
X89512937Y-102597835D01*
X89512937Y-102597836D01*
X89458800Y-102870000D01*
X89458800Y-102989390D01*
X89414771Y-103007582D01*
X89038902Y-103382796D01*
X88835232Y-103873287D01*
X88834769Y-104404383D01*
X89037582Y-104895229D01*
X89412796Y-105271098D01*
X89458800Y-105290201D01*
X89458800Y-107655411D01*
X88605412Y-108508800D01*
X87618810Y-108508800D01*
X87577243Y-108408200D01*
X87173923Y-108004176D01*
X87107456Y-107976577D01*
X87114005Y-107973864D01*
X87188139Y-107727745D01*
X86360000Y-106899605D01*
X86345858Y-106913748D01*
X86166253Y-106734143D01*
X86180395Y-106720000D01*
X86539605Y-106720000D01*
X87367745Y-107548139D01*
X87613864Y-107474005D01*
X87806965Y-106936777D01*
X87779778Y-106366546D01*
X87613864Y-105965995D01*
X87367745Y-105891861D01*
X86539605Y-106720000D01*
X86180395Y-106720000D01*
X85352255Y-105891861D01*
X85106136Y-105965995D01*
X84913035Y-106503223D01*
X84940222Y-107073454D01*
X85008711Y-107238800D01*
X82645519Y-107238800D01*
X82395481Y-106864591D01*
X81897491Y-106531845D01*
X81310072Y-106415000D01*
X81249928Y-106415000D01*
X80662509Y-106531845D01*
X80164519Y-106864591D01*
X80005499Y-107102582D01*
X79647576Y-106712034D01*
X79104742Y-106458954D01*
X78867000Y-106579003D01*
X78867000Y-107823000D01*
X78887000Y-107823000D01*
X78887000Y-108077000D01*
X78867000Y-108077000D01*
X78867000Y-108097000D01*
X78613000Y-108097000D01*
X78613000Y-108077000D01*
X78593000Y-108077000D01*
X78593000Y-107823000D01*
X78613000Y-107823000D01*
X78613000Y-106579003D01*
X78375258Y-106458954D01*
X77832424Y-106712034D01*
X77709156Y-106846538D01*
X77703162Y-106814683D01*
X77564090Y-106598559D01*
X77351890Y-106453569D01*
X77100000Y-106402560D01*
X75300000Y-106402560D01*
X75064683Y-106446838D01*
X74848559Y-106585910D01*
X74703569Y-106798110D01*
X74652560Y-107050000D01*
X74652560Y-108850000D01*
X74696838Y-109085317D01*
X74835910Y-109301441D01*
X75048110Y-109446431D01*
X75300000Y-109497440D01*
X75488800Y-109497440D01*
X75488800Y-112775411D01*
X75357219Y-112906993D01*
X75256691Y-112865250D01*
X74685813Y-112864752D01*
X74158200Y-113082757D01*
X73754176Y-113486077D01*
X73535250Y-114013309D01*
X73534752Y-114584187D01*
X73752757Y-115111800D01*
X74156077Y-115515824D01*
X74683309Y-115734750D01*
X75254187Y-115735248D01*
X75781800Y-115517243D01*
X75991663Y-115307745D01*
X76641861Y-115307745D01*
X76715995Y-115553864D01*
X77253223Y-115746965D01*
X77823454Y-115719778D01*
X78224005Y-115553864D01*
X78298139Y-115307745D01*
X77470000Y-114479605D01*
X76641861Y-115307745D01*
X75991663Y-115307745D01*
X76185824Y-115113923D01*
X76213423Y-115047456D01*
X76216136Y-115054005D01*
X76462255Y-115128139D01*
X77290395Y-114300000D01*
X77649605Y-114300000D01*
X78477745Y-115128139D01*
X78723864Y-115054005D01*
X78916965Y-114516777D01*
X78889778Y-113946546D01*
X78723864Y-113545995D01*
X78477745Y-113471861D01*
X77649605Y-114300000D01*
X77290395Y-114300000D01*
X77276253Y-114285858D01*
X77455858Y-114106252D01*
X77470000Y-114120395D01*
X78298139Y-113292255D01*
X78224005Y-113046136D01*
X77686777Y-112853035D01*
X77116546Y-112880222D01*
X76911200Y-112965279D01*
X76911200Y-109666988D01*
X84587106Y-117342895D01*
X84817836Y-117497063D01*
X85090000Y-117551200D01*
X96520000Y-117551200D01*
X96792165Y-117497063D01*
X97022894Y-117342894D01*
X101978348Y-112387440D01*
X104240000Y-112387440D01*
X104475317Y-112343162D01*
X104691441Y-112204090D01*
X104836431Y-111991890D01*
X104870567Y-111823320D01*
X109336285Y-111823320D01*
X109465533Y-112116123D01*
X110165806Y-112384388D01*
X110915435Y-112364250D01*
X111514467Y-112116123D01*
X111643715Y-111823320D01*
X110490000Y-110669605D01*
X109336285Y-111823320D01*
X104870567Y-111823320D01*
X104887440Y-111740000D01*
X104887440Y-110165806D01*
X108595612Y-110165806D01*
X108615750Y-110915435D01*
X108863877Y-111514467D01*
X109156680Y-111643715D01*
X110310395Y-110490000D01*
X110669605Y-110490000D01*
X111823320Y-111643715D01*
X112116123Y-111514467D01*
X112384388Y-110814194D01*
X112364250Y-110064565D01*
X112116123Y-109465533D01*
X111823320Y-109336285D01*
X110669605Y-110490000D01*
X110310395Y-110490000D01*
X109156680Y-109336285D01*
X108863877Y-109465533D01*
X108595612Y-110165806D01*
X104887440Y-110165806D01*
X104887440Y-109240000D01*
X104871763Y-109156680D01*
X109336285Y-109156680D01*
X110490000Y-110310395D01*
X111643715Y-109156680D01*
X111514467Y-108863877D01*
X110814194Y-108595612D01*
X110064565Y-108615750D01*
X109465533Y-108863877D01*
X109336285Y-109156680D01*
X104871763Y-109156680D01*
X104843162Y-109004683D01*
X104704090Y-108788559D01*
X104491890Y-108643569D01*
X104240000Y-108592560D01*
X101740000Y-108592560D01*
X101504683Y-108636838D01*
X101288559Y-108775910D01*
X101143569Y-108988110D01*
X101092560Y-109240000D01*
X101092560Y-111261652D01*
X96225412Y-116128800D01*
X85384589Y-116128800D01*
X81301539Y-112045750D01*
X89905000Y-112045750D01*
X89905000Y-112786310D01*
X90001673Y-113019699D01*
X90180302Y-113198327D01*
X90413691Y-113295000D01*
X91154250Y-113295000D01*
X91313000Y-113136250D01*
X91313000Y-111887000D01*
X90063750Y-111887000D01*
X89905000Y-112045750D01*
X81301539Y-112045750D01*
X79989479Y-110733690D01*
X89905000Y-110733690D01*
X89905000Y-111474250D01*
X90063750Y-111633000D01*
X91313000Y-111633000D01*
X91313000Y-110383750D01*
X91567000Y-110383750D01*
X91567000Y-111633000D01*
X91587000Y-111633000D01*
X91587000Y-111887000D01*
X91567000Y-111887000D01*
X91567000Y-113136250D01*
X91725750Y-113295000D01*
X92466309Y-113295000D01*
X92699698Y-113198327D01*
X92878327Y-113019699D01*
X92934119Y-112885006D01*
X93109357Y-113060551D01*
X93673330Y-113294733D01*
X94283991Y-113295265D01*
X94848371Y-113062068D01*
X95280551Y-112630643D01*
X95514733Y-112066670D01*
X95515265Y-111456009D01*
X95449337Y-111296452D01*
X95752894Y-110992895D01*
X95907063Y-110762165D01*
X95928429Y-110654750D01*
X95961200Y-110490000D01*
X95961200Y-105257007D01*
X96220142Y-105083988D01*
X96509533Y-104650882D01*
X96611154Y-104140000D01*
X96509533Y-103629118D01*
X96220142Y-103196012D01*
X95787036Y-102906621D01*
X95276154Y-102805000D01*
X95223846Y-102805000D01*
X94712964Y-102906621D01*
X94279858Y-103196012D01*
X93990467Y-103629118D01*
X93888846Y-104140000D01*
X93990467Y-104650882D01*
X94279858Y-105083988D01*
X94538800Y-105257007D01*
X94538800Y-110195411D01*
X94443728Y-110290483D01*
X94286670Y-110225267D01*
X93676009Y-110224735D01*
X93111629Y-110457932D01*
X92934159Y-110635092D01*
X92878327Y-110500301D01*
X92699698Y-110321673D01*
X92466309Y-110225000D01*
X91725750Y-110225000D01*
X91567000Y-110383750D01*
X91313000Y-110383750D01*
X91154250Y-110225000D01*
X90413691Y-110225000D01*
X90180302Y-110321673D01*
X90001673Y-110500301D01*
X89905000Y-110733690D01*
X79989479Y-110733690D01*
X78740788Y-109485000D01*
X78867002Y-109485000D01*
X78867002Y-109320998D01*
X79104742Y-109441046D01*
X79647576Y-109187966D01*
X80005499Y-108797418D01*
X80164519Y-109035409D01*
X80662509Y-109368155D01*
X81249928Y-109485000D01*
X81310072Y-109485000D01*
X81897491Y-109368155D01*
X82395481Y-109035409D01*
X82645519Y-108661200D01*
X84795412Y-108661200D01*
X84966993Y-108832781D01*
X84925250Y-108933309D01*
X84924752Y-109504187D01*
X85142757Y-110031800D01*
X85546077Y-110435824D01*
X86073309Y-110654750D01*
X86644187Y-110655248D01*
X87171800Y-110437243D01*
X87575824Y-110033923D01*
X87618478Y-109931200D01*
X88900000Y-109931200D01*
X89172165Y-109877063D01*
X89402894Y-109722894D01*
X90672894Y-108452895D01*
X90827063Y-108222165D01*
X90838043Y-108166965D01*
X90881200Y-107950000D01*
X90881200Y-105290610D01*
X90925229Y-105272418D01*
X91301098Y-104897204D01*
X91504768Y-104406713D01*
X91505231Y-103875617D01*
X91302418Y-103384771D01*
X90981997Y-103063791D01*
X91942894Y-102102895D01*
X92097063Y-101872165D01*
X92106045Y-101827010D01*
X92151200Y-101600000D01*
X92151200Y-99354588D01*
X95898898Y-95606890D01*
X96348524Y-95606890D01*
X96518355Y-96016924D01*
X96908642Y-96445183D01*
X97433108Y-96691486D01*
X97663000Y-96570819D01*
X97663000Y-95377000D01*
X96469845Y-95377000D01*
X96348524Y-95606890D01*
X95898898Y-95606890D01*
X96439772Y-95066016D01*
X96469845Y-95123000D01*
X97663000Y-95123000D01*
X97663000Y-95103000D01*
X97917000Y-95103000D01*
X97917000Y-95123000D01*
X97937000Y-95123000D01*
X97937000Y-95377000D01*
X97917000Y-95377000D01*
X97917000Y-96570819D01*
X98146892Y-96691486D01*
X98671358Y-96445183D01*
X99061645Y-96016924D01*
X99061655Y-96016899D01*
X99250853Y-96300054D01*
X99732622Y-96621961D01*
X100300907Y-96735000D01*
X100359093Y-96735000D01*
X100927378Y-96621961D01*
X101409147Y-96300054D01*
X101731054Y-95818285D01*
X101773103Y-95606890D01*
X109048524Y-95606890D01*
X109218355Y-96016924D01*
X109608642Y-96445183D01*
X110133108Y-96691486D01*
X110363000Y-96570819D01*
X110363000Y-95377000D01*
X109169845Y-95377000D01*
X109048524Y-95606890D01*
X101773103Y-95606890D01*
X101844093Y-95250000D01*
X101731054Y-94681715D01*
X101409147Y-94199946D01*
X101079974Y-93980000D01*
X101409147Y-93760054D01*
X101635561Y-93421200D01*
X109184439Y-93421200D01*
X109410853Y-93760054D01*
X109751553Y-93987702D01*
X109608642Y-94054817D01*
X109218355Y-94483076D01*
X109048524Y-94893110D01*
X109169845Y-95123000D01*
X110363000Y-95123000D01*
X110363000Y-95103000D01*
X110617000Y-95103000D01*
X110617000Y-95123000D01*
X110637000Y-95123000D01*
X110637000Y-95377000D01*
X110617000Y-95377000D01*
X110617000Y-96570819D01*
X110846892Y-96691486D01*
X111371358Y-96445183D01*
X111761645Y-96016924D01*
X111761655Y-96016899D01*
X111950853Y-96300054D01*
X112432622Y-96621961D01*
X113000907Y-96735000D01*
X113059093Y-96735000D01*
X113627378Y-96621961D01*
X114109147Y-96300054D01*
X114431054Y-95818285D01*
X114544093Y-95250000D01*
X114431054Y-94681715D01*
X114109147Y-94199946D01*
X113779974Y-93980000D01*
X114109147Y-93760054D01*
X114431054Y-93278285D01*
X114544093Y-92710000D01*
X114431054Y-92141715D01*
X114109147Y-91659946D01*
X113768447Y-91432298D01*
X113911358Y-91365183D01*
X114301645Y-90936924D01*
X114471476Y-90526890D01*
X114350155Y-90297000D01*
X113157000Y-90297000D01*
X113157000Y-90317000D01*
X112903000Y-90317000D01*
X112903000Y-90297000D01*
X112883000Y-90297000D01*
X112883000Y-90043000D01*
X112903000Y-90043000D01*
X112903000Y-88849181D01*
X113157000Y-88849181D01*
X113157000Y-90043000D01*
X114350155Y-90043000D01*
X114471476Y-89813110D01*
X114301645Y-89403076D01*
X113911358Y-88974817D01*
X113386892Y-88728514D01*
X113157000Y-88849181D01*
X112903000Y-88849181D01*
X112673108Y-88728514D01*
X112148642Y-88974817D01*
X111773169Y-89386820D01*
X111749656Y-89329914D01*
X111332283Y-88911812D01*
X110786681Y-88685258D01*
X110195911Y-88684743D01*
X109649914Y-88910344D01*
X109231812Y-89327717D01*
X109005258Y-89873319D01*
X109004743Y-90464089D01*
X109230344Y-91010086D01*
X109647717Y-91428188D01*
X109715550Y-91456355D01*
X109410853Y-91659946D01*
X109184439Y-91998800D01*
X101635561Y-91998800D01*
X101409147Y-91659946D01*
X101068447Y-91432298D01*
X101211358Y-91365183D01*
X101601645Y-90936924D01*
X101771476Y-90526890D01*
X101650155Y-90297000D01*
X100457000Y-90297000D01*
X100457000Y-90317000D01*
X100203000Y-90317000D01*
X100203000Y-90297000D01*
X100183000Y-90297000D01*
X100183000Y-90043000D01*
X100203000Y-90043000D01*
X100203000Y-88849181D01*
X100457000Y-88849181D01*
X100457000Y-90043000D01*
X101650155Y-90043000D01*
X101771476Y-89813110D01*
X101601645Y-89403076D01*
X101211358Y-88974817D01*
X100686892Y-88728514D01*
X100457000Y-88849181D01*
X100203000Y-88849181D01*
X99973108Y-88728514D01*
X99448642Y-88974817D01*
X99073169Y-89386820D01*
X99049656Y-89329914D01*
X98632283Y-88911812D01*
X98086681Y-88685258D01*
X97495911Y-88684743D01*
X96949914Y-88910344D01*
X96531812Y-89327717D01*
X96305258Y-89873319D01*
X96304743Y-90464089D01*
X96530344Y-91010086D01*
X96947717Y-91428188D01*
X97015550Y-91456355D01*
X96710853Y-91659946D01*
X96388946Y-92141715D01*
X96275907Y-92710000D01*
X96360240Y-93133972D01*
X92151200Y-97343012D01*
X92151200Y-72746890D01*
X96348524Y-72746890D01*
X96518355Y-73156924D01*
X96908642Y-73585183D01*
X97433108Y-73831486D01*
X97663000Y-73710819D01*
X97663000Y-72517000D01*
X96469845Y-72517000D01*
X96348524Y-72746890D01*
X92151200Y-72746890D01*
X92151200Y-71414588D01*
X93004589Y-70561200D01*
X96484439Y-70561200D01*
X96710853Y-70900054D01*
X97051553Y-71127702D01*
X96908642Y-71194817D01*
X96518355Y-71623076D01*
X96348524Y-72033110D01*
X96469845Y-72263000D01*
X97663000Y-72263000D01*
X97663000Y-72243000D01*
X97917000Y-72243000D01*
X97917000Y-72263000D01*
X97937000Y-72263000D01*
X97937000Y-72517000D01*
X97917000Y-72517000D01*
X97917000Y-73710819D01*
X98146892Y-73831486D01*
X98671358Y-73585183D01*
X99061645Y-73156924D01*
X99061655Y-73156899D01*
X99250853Y-73440054D01*
X99732622Y-73761961D01*
X100300907Y-73875000D01*
X100359093Y-73875000D01*
X100927378Y-73761961D01*
X101409147Y-73440054D01*
X101731054Y-72958285D01*
X101773103Y-72746890D01*
X109048524Y-72746890D01*
X109218355Y-73156924D01*
X109608642Y-73585183D01*
X110133108Y-73831486D01*
X110363000Y-73710819D01*
X110363000Y-72517000D01*
X109169845Y-72517000D01*
X109048524Y-72746890D01*
X101773103Y-72746890D01*
X101844093Y-72390000D01*
X101731054Y-71821715D01*
X101409147Y-71339946D01*
X101079974Y-71120000D01*
X101409147Y-70900054D01*
X101635561Y-70561200D01*
X109184439Y-70561200D01*
X109410853Y-70900054D01*
X109751553Y-71127702D01*
X109608642Y-71194817D01*
X109218355Y-71623076D01*
X109048524Y-72033110D01*
X109169845Y-72263000D01*
X110363000Y-72263000D01*
X110363000Y-72243000D01*
X110617000Y-72243000D01*
X110617000Y-72263000D01*
X110637000Y-72263000D01*
X110637000Y-72517000D01*
X110617000Y-72517000D01*
X110617000Y-73710819D01*
X110846892Y-73831486D01*
X111371358Y-73585183D01*
X111761645Y-73156924D01*
X111761655Y-73156899D01*
X111950853Y-73440054D01*
X112432622Y-73761961D01*
X113000907Y-73875000D01*
X113059093Y-73875000D01*
X113627378Y-73761961D01*
X114109147Y-73440054D01*
X114431054Y-72958285D01*
X114544093Y-72390000D01*
X114431054Y-71821715D01*
X114109147Y-71339946D01*
X113779974Y-71120000D01*
X114109147Y-70900054D01*
X114431054Y-70418285D01*
X114544093Y-69850000D01*
X114431054Y-69281715D01*
X114109147Y-68799946D01*
X113768447Y-68572298D01*
X113911358Y-68505183D01*
X114301645Y-68076924D01*
X114471476Y-67666890D01*
X114350155Y-67437000D01*
X113157000Y-67437000D01*
X113157000Y-67457000D01*
X112903000Y-67457000D01*
X112903000Y-67437000D01*
X112883000Y-67437000D01*
X112883000Y-67183000D01*
X112903000Y-67183000D01*
X112903000Y-65989181D01*
X113157000Y-65989181D01*
X113157000Y-67183000D01*
X114350155Y-67183000D01*
X114471476Y-66953110D01*
X114301645Y-66543076D01*
X113911358Y-66114817D01*
X113386892Y-65868514D01*
X113157000Y-65989181D01*
X112903000Y-65989181D01*
X112673108Y-65868514D01*
X112148642Y-66114817D01*
X111773169Y-66526820D01*
X111749656Y-66469914D01*
X111332283Y-66051812D01*
X110786681Y-65825258D01*
X110195911Y-65824743D01*
X109649914Y-66050344D01*
X109231812Y-66467717D01*
X109005258Y-67013319D01*
X109004743Y-67604089D01*
X109230344Y-68150086D01*
X109647717Y-68568188D01*
X109715550Y-68596355D01*
X109410853Y-68799946D01*
X109184439Y-69138800D01*
X101635561Y-69138800D01*
X101409147Y-68799946D01*
X101068447Y-68572298D01*
X101211358Y-68505183D01*
X101601645Y-68076924D01*
X101771476Y-67666890D01*
X101650155Y-67437000D01*
X100457000Y-67437000D01*
X100457000Y-67457000D01*
X100203000Y-67457000D01*
X100203000Y-67437000D01*
X100183000Y-67437000D01*
X100183000Y-67183000D01*
X100203000Y-67183000D01*
X100203000Y-65989181D01*
X100457000Y-65989181D01*
X100457000Y-67183000D01*
X101650155Y-67183000D01*
X101771476Y-66953110D01*
X101601645Y-66543076D01*
X101211358Y-66114817D01*
X100686892Y-65868514D01*
X100457000Y-65989181D01*
X100203000Y-65989181D01*
X99973108Y-65868514D01*
X99448642Y-66114817D01*
X99073169Y-66526820D01*
X99049656Y-66469914D01*
X98632283Y-66051812D01*
X98086681Y-65825258D01*
X97495911Y-65824743D01*
X96949914Y-66050344D01*
X96531812Y-66467717D01*
X96305258Y-67013319D01*
X96304743Y-67604089D01*
X96530344Y-68150086D01*
X96947717Y-68568188D01*
X97015550Y-68596355D01*
X96710853Y-68799946D01*
X96484439Y-69138800D01*
X92710000Y-69138800D01*
X92482990Y-69183955D01*
X92437835Y-69192937D01*
X92207105Y-69347106D01*
X90937106Y-70617106D01*
X90782937Y-70847835D01*
X90782937Y-70847836D01*
X90728800Y-71120000D01*
X90728800Y-87183011D01*
X89017238Y-85471450D01*
X89093113Y-85090000D01*
X88983880Y-84540849D01*
X88672811Y-84075302D01*
X88341200Y-83853726D01*
X88341200Y-83786274D01*
X88672811Y-83564698D01*
X88983880Y-83099151D01*
X89093113Y-82550000D01*
X88983880Y-82000849D01*
X88672811Y-81535302D01*
X88268297Y-81265014D01*
X88485134Y-81162389D01*
X88861041Y-80747423D01*
X89021904Y-80359039D01*
X88899915Y-80137000D01*
X87757000Y-80137000D01*
X87757000Y-80157000D01*
X87503000Y-80157000D01*
X87503000Y-80137000D01*
X86360085Y-80137000D01*
X86238096Y-80359039D01*
X86398959Y-80747423D01*
X86774866Y-81162389D01*
X86991703Y-81265014D01*
X86587189Y-81535302D01*
X86384398Y-81838800D01*
X82844589Y-81838800D01*
X81397238Y-80391450D01*
X81473113Y-80010000D01*
X81363880Y-79460849D01*
X81052811Y-78995302D01*
X80670725Y-78740000D01*
X81052811Y-78484698D01*
X81363880Y-78019151D01*
X81473113Y-77470000D01*
X81363880Y-76920849D01*
X81052811Y-76455302D01*
X80670725Y-76200000D01*
X81052811Y-75944698D01*
X81363880Y-75479151D01*
X81473113Y-74930000D01*
X81363880Y-74380849D01*
X81052811Y-73915302D01*
X80670725Y-73660000D01*
X81052811Y-73404698D01*
X81255602Y-73101200D01*
X81280000Y-73101200D01*
X81552165Y-73047063D01*
X81782894Y-72892894D01*
X84322894Y-70352895D01*
X84477062Y-70122165D01*
X84477063Y-70122164D01*
X84531200Y-69850000D01*
X84531200Y-65064588D01*
X84825788Y-64770000D01*
X86166887Y-64770000D01*
X86276120Y-65319151D01*
X86587189Y-65784698D01*
X86969275Y-66040000D01*
X86587189Y-66295302D01*
X86276120Y-66760849D01*
X86166887Y-67310000D01*
X86276120Y-67859151D01*
X86587189Y-68324698D01*
X86969275Y-68580000D01*
X86587189Y-68835302D01*
X86276120Y-69300849D01*
X86166887Y-69850000D01*
X86276120Y-70399151D01*
X86587189Y-70864698D01*
X86969275Y-71120000D01*
X86587189Y-71375302D01*
X86276120Y-71840849D01*
X86166887Y-72390000D01*
X86276120Y-72939151D01*
X86587189Y-73404698D01*
X86969275Y-73660000D01*
X86587189Y-73915302D01*
X86276120Y-74380849D01*
X86166887Y-74930000D01*
X86276120Y-75479151D01*
X86587189Y-75944698D01*
X86969275Y-76200000D01*
X86587189Y-76455302D01*
X86276120Y-76920849D01*
X86166887Y-77470000D01*
X86276120Y-78019151D01*
X86587189Y-78484698D01*
X86991703Y-78754986D01*
X86774866Y-78857611D01*
X86398959Y-79272577D01*
X86238096Y-79660961D01*
X86360085Y-79883000D01*
X87503000Y-79883000D01*
X87503000Y-79863000D01*
X87757000Y-79863000D01*
X87757000Y-79883000D01*
X88899915Y-79883000D01*
X89021904Y-79660961D01*
X88861041Y-79272577D01*
X88485134Y-78857611D01*
X88268297Y-78754986D01*
X88672811Y-78484698D01*
X88983880Y-78019151D01*
X89093113Y-77470000D01*
X88983880Y-76920849D01*
X88672811Y-76455302D01*
X88290725Y-76200000D01*
X88672811Y-75944698D01*
X88983880Y-75479151D01*
X89093113Y-74930000D01*
X88983880Y-74380849D01*
X88672811Y-73915302D01*
X88290725Y-73660000D01*
X88672811Y-73404698D01*
X88983880Y-72939151D01*
X89093113Y-72390000D01*
X88983880Y-71840849D01*
X88672811Y-71375302D01*
X88290725Y-71120000D01*
X88672811Y-70864698D01*
X88983880Y-70399151D01*
X89093113Y-69850000D01*
X88983880Y-69300849D01*
X88672811Y-68835302D01*
X88290725Y-68580000D01*
X88672811Y-68324698D01*
X88983880Y-67859151D01*
X89093113Y-67310000D01*
X88983880Y-66760849D01*
X88672811Y-66295302D01*
X88290725Y-66040000D01*
X88672811Y-65784698D01*
X88983880Y-65319151D01*
X89093113Y-64770000D01*
X88983880Y-64220849D01*
X88672811Y-63755302D01*
X88207264Y-63444233D01*
X87658113Y-63335000D01*
X87601887Y-63335000D01*
X87052736Y-63444233D01*
X86587189Y-63755302D01*
X86276120Y-64220849D01*
X86166887Y-64770000D01*
X84825788Y-64770000D01*
X89828348Y-59767440D01*
X90870000Y-59767440D01*
X91105317Y-59723162D01*
X91321441Y-59584090D01*
X91466431Y-59371890D01*
X91517440Y-59120000D01*
X91517440Y-57720000D01*
X91473162Y-57484683D01*
X91334090Y-57268559D01*
X91121890Y-57123569D01*
X90870000Y-57072560D01*
X89470000Y-57072560D01*
X89234683Y-57116838D01*
X89018559Y-57255910D01*
X88873569Y-57468110D01*
X88822560Y-57720000D01*
X88822560Y-57778118D01*
X88801042Y-57726169D01*
X88565275Y-57664331D01*
X87809605Y-58420000D01*
X87823748Y-58434142D01*
X87644142Y-58613748D01*
X87630000Y-58599605D01*
X86874331Y-59355275D01*
X86936169Y-59591042D01*
X87437122Y-59767419D01*
X87838560Y-59745652D01*
X83317106Y-64267106D01*
X83162937Y-64497835D01*
X83162937Y-64497836D01*
X83108800Y-64770000D01*
X83108800Y-69555411D01*
X81147379Y-71516833D01*
X81052811Y-71375302D01*
X80670725Y-71120000D01*
X81052811Y-70864698D01*
X81363880Y-70399151D01*
X81473113Y-69850000D01*
X81363880Y-69300849D01*
X81052811Y-68835302D01*
X80670725Y-68580000D01*
X81052811Y-68324698D01*
X81363880Y-67859151D01*
X81473113Y-67310000D01*
X81363880Y-66760849D01*
X81052811Y-66295302D01*
X80908535Y-66198899D01*
X81045317Y-66173162D01*
X81261441Y-66034090D01*
X81406431Y-65821890D01*
X81457440Y-65570000D01*
X81457440Y-63970000D01*
X81413162Y-63734683D01*
X81274090Y-63518559D01*
X81061890Y-63373569D01*
X80810000Y-63322560D01*
X79210000Y-63322560D01*
X78974683Y-63366838D01*
X78758559Y-63505910D01*
X78646176Y-63670388D01*
X77484719Y-62508931D01*
X77535000Y-62256154D01*
X77535000Y-62203846D01*
X77433379Y-61692964D01*
X77143988Y-61259858D01*
X76710882Y-60970467D01*
X76200000Y-60868846D01*
X75689118Y-60970467D01*
X75256012Y-61259858D01*
X74966621Y-61692964D01*
X74865000Y-62203846D01*
X74865000Y-62256154D01*
X74966621Y-62767036D01*
X75256012Y-63200142D01*
X75689118Y-63489533D01*
X76200000Y-63591154D01*
X76496407Y-63532195D01*
X78237105Y-65272894D01*
X78306334Y-65319151D01*
X78467836Y-65427063D01*
X78562560Y-65445905D01*
X78562560Y-65570000D01*
X78606838Y-65805317D01*
X78745910Y-66021441D01*
X78958110Y-66166431D01*
X79113089Y-66197815D01*
X78967189Y-66295302D01*
X78656120Y-66760849D01*
X78546887Y-67310000D01*
X78656120Y-67859151D01*
X78967189Y-68324698D01*
X79349275Y-68580000D01*
X78967189Y-68835302D01*
X78656120Y-69300849D01*
X78546887Y-69850000D01*
X78656120Y-70399151D01*
X78967189Y-70864698D01*
X79349275Y-71120000D01*
X78967189Y-71375302D01*
X78656120Y-71840849D01*
X78546887Y-72390000D01*
X78656120Y-72939151D01*
X78967189Y-73404698D01*
X79349275Y-73660000D01*
X78967189Y-73915302D01*
X78656120Y-74380849D01*
X78546887Y-74930000D01*
X78656120Y-75479151D01*
X78967189Y-75944698D01*
X79349275Y-76200000D01*
X78967189Y-76455302D01*
X78656120Y-76920849D01*
X78546887Y-77470000D01*
X78656120Y-78019151D01*
X78967189Y-78484698D01*
X79349275Y-78740000D01*
X78967189Y-78995302D01*
X78872621Y-79136832D01*
X75641200Y-75905412D01*
X75641200Y-66040000D01*
X75587063Y-65767836D01*
X75535906Y-65691274D01*
X75432894Y-65537105D01*
X73101200Y-63205412D01*
X73101200Y-58714588D01*
X73954589Y-57861200D01*
X75049390Y-57861200D01*
X75067582Y-57905229D01*
X75442796Y-58281098D01*
X75933287Y-58484768D01*
X76464383Y-58485231D01*
X76955229Y-58282418D01*
X77331098Y-57907204D01*
X77350201Y-57861200D01*
X80985412Y-57861200D01*
X81233501Y-58109290D01*
X81215232Y-58153287D01*
X81214769Y-58684383D01*
X81417582Y-59175229D01*
X81792796Y-59551098D01*
X82283287Y-59754768D01*
X82814383Y-59755231D01*
X83305229Y-59552418D01*
X83681098Y-59177204D01*
X83884768Y-58686713D01*
X83885168Y-58227122D01*
X86282581Y-58227122D01*
X86311336Y-58757440D01*
X86458958Y-59113831D01*
X86694725Y-59175669D01*
X87450395Y-58420000D01*
X86694725Y-57664331D01*
X86458958Y-57726169D01*
X86282581Y-58227122D01*
X83885168Y-58227122D01*
X83885231Y-58155617D01*
X83682418Y-57664771D01*
X83502686Y-57484725D01*
X86874331Y-57484725D01*
X87630000Y-58240395D01*
X88385669Y-57484725D01*
X88323831Y-57248958D01*
X87822878Y-57072581D01*
X87292560Y-57101336D01*
X86936169Y-57248958D01*
X86874331Y-57484725D01*
X83502686Y-57484725D01*
X83307204Y-57288902D01*
X82816713Y-57085232D01*
X82285617Y-57084769D01*
X82239580Y-57103791D01*
X81782894Y-56647106D01*
X81552165Y-56492937D01*
X81280000Y-56438800D01*
X77350610Y-56438800D01*
X77332418Y-56394771D01*
X76957204Y-56018902D01*
X76466713Y-55815232D01*
X75935617Y-55814769D01*
X75444771Y-56017582D01*
X75068902Y-56392796D01*
X75049799Y-56438800D01*
X73660000Y-56438800D01*
X73432990Y-56483955D01*
X73387835Y-56492937D01*
X73157105Y-56647106D01*
X71887106Y-57917106D01*
X71732937Y-58147835D01*
X71732937Y-58147836D01*
X71678800Y-58420000D01*
X64210000Y-58420000D01*
X64210000Y-51510000D01*
X118670000Y-51510000D01*
X118670000Y-119940000D01*
X118670000Y-119940000D01*
G37*
X118670000Y-119940000D02*
X64210000Y-119940000D01*
X64210000Y-105712255D01*
X85531861Y-105712255D01*
X86360000Y-106540395D01*
X87188139Y-105712255D01*
X87114005Y-105466136D01*
X86576777Y-105273035D01*
X86006546Y-105300222D01*
X85605995Y-105466136D01*
X85531861Y-105712255D01*
X64210000Y-105712255D01*
X64210000Y-93717745D01*
X69061861Y-93717745D01*
X69135995Y-93963864D01*
X69673223Y-94156965D01*
X70243454Y-94129778D01*
X70644005Y-93963864D01*
X70718139Y-93717745D01*
X69890000Y-92889605D01*
X69061861Y-93717745D01*
X64210000Y-93717745D01*
X64210000Y-92493223D01*
X68443035Y-92493223D01*
X68470222Y-93063454D01*
X68636136Y-93464005D01*
X68882255Y-93538139D01*
X69710395Y-92710000D01*
X68882255Y-91881861D01*
X68636136Y-91955995D01*
X68443035Y-92493223D01*
X64210000Y-92493223D01*
X64210000Y-75937745D01*
X69061861Y-75937745D01*
X69135995Y-76183864D01*
X69673223Y-76376965D01*
X70243454Y-76349778D01*
X70408800Y-76281289D01*
X70408800Y-80075289D01*
X70336485Y-80105169D01*
X69946539Y-80494436D01*
X69735241Y-81003298D01*
X69734760Y-81554285D01*
X69945169Y-82063515D01*
X70334436Y-82453461D01*
X70843298Y-82664759D01*
X71394285Y-82665240D01*
X71468703Y-82634491D01*
X74427106Y-85592895D01*
X74657836Y-85747063D01*
X74930000Y-85801200D01*
X78764398Y-85801200D01*
X78967189Y-86104698D01*
X79349275Y-86360000D01*
X78967189Y-86615302D01*
X78764398Y-86918800D01*
X72884588Y-86918800D01*
X72474753Y-86508965D01*
X72504759Y-86436702D01*
X72505240Y-85885715D01*
X72294831Y-85376485D01*
X71905564Y-84986539D01*
X71396702Y-84775241D01*
X70845715Y-84774760D01*
X70336485Y-84985169D01*
X69946539Y-85374436D01*
X69735241Y-85883298D01*
X69734760Y-86434285D01*
X69945169Y-86943515D01*
X70334436Y-87333461D01*
X70408800Y-87364340D01*
X70408800Y-91371594D01*
X70106777Y-91263035D01*
X69536546Y-91290222D01*
X69135995Y-91456136D01*
X69061861Y-91702255D01*
X69890000Y-92530395D01*
X69904143Y-92516253D01*
X70083748Y-92695858D01*
X70069605Y-92710000D01*
X70897745Y-93538139D01*
X71143864Y-93464005D01*
X71146196Y-93457517D01*
X71172757Y-93521800D01*
X71576077Y-93925824D01*
X72103309Y-94144750D01*
X72674187Y-94145248D01*
X73201800Y-93927243D01*
X73605824Y-93523923D01*
X73824750Y-92996691D01*
X73825248Y-92425813D01*
X73607243Y-91898200D01*
X73203923Y-91494176D01*
X72676691Y-91275250D01*
X72105813Y-91274752D01*
X72003015Y-91317227D01*
X71831200Y-91145412D01*
X71831200Y-87876988D01*
X72087106Y-88132894D01*
X72317835Y-88287063D01*
X72590000Y-88341200D01*
X78764398Y-88341200D01*
X78967189Y-88644698D01*
X79349275Y-88900000D01*
X78967189Y-89155302D01*
X78656120Y-89620849D01*
X78546887Y-90170000D01*
X78656120Y-90719151D01*
X78967189Y-91184698D01*
X79349275Y-91440000D01*
X78967189Y-91695302D01*
X78656120Y-92160849D01*
X78546887Y-92710000D01*
X78656120Y-93259151D01*
X78967189Y-93724698D01*
X79349275Y-93980000D01*
X78967189Y-94235302D01*
X78656120Y-94700849D01*
X78546887Y-95250000D01*
X78656120Y-95799151D01*
X78967189Y-96264698D01*
X79349275Y-96520000D01*
X78967189Y-96775302D01*
X78656120Y-97240849D01*
X78546887Y-97790000D01*
X78656120Y-98339151D01*
X78967189Y-98804698D01*
X79432736Y-99115767D01*
X79981887Y-99225000D01*
X80038113Y-99225000D01*
X80587264Y-99115767D01*
X81052811Y-98804698D01*
X81363880Y-98339151D01*
X81473113Y-97790000D01*
X81363880Y-97240849D01*
X81052811Y-96775302D01*
X80670725Y-96520000D01*
X81052811Y-96264698D01*
X81363880Y-95799151D01*
X81473113Y-95250000D01*
X81363880Y-94700849D01*
X81052811Y-94235302D01*
X80670725Y-93980000D01*
X81052811Y-93724698D01*
X81363880Y-93259151D01*
X81473113Y-92710000D01*
X81363880Y-92160849D01*
X81052811Y-91695302D01*
X80670725Y-91440000D01*
X81052811Y-91184698D01*
X81363880Y-90719151D01*
X81473113Y-90170000D01*
X81363880Y-89620849D01*
X81052811Y-89155302D01*
X80670725Y-88900000D01*
X81052811Y-88644698D01*
X81363880Y-88179151D01*
X81473113Y-87630000D01*
X81363880Y-87080849D01*
X81052811Y-86615302D01*
X80670725Y-86360000D01*
X81052811Y-86104698D01*
X81363880Y-85639151D01*
X81473113Y-85090000D01*
X81363880Y-84540849D01*
X81052811Y-84075302D01*
X80648297Y-83805014D01*
X80865134Y-83702389D01*
X81241041Y-83287423D01*
X81401904Y-82899039D01*
X81279915Y-82677000D01*
X80137000Y-82677000D01*
X80137000Y-82697000D01*
X79883000Y-82697000D01*
X79883000Y-82677000D01*
X78740085Y-82677000D01*
X78618096Y-82899039D01*
X78778959Y-83287423D01*
X79154866Y-83702389D01*
X79371703Y-83805014D01*
X78967189Y-84075302D01*
X78764398Y-84378800D01*
X75224589Y-84378800D01*
X72474753Y-81628965D01*
X72504759Y-81556702D01*
X72505240Y-81005715D01*
X72294831Y-80496485D01*
X71905564Y-80106539D01*
X71831200Y-80075660D01*
X71831200Y-76494588D01*
X72002781Y-76323007D01*
X72103309Y-76364750D01*
X72674187Y-76365248D01*
X73201800Y-76147243D01*
X73605824Y-75743923D01*
X73824750Y-75216691D01*
X73825248Y-74645813D01*
X73607243Y-74118200D01*
X73203923Y-73714176D01*
X72676691Y-73495250D01*
X72105813Y-73494752D01*
X71578200Y-73712757D01*
X71174176Y-74116077D01*
X71146577Y-74182544D01*
X71143864Y-74175995D01*
X70897745Y-74101861D01*
X70069605Y-74930000D01*
X70083748Y-74944142D01*
X69904143Y-75123748D01*
X69890000Y-75109605D01*
X69061861Y-75937745D01*
X64210000Y-75937745D01*
X64210000Y-74713223D01*
X68443035Y-74713223D01*
X68470222Y-75283454D01*
X68636136Y-75684005D01*
X68882255Y-75758139D01*
X69710395Y-74930000D01*
X68882255Y-74101861D01*
X68636136Y-74175995D01*
X68443035Y-74713223D01*
X64210000Y-74713223D01*
X64210000Y-73922255D01*
X69061861Y-73922255D01*
X69890000Y-74750395D01*
X70718139Y-73922255D01*
X70644005Y-73676136D01*
X70106777Y-73483035D01*
X69536546Y-73510222D01*
X69135995Y-73676136D01*
X69061861Y-73922255D01*
X64210000Y-73922255D01*
X64210000Y-58420000D01*
X71678800Y-58420000D01*
X71678800Y-63500000D01*
X71732937Y-63772165D01*
X71887106Y-64002894D01*
X74218800Y-66334589D01*
X74218800Y-76200000D01*
X74272937Y-76472165D01*
X74427106Y-76702894D01*
X78237106Y-80512895D01*
X78467836Y-80667063D01*
X78740000Y-80721200D01*
X78764398Y-80721200D01*
X78967189Y-81024698D01*
X79371703Y-81294986D01*
X79154866Y-81397611D01*
X78778959Y-81812577D01*
X78618096Y-82200961D01*
X78740085Y-82423000D01*
X79883000Y-82423000D01*
X79883000Y-82403000D01*
X80137000Y-82403000D01*
X80137000Y-82423000D01*
X81279915Y-82423000D01*
X81328599Y-82334388D01*
X82047105Y-83052894D01*
X82116334Y-83099151D01*
X82277836Y-83207063D01*
X82550000Y-83261200D01*
X86384398Y-83261200D01*
X86587189Y-83564698D01*
X86918800Y-83786274D01*
X86918800Y-83853726D01*
X86587189Y-84075302D01*
X86276120Y-84540849D01*
X86166887Y-85090000D01*
X86276120Y-85639151D01*
X86587189Y-86104698D01*
X86969275Y-86360000D01*
X86587189Y-86615302D01*
X86276120Y-87080849D01*
X86166887Y-87630000D01*
X86276120Y-88179151D01*
X86587189Y-88644698D01*
X86969275Y-88900000D01*
X86587189Y-89155302D01*
X86276120Y-89620849D01*
X86166887Y-90170000D01*
X86276120Y-90719151D01*
X86587189Y-91184698D01*
X86969275Y-91440000D01*
X86587189Y-91695302D01*
X86276120Y-92160849D01*
X86166887Y-92710000D01*
X86276120Y-93259151D01*
X86587189Y-93724698D01*
X86969275Y-93980000D01*
X86587189Y-94235302D01*
X86276120Y-94700849D01*
X86166887Y-95250000D01*
X86276120Y-95799151D01*
X86587189Y-96264698D01*
X86969275Y-96520000D01*
X86587189Y-96775302D01*
X86276120Y-97240849D01*
X86166887Y-97790000D01*
X86276120Y-98339151D01*
X86587189Y-98804698D01*
X87052736Y-99115767D01*
X87601887Y-99225000D01*
X87658113Y-99225000D01*
X88207264Y-99115767D01*
X88672811Y-98804698D01*
X88983880Y-98339151D01*
X89093113Y-97790000D01*
X88983880Y-97240849D01*
X88672811Y-96775302D01*
X88290725Y-96520000D01*
X88672811Y-96264698D01*
X88983880Y-95799151D01*
X89093113Y-95250000D01*
X88983880Y-94700849D01*
X88672811Y-94235302D01*
X88290725Y-93980000D01*
X88672811Y-93724698D01*
X88983880Y-93259151D01*
X89093113Y-92710000D01*
X88983880Y-92160849D01*
X88672811Y-91695302D01*
X88290725Y-91440000D01*
X88672811Y-91184698D01*
X88983880Y-90719151D01*
X89093113Y-90170000D01*
X88983880Y-89620849D01*
X88672811Y-89155302D01*
X88290725Y-88900000D01*
X88672811Y-88644698D01*
X88983880Y-88179151D01*
X89093113Y-87630000D01*
X89075459Y-87541248D01*
X90728800Y-89194589D01*
X90728800Y-101305411D01*
X89667106Y-102367106D01*
X89512937Y-102597835D01*
X89512937Y-102597836D01*
X89458800Y-102870000D01*
X89458800Y-102989390D01*
X89414771Y-103007582D01*
X89038902Y-103382796D01*
X88835232Y-103873287D01*
X88834769Y-104404383D01*
X89037582Y-104895229D01*
X89412796Y-105271098D01*
X89458800Y-105290201D01*
X89458800Y-107655411D01*
X88605412Y-108508800D01*
X87618810Y-108508800D01*
X87577243Y-108408200D01*
X87173923Y-108004176D01*
X87107456Y-107976577D01*
X87114005Y-107973864D01*
X87188139Y-107727745D01*
X86360000Y-106899605D01*
X86345858Y-106913748D01*
X86166253Y-106734143D01*
X86180395Y-106720000D01*
X86539605Y-106720000D01*
X87367745Y-107548139D01*
X87613864Y-107474005D01*
X87806965Y-106936777D01*
X87779778Y-106366546D01*
X87613864Y-105965995D01*
X87367745Y-105891861D01*
X86539605Y-106720000D01*
X86180395Y-106720000D01*
X85352255Y-105891861D01*
X85106136Y-105965995D01*
X84913035Y-106503223D01*
X84940222Y-107073454D01*
X85008711Y-107238800D01*
X82645519Y-107238800D01*
X82395481Y-106864591D01*
X81897491Y-106531845D01*
X81310072Y-106415000D01*
X81249928Y-106415000D01*
X80662509Y-106531845D01*
X80164519Y-106864591D01*
X80005499Y-107102582D01*
X79647576Y-106712034D01*
X79104742Y-106458954D01*
X78867000Y-106579003D01*
X78867000Y-107823000D01*
X78887000Y-107823000D01*
X78887000Y-108077000D01*
X78867000Y-108077000D01*
X78867000Y-108097000D01*
X78613000Y-108097000D01*
X78613000Y-108077000D01*
X78593000Y-108077000D01*
X78593000Y-107823000D01*
X78613000Y-107823000D01*
X78613000Y-106579003D01*
X78375258Y-106458954D01*
X77832424Y-106712034D01*
X77709156Y-106846538D01*
X77703162Y-106814683D01*
X77564090Y-106598559D01*
X77351890Y-106453569D01*
X77100000Y-106402560D01*
X75300000Y-106402560D01*
X75064683Y-106446838D01*
X74848559Y-106585910D01*
X74703569Y-106798110D01*
X74652560Y-107050000D01*
X74652560Y-108850000D01*
X74696838Y-109085317D01*
X74835910Y-109301441D01*
X75048110Y-109446431D01*
X75300000Y-109497440D01*
X75488800Y-109497440D01*
X75488800Y-112775411D01*
X75357219Y-112906993D01*
X75256691Y-112865250D01*
X74685813Y-112864752D01*
X74158200Y-113082757D01*
X73754176Y-113486077D01*
X73535250Y-114013309D01*
X73534752Y-114584187D01*
X73752757Y-115111800D01*
X74156077Y-115515824D01*
X74683309Y-115734750D01*
X75254187Y-115735248D01*
X75781800Y-115517243D01*
X75991663Y-115307745D01*
X76641861Y-115307745D01*
X76715995Y-115553864D01*
X77253223Y-115746965D01*
X77823454Y-115719778D01*
X78224005Y-115553864D01*
X78298139Y-115307745D01*
X77470000Y-114479605D01*
X76641861Y-115307745D01*
X75991663Y-115307745D01*
X76185824Y-115113923D01*
X76213423Y-115047456D01*
X76216136Y-115054005D01*
X76462255Y-115128139D01*
X77290395Y-114300000D01*
X77649605Y-114300000D01*
X78477745Y-115128139D01*
X78723864Y-115054005D01*
X78916965Y-114516777D01*
X78889778Y-113946546D01*
X78723864Y-113545995D01*
X78477745Y-113471861D01*
X77649605Y-114300000D01*
X77290395Y-114300000D01*
X77276253Y-114285858D01*
X77455858Y-114106252D01*
X77470000Y-114120395D01*
X78298139Y-113292255D01*
X78224005Y-113046136D01*
X77686777Y-112853035D01*
X77116546Y-112880222D01*
X76911200Y-112965279D01*
X76911200Y-109666988D01*
X84587106Y-117342895D01*
X84817836Y-117497063D01*
X85090000Y-117551200D01*
X96520000Y-117551200D01*
X96792165Y-117497063D01*
X97022894Y-117342894D01*
X101978348Y-112387440D01*
X104240000Y-112387440D01*
X104475317Y-112343162D01*
X104691441Y-112204090D01*
X104836431Y-111991890D01*
X104870567Y-111823320D01*
X109336285Y-111823320D01*
X109465533Y-112116123D01*
X110165806Y-112384388D01*
X110915435Y-112364250D01*
X111514467Y-112116123D01*
X111643715Y-111823320D01*
X110490000Y-110669605D01*
X109336285Y-111823320D01*
X104870567Y-111823320D01*
X104887440Y-111740000D01*
X104887440Y-110165806D01*
X108595612Y-110165806D01*
X108615750Y-110915435D01*
X108863877Y-111514467D01*
X109156680Y-111643715D01*
X110310395Y-110490000D01*
X110669605Y-110490000D01*
X111823320Y-111643715D01*
X112116123Y-111514467D01*
X112384388Y-110814194D01*
X112364250Y-110064565D01*
X112116123Y-109465533D01*
X111823320Y-109336285D01*
X110669605Y-110490000D01*
X110310395Y-110490000D01*
X109156680Y-109336285D01*
X108863877Y-109465533D01*
X108595612Y-110165806D01*
X104887440Y-110165806D01*
X104887440Y-109240000D01*
X104871763Y-109156680D01*
X109336285Y-109156680D01*
X110490000Y-110310395D01*
X111643715Y-109156680D01*
X111514467Y-108863877D01*
X110814194Y-108595612D01*
X110064565Y-108615750D01*
X109465533Y-108863877D01*
X109336285Y-109156680D01*
X104871763Y-109156680D01*
X104843162Y-109004683D01*
X104704090Y-108788559D01*
X104491890Y-108643569D01*
X104240000Y-108592560D01*
X101740000Y-108592560D01*
X101504683Y-108636838D01*
X101288559Y-108775910D01*
X101143569Y-108988110D01*
X101092560Y-109240000D01*
X101092560Y-111261652D01*
X96225412Y-116128800D01*
X85384589Y-116128800D01*
X81301539Y-112045750D01*
X89905000Y-112045750D01*
X89905000Y-112786310D01*
X90001673Y-113019699D01*
X90180302Y-113198327D01*
X90413691Y-113295000D01*
X91154250Y-113295000D01*
X91313000Y-113136250D01*
X91313000Y-111887000D01*
X90063750Y-111887000D01*
X89905000Y-112045750D01*
X81301539Y-112045750D01*
X79989479Y-110733690D01*
X89905000Y-110733690D01*
X89905000Y-111474250D01*
X90063750Y-111633000D01*
X91313000Y-111633000D01*
X91313000Y-110383750D01*
X91567000Y-110383750D01*
X91567000Y-111633000D01*
X91587000Y-111633000D01*
X91587000Y-111887000D01*
X91567000Y-111887000D01*
X91567000Y-113136250D01*
X91725750Y-113295000D01*
X92466309Y-113295000D01*
X92699698Y-113198327D01*
X92878327Y-113019699D01*
X92934119Y-112885006D01*
X93109357Y-113060551D01*
X93673330Y-113294733D01*
X94283991Y-113295265D01*
X94848371Y-113062068D01*
X95280551Y-112630643D01*
X95514733Y-112066670D01*
X95515265Y-111456009D01*
X95449337Y-111296452D01*
X95752894Y-110992895D01*
X95907063Y-110762165D01*
X95928429Y-110654750D01*
X95961200Y-110490000D01*
X95961200Y-105257007D01*
X96220142Y-105083988D01*
X96509533Y-104650882D01*
X96611154Y-104140000D01*
X96509533Y-103629118D01*
X96220142Y-103196012D01*
X95787036Y-102906621D01*
X95276154Y-102805000D01*
X95223846Y-102805000D01*
X94712964Y-102906621D01*
X94279858Y-103196012D01*
X93990467Y-103629118D01*
X93888846Y-104140000D01*
X93990467Y-104650882D01*
X94279858Y-105083988D01*
X94538800Y-105257007D01*
X94538800Y-110195411D01*
X94443728Y-110290483D01*
X94286670Y-110225267D01*
X93676009Y-110224735D01*
X93111629Y-110457932D01*
X92934159Y-110635092D01*
X92878327Y-110500301D01*
X92699698Y-110321673D01*
X92466309Y-110225000D01*
X91725750Y-110225000D01*
X91567000Y-110383750D01*
X91313000Y-110383750D01*
X91154250Y-110225000D01*
X90413691Y-110225000D01*
X90180302Y-110321673D01*
X90001673Y-110500301D01*
X89905000Y-110733690D01*
X79989479Y-110733690D01*
X78740788Y-109485000D01*
X78867002Y-109485000D01*
X78867002Y-109320998D01*
X79104742Y-109441046D01*
X79647576Y-109187966D01*
X80005499Y-108797418D01*
X80164519Y-109035409D01*
X80662509Y-109368155D01*
X81249928Y-109485000D01*
X81310072Y-109485000D01*
X81897491Y-109368155D01*
X82395481Y-109035409D01*
X82645519Y-108661200D01*
X84795412Y-108661200D01*
X84966993Y-108832781D01*
X84925250Y-108933309D01*
X84924752Y-109504187D01*
X85142757Y-110031800D01*
X85546077Y-110435824D01*
X86073309Y-110654750D01*
X86644187Y-110655248D01*
X87171800Y-110437243D01*
X87575824Y-110033923D01*
X87618478Y-109931200D01*
X88900000Y-109931200D01*
X89172165Y-109877063D01*
X89402894Y-109722894D01*
X90672894Y-108452895D01*
X90827063Y-108222165D01*
X90838043Y-108166965D01*
X90881200Y-107950000D01*
X90881200Y-105290610D01*
X90925229Y-105272418D01*
X91301098Y-104897204D01*
X91504768Y-104406713D01*
X91505231Y-103875617D01*
X91302418Y-103384771D01*
X90981997Y-103063791D01*
X91942894Y-102102895D01*
X92097063Y-101872165D01*
X92106045Y-101827010D01*
X92151200Y-101600000D01*
X92151200Y-99354588D01*
X95898898Y-95606890D01*
X96348524Y-95606890D01*
X96518355Y-96016924D01*
X96908642Y-96445183D01*
X97433108Y-96691486D01*
X97663000Y-96570819D01*
X97663000Y-95377000D01*
X96469845Y-95377000D01*
X96348524Y-95606890D01*
X95898898Y-95606890D01*
X96439772Y-95066016D01*
X96469845Y-95123000D01*
X97663000Y-95123000D01*
X97663000Y-95103000D01*
X97917000Y-95103000D01*
X97917000Y-95123000D01*
X97937000Y-95123000D01*
X97937000Y-95377000D01*
X97917000Y-95377000D01*
X97917000Y-96570819D01*
X98146892Y-96691486D01*
X98671358Y-96445183D01*
X99061645Y-96016924D01*
X99061655Y-96016899D01*
X99250853Y-96300054D01*
X99732622Y-96621961D01*
X100300907Y-96735000D01*
X100359093Y-96735000D01*
X100927378Y-96621961D01*
X101409147Y-96300054D01*
X101731054Y-95818285D01*
X101773103Y-95606890D01*
X109048524Y-95606890D01*
X109218355Y-96016924D01*
X109608642Y-96445183D01*
X110133108Y-96691486D01*
X110363000Y-96570819D01*
X110363000Y-95377000D01*
X109169845Y-95377000D01*
X109048524Y-95606890D01*
X101773103Y-95606890D01*
X101844093Y-95250000D01*
X101731054Y-94681715D01*
X101409147Y-94199946D01*
X101079974Y-93980000D01*
X101409147Y-93760054D01*
X101635561Y-93421200D01*
X109184439Y-93421200D01*
X109410853Y-93760054D01*
X109751553Y-93987702D01*
X109608642Y-94054817D01*
X109218355Y-94483076D01*
X109048524Y-94893110D01*
X109169845Y-95123000D01*
X110363000Y-95123000D01*
X110363000Y-95103000D01*
X110617000Y-95103000D01*
X110617000Y-95123000D01*
X110637000Y-95123000D01*
X110637000Y-95377000D01*
X110617000Y-95377000D01*
X110617000Y-96570819D01*
X110846892Y-96691486D01*
X111371358Y-96445183D01*
X111761645Y-96016924D01*
X111761655Y-96016899D01*
X111950853Y-96300054D01*
X112432622Y-96621961D01*
X113000907Y-96735000D01*
X113059093Y-96735000D01*
X113627378Y-96621961D01*
X114109147Y-96300054D01*
X114431054Y-95818285D01*
X114544093Y-95250000D01*
X114431054Y-94681715D01*
X114109147Y-94199946D01*
X113779974Y-93980000D01*
X114109147Y-93760054D01*
X114431054Y-93278285D01*
X114544093Y-92710000D01*
X114431054Y-92141715D01*
X114109147Y-91659946D01*
X113768447Y-91432298D01*
X113911358Y-91365183D01*
X114301645Y-90936924D01*
X114471476Y-90526890D01*
X114350155Y-90297000D01*
X113157000Y-90297000D01*
X113157000Y-90317000D01*
X112903000Y-90317000D01*
X112903000Y-90297000D01*
X112883000Y-90297000D01*
X112883000Y-90043000D01*
X112903000Y-90043000D01*
X112903000Y-88849181D01*
X113157000Y-88849181D01*
X113157000Y-90043000D01*
X114350155Y-90043000D01*
X114471476Y-89813110D01*
X114301645Y-89403076D01*
X113911358Y-88974817D01*
X113386892Y-88728514D01*
X113157000Y-88849181D01*
X112903000Y-88849181D01*
X112673108Y-88728514D01*
X112148642Y-88974817D01*
X111773169Y-89386820D01*
X111749656Y-89329914D01*
X111332283Y-88911812D01*
X110786681Y-88685258D01*
X110195911Y-88684743D01*
X109649914Y-88910344D01*
X109231812Y-89327717D01*
X109005258Y-89873319D01*
X109004743Y-90464089D01*
X109230344Y-91010086D01*
X109647717Y-91428188D01*
X109715550Y-91456355D01*
X109410853Y-91659946D01*
X109184439Y-91998800D01*
X101635561Y-91998800D01*
X101409147Y-91659946D01*
X101068447Y-91432298D01*
X101211358Y-91365183D01*
X101601645Y-90936924D01*
X101771476Y-90526890D01*
X101650155Y-90297000D01*
X100457000Y-90297000D01*
X100457000Y-90317000D01*
X100203000Y-90317000D01*
X100203000Y-90297000D01*
X100183000Y-90297000D01*
X100183000Y-90043000D01*
X100203000Y-90043000D01*
X100203000Y-88849181D01*
X100457000Y-88849181D01*
X100457000Y-90043000D01*
X101650155Y-90043000D01*
X101771476Y-89813110D01*
X101601645Y-89403076D01*
X101211358Y-88974817D01*
X100686892Y-88728514D01*
X100457000Y-88849181D01*
X100203000Y-88849181D01*
X99973108Y-88728514D01*
X99448642Y-88974817D01*
X99073169Y-89386820D01*
X99049656Y-89329914D01*
X98632283Y-88911812D01*
X98086681Y-88685258D01*
X97495911Y-88684743D01*
X96949914Y-88910344D01*
X96531812Y-89327717D01*
X96305258Y-89873319D01*
X96304743Y-90464089D01*
X96530344Y-91010086D01*
X96947717Y-91428188D01*
X97015550Y-91456355D01*
X96710853Y-91659946D01*
X96388946Y-92141715D01*
X96275907Y-92710000D01*
X96360240Y-93133972D01*
X92151200Y-97343012D01*
X92151200Y-72746890D01*
X96348524Y-72746890D01*
X96518355Y-73156924D01*
X96908642Y-73585183D01*
X97433108Y-73831486D01*
X97663000Y-73710819D01*
X97663000Y-72517000D01*
X96469845Y-72517000D01*
X96348524Y-72746890D01*
X92151200Y-72746890D01*
X92151200Y-71414588D01*
X93004589Y-70561200D01*
X96484439Y-70561200D01*
X96710853Y-70900054D01*
X97051553Y-71127702D01*
X96908642Y-71194817D01*
X96518355Y-71623076D01*
X96348524Y-72033110D01*
X96469845Y-72263000D01*
X97663000Y-72263000D01*
X97663000Y-72243000D01*
X97917000Y-72243000D01*
X97917000Y-72263000D01*
X97937000Y-72263000D01*
X97937000Y-72517000D01*
X97917000Y-72517000D01*
X97917000Y-73710819D01*
X98146892Y-73831486D01*
X98671358Y-73585183D01*
X99061645Y-73156924D01*
X99061655Y-73156899D01*
X99250853Y-73440054D01*
X99732622Y-73761961D01*
X100300907Y-73875000D01*
X100359093Y-73875000D01*
X100927378Y-73761961D01*
X101409147Y-73440054D01*
X101731054Y-72958285D01*
X101773103Y-72746890D01*
X109048524Y-72746890D01*
X109218355Y-73156924D01*
X109608642Y-73585183D01*
X110133108Y-73831486D01*
X110363000Y-73710819D01*
X110363000Y-72517000D01*
X109169845Y-72517000D01*
X109048524Y-72746890D01*
X101773103Y-72746890D01*
X101844093Y-72390000D01*
X101731054Y-71821715D01*
X101409147Y-71339946D01*
X101079974Y-71120000D01*
X101409147Y-70900054D01*
X101635561Y-70561200D01*
X109184439Y-70561200D01*
X109410853Y-70900054D01*
X109751553Y-71127702D01*
X109608642Y-71194817D01*
X109218355Y-71623076D01*
X109048524Y-72033110D01*
X109169845Y-72263000D01*
X110363000Y-72263000D01*
X110363000Y-72243000D01*
X110617000Y-72243000D01*
X110617000Y-72263000D01*
X110637000Y-72263000D01*
X110637000Y-72517000D01*
X110617000Y-72517000D01*
X110617000Y-73710819D01*
X110846892Y-73831486D01*
X111371358Y-73585183D01*
X111761645Y-73156924D01*
X111761655Y-73156899D01*
X111950853Y-73440054D01*
X112432622Y-73761961D01*
X113000907Y-73875000D01*
X113059093Y-73875000D01*
X113627378Y-73761961D01*
X114109147Y-73440054D01*
X114431054Y-72958285D01*
X114544093Y-72390000D01*
X114431054Y-71821715D01*
X114109147Y-71339946D01*
X113779974Y-71120000D01*
X114109147Y-70900054D01*
X114431054Y-70418285D01*
X114544093Y-69850000D01*
X114431054Y-69281715D01*
X114109147Y-68799946D01*
X113768447Y-68572298D01*
X113911358Y-68505183D01*
X114301645Y-68076924D01*
X114471476Y-67666890D01*
X114350155Y-67437000D01*
X113157000Y-67437000D01*
X113157000Y-67457000D01*
X112903000Y-67457000D01*
X112903000Y-67437000D01*
X112883000Y-67437000D01*
X112883000Y-67183000D01*
X112903000Y-67183000D01*
X112903000Y-65989181D01*
X113157000Y-65989181D01*
X113157000Y-67183000D01*
X114350155Y-67183000D01*
X114471476Y-66953110D01*
X114301645Y-66543076D01*
X113911358Y-66114817D01*
X113386892Y-65868514D01*
X113157000Y-65989181D01*
X112903000Y-65989181D01*
X112673108Y-65868514D01*
X112148642Y-66114817D01*
X111773169Y-66526820D01*
X111749656Y-66469914D01*
X111332283Y-66051812D01*
X110786681Y-65825258D01*
X110195911Y-65824743D01*
X109649914Y-66050344D01*
X109231812Y-66467717D01*
X109005258Y-67013319D01*
X109004743Y-67604089D01*
X109230344Y-68150086D01*
X109647717Y-68568188D01*
X109715550Y-68596355D01*
X109410853Y-68799946D01*
X109184439Y-69138800D01*
X101635561Y-69138800D01*
X101409147Y-68799946D01*
X101068447Y-68572298D01*
X101211358Y-68505183D01*
X101601645Y-68076924D01*
X101771476Y-67666890D01*
X101650155Y-67437000D01*
X100457000Y-67437000D01*
X100457000Y-67457000D01*
X100203000Y-67457000D01*
X100203000Y-67437000D01*
X100183000Y-67437000D01*
X100183000Y-67183000D01*
X100203000Y-67183000D01*
X100203000Y-65989181D01*
X100457000Y-65989181D01*
X100457000Y-67183000D01*
X101650155Y-67183000D01*
X101771476Y-66953110D01*
X101601645Y-66543076D01*
X101211358Y-66114817D01*
X100686892Y-65868514D01*
X100457000Y-65989181D01*
X100203000Y-65989181D01*
X99973108Y-65868514D01*
X99448642Y-66114817D01*
X99073169Y-66526820D01*
X99049656Y-66469914D01*
X98632283Y-66051812D01*
X98086681Y-65825258D01*
X97495911Y-65824743D01*
X96949914Y-66050344D01*
X96531812Y-66467717D01*
X96305258Y-67013319D01*
X96304743Y-67604089D01*
X96530344Y-68150086D01*
X96947717Y-68568188D01*
X97015550Y-68596355D01*
X96710853Y-68799946D01*
X96484439Y-69138800D01*
X92710000Y-69138800D01*
X92482990Y-69183955D01*
X92437835Y-69192937D01*
X92207105Y-69347106D01*
X90937106Y-70617106D01*
X90782937Y-70847835D01*
X90782937Y-70847836D01*
X90728800Y-71120000D01*
X90728800Y-87183011D01*
X89017238Y-85471450D01*
X89093113Y-85090000D01*
X88983880Y-84540849D01*
X88672811Y-84075302D01*
X88341200Y-83853726D01*
X88341200Y-83786274D01*
X88672811Y-83564698D01*
X88983880Y-83099151D01*
X89093113Y-82550000D01*
X88983880Y-82000849D01*
X88672811Y-81535302D01*
X88268297Y-81265014D01*
X88485134Y-81162389D01*
X88861041Y-80747423D01*
X89021904Y-80359039D01*
X88899915Y-80137000D01*
X87757000Y-80137000D01*
X87757000Y-80157000D01*
X87503000Y-80157000D01*
X87503000Y-80137000D01*
X86360085Y-80137000D01*
X86238096Y-80359039D01*
X86398959Y-80747423D01*
X86774866Y-81162389D01*
X86991703Y-81265014D01*
X86587189Y-81535302D01*
X86384398Y-81838800D01*
X82844589Y-81838800D01*
X81397238Y-80391450D01*
X81473113Y-80010000D01*
X81363880Y-79460849D01*
X81052811Y-78995302D01*
X80670725Y-78740000D01*
X81052811Y-78484698D01*
X81363880Y-78019151D01*
X81473113Y-77470000D01*
X81363880Y-76920849D01*
X81052811Y-76455302D01*
X80670725Y-76200000D01*
X81052811Y-75944698D01*
X81363880Y-75479151D01*
X81473113Y-74930000D01*
X81363880Y-74380849D01*
X81052811Y-73915302D01*
X80670725Y-73660000D01*
X81052811Y-73404698D01*
X81255602Y-73101200D01*
X81280000Y-73101200D01*
X81552165Y-73047063D01*
X81782894Y-72892894D01*
X84322894Y-70352895D01*
X84477062Y-70122165D01*
X84477063Y-70122164D01*
X84531200Y-69850000D01*
X84531200Y-65064588D01*
X84825788Y-64770000D01*
X86166887Y-64770000D01*
X86276120Y-65319151D01*
X86587189Y-65784698D01*
X86969275Y-66040000D01*
X86587189Y-66295302D01*
X86276120Y-66760849D01*
X86166887Y-67310000D01*
X86276120Y-67859151D01*
X86587189Y-68324698D01*
X86969275Y-68580000D01*
X86587189Y-68835302D01*
X86276120Y-69300849D01*
X86166887Y-69850000D01*
X86276120Y-70399151D01*
X86587189Y-70864698D01*
X86969275Y-71120000D01*
X86587189Y-71375302D01*
X86276120Y-71840849D01*
X86166887Y-72390000D01*
X86276120Y-72939151D01*
X86587189Y-73404698D01*
X86969275Y-73660000D01*
X86587189Y-73915302D01*
X86276120Y-74380849D01*
X86166887Y-74930000D01*
X86276120Y-75479151D01*
X86587189Y-75944698D01*
X86969275Y-76200000D01*
X86587189Y-76455302D01*
X86276120Y-76920849D01*
X86166887Y-77470000D01*
X86276120Y-78019151D01*
X86587189Y-78484698D01*
X86991703Y-78754986D01*
X86774866Y-78857611D01*
X86398959Y-79272577D01*
X86238096Y-79660961D01*
X86360085Y-79883000D01*
X87503000Y-79883000D01*
X87503000Y-79863000D01*
X87757000Y-79863000D01*
X87757000Y-79883000D01*
X88899915Y-79883000D01*
X89021904Y-79660961D01*
X88861041Y-79272577D01*
X88485134Y-78857611D01*
X88268297Y-78754986D01*
X88672811Y-78484698D01*
X88983880Y-78019151D01*
X89093113Y-77470000D01*
X88983880Y-76920849D01*
X88672811Y-76455302D01*
X88290725Y-76200000D01*
X88672811Y-75944698D01*
X88983880Y-75479151D01*
X89093113Y-74930000D01*
X88983880Y-74380849D01*
X88672811Y-73915302D01*
X88290725Y-73660000D01*
X88672811Y-73404698D01*
X88983880Y-72939151D01*
X89093113Y-72390000D01*
X88983880Y-71840849D01*
X88672811Y-71375302D01*
X88290725Y-71120000D01*
X88672811Y-70864698D01*
X88983880Y-70399151D01*
X89093113Y-69850000D01*
X88983880Y-69300849D01*
X88672811Y-68835302D01*
X88290725Y-68580000D01*
X88672811Y-68324698D01*
X88983880Y-67859151D01*
X89093113Y-67310000D01*
X88983880Y-66760849D01*
X88672811Y-66295302D01*
X88290725Y-66040000D01*
X88672811Y-65784698D01*
X88983880Y-65319151D01*
X89093113Y-64770000D01*
X88983880Y-64220849D01*
X88672811Y-63755302D01*
X88207264Y-63444233D01*
X87658113Y-63335000D01*
X87601887Y-63335000D01*
X87052736Y-63444233D01*
X86587189Y-63755302D01*
X86276120Y-64220849D01*
X86166887Y-64770000D01*
X84825788Y-64770000D01*
X89828348Y-59767440D01*
X90870000Y-59767440D01*
X91105317Y-59723162D01*
X91321441Y-59584090D01*
X91466431Y-59371890D01*
X91517440Y-59120000D01*
X91517440Y-57720000D01*
X91473162Y-57484683D01*
X91334090Y-57268559D01*
X91121890Y-57123569D01*
X90870000Y-57072560D01*
X89470000Y-57072560D01*
X89234683Y-57116838D01*
X89018559Y-57255910D01*
X88873569Y-57468110D01*
X88822560Y-57720000D01*
X88822560Y-57778118D01*
X88801042Y-57726169D01*
X88565275Y-57664331D01*
X87809605Y-58420000D01*
X87823748Y-58434142D01*
X87644142Y-58613748D01*
X87630000Y-58599605D01*
X86874331Y-59355275D01*
X86936169Y-59591042D01*
X87437122Y-59767419D01*
X87838560Y-59745652D01*
X83317106Y-64267106D01*
X83162937Y-64497835D01*
X83162937Y-64497836D01*
X83108800Y-64770000D01*
X83108800Y-69555411D01*
X81147379Y-71516833D01*
X81052811Y-71375302D01*
X80670725Y-71120000D01*
X81052811Y-70864698D01*
X81363880Y-70399151D01*
X81473113Y-69850000D01*
X81363880Y-69300849D01*
X81052811Y-68835302D01*
X80670725Y-68580000D01*
X81052811Y-68324698D01*
X81363880Y-67859151D01*
X81473113Y-67310000D01*
X81363880Y-66760849D01*
X81052811Y-66295302D01*
X80908535Y-66198899D01*
X81045317Y-66173162D01*
X81261441Y-66034090D01*
X81406431Y-65821890D01*
X81457440Y-65570000D01*
X81457440Y-63970000D01*
X81413162Y-63734683D01*
X81274090Y-63518559D01*
X81061890Y-63373569D01*
X80810000Y-63322560D01*
X79210000Y-63322560D01*
X78974683Y-63366838D01*
X78758559Y-63505910D01*
X78646176Y-63670388D01*
X77484719Y-62508931D01*
X77535000Y-62256154D01*
X77535000Y-62203846D01*
X77433379Y-61692964D01*
X77143988Y-61259858D01*
X76710882Y-60970467D01*
X76200000Y-60868846D01*
X75689118Y-60970467D01*
X75256012Y-61259858D01*
X74966621Y-61692964D01*
X74865000Y-62203846D01*
X74865000Y-62256154D01*
X74966621Y-62767036D01*
X75256012Y-63200142D01*
X75689118Y-63489533D01*
X76200000Y-63591154D01*
X76496407Y-63532195D01*
X78237105Y-65272894D01*
X78306334Y-65319151D01*
X78467836Y-65427063D01*
X78562560Y-65445905D01*
X78562560Y-65570000D01*
X78606838Y-65805317D01*
X78745910Y-66021441D01*
X78958110Y-66166431D01*
X79113089Y-66197815D01*
X78967189Y-66295302D01*
X78656120Y-66760849D01*
X78546887Y-67310000D01*
X78656120Y-67859151D01*
X78967189Y-68324698D01*
X79349275Y-68580000D01*
X78967189Y-68835302D01*
X78656120Y-69300849D01*
X78546887Y-69850000D01*
X78656120Y-70399151D01*
X78967189Y-70864698D01*
X79349275Y-71120000D01*
X78967189Y-71375302D01*
X78656120Y-71840849D01*
X78546887Y-72390000D01*
X78656120Y-72939151D01*
X78967189Y-73404698D01*
X79349275Y-73660000D01*
X78967189Y-73915302D01*
X78656120Y-74380849D01*
X78546887Y-74930000D01*
X78656120Y-75479151D01*
X78967189Y-75944698D01*
X79349275Y-76200000D01*
X78967189Y-76455302D01*
X78656120Y-76920849D01*
X78546887Y-77470000D01*
X78656120Y-78019151D01*
X78967189Y-78484698D01*
X79349275Y-78740000D01*
X78967189Y-78995302D01*
X78872621Y-79136832D01*
X75641200Y-75905412D01*
X75641200Y-66040000D01*
X75587063Y-65767836D01*
X75535906Y-65691274D01*
X75432894Y-65537105D01*
X73101200Y-63205412D01*
X73101200Y-58714588D01*
X73954589Y-57861200D01*
X75049390Y-57861200D01*
X75067582Y-57905229D01*
X75442796Y-58281098D01*
X75933287Y-58484768D01*
X76464383Y-58485231D01*
X76955229Y-58282418D01*
X77331098Y-57907204D01*
X77350201Y-57861200D01*
X80985412Y-57861200D01*
X81233501Y-58109290D01*
X81215232Y-58153287D01*
X81214769Y-58684383D01*
X81417582Y-59175229D01*
X81792796Y-59551098D01*
X82283287Y-59754768D01*
X82814383Y-59755231D01*
X83305229Y-59552418D01*
X83681098Y-59177204D01*
X83884768Y-58686713D01*
X83885168Y-58227122D01*
X86282581Y-58227122D01*
X86311336Y-58757440D01*
X86458958Y-59113831D01*
X86694725Y-59175669D01*
X87450395Y-58420000D01*
X86694725Y-57664331D01*
X86458958Y-57726169D01*
X86282581Y-58227122D01*
X83885168Y-58227122D01*
X83885231Y-58155617D01*
X83682418Y-57664771D01*
X83502686Y-57484725D01*
X86874331Y-57484725D01*
X87630000Y-58240395D01*
X88385669Y-57484725D01*
X88323831Y-57248958D01*
X87822878Y-57072581D01*
X87292560Y-57101336D01*
X86936169Y-57248958D01*
X86874331Y-57484725D01*
X83502686Y-57484725D01*
X83307204Y-57288902D01*
X82816713Y-57085232D01*
X82285617Y-57084769D01*
X82239580Y-57103791D01*
X81782894Y-56647106D01*
X81552165Y-56492937D01*
X81280000Y-56438800D01*
X77350610Y-56438800D01*
X77332418Y-56394771D01*
X76957204Y-56018902D01*
X76466713Y-55815232D01*
X75935617Y-55814769D01*
X75444771Y-56017582D01*
X75068902Y-56392796D01*
X75049799Y-56438800D01*
X73660000Y-56438800D01*
X73432990Y-56483955D01*
X73387835Y-56492937D01*
X73157105Y-56647106D01*
X71887106Y-57917106D01*
X71732937Y-58147835D01*
X71732937Y-58147836D01*
X71678800Y-58420000D01*
X64210000Y-58420000D01*
X64210000Y-51510000D01*
X118670000Y-51510000D01*
X118670000Y-119940000D01*
M02*
