%TF.GenerationSoftware,KiCad,Pcbnew,5.0.2-bee76a0~70~ubuntu18.04.1*%
%TF.CreationDate,2019-03-13T14:27:35-04:00*%
%TF.ProjectId,arduino-ir-relay,61726475-696e-46f2-9d69-722d72656c61,rev?*%
%TF.SameCoordinates,Original*%
%TF.FileFunction,Copper,L1,Top*%
%TF.FilePolarity,Positive*%
%FSLAX46Y46*%
G04 Gerber Fmt 4.6, Leading zero omitted, Abs format (unit mm)*
G04 Created by KiCad (PCBNEW 5.0.2-bee76a0~70~ubuntu18.04.1) date Wed 13 Mar 2019 02:27:35 PM EDT*
%MOMM*%
%LPD*%
G01*
G04 APERTURE LIST*
%ADD10C,0.150000*%
%ADD11C,1.700000*%
%ADD12O,1.700000X1.700000*%
%ADD13R,2.500000X2.500000*%
%ADD14C,2.500000*%
%ADD15R,1.600000X1.600000*%
%ADD16O,1.600000X1.600000*%
%ADD17C,1.600000*%
%ADD18C,1.500000*%
%ADD19R,1.800000X1.800000*%
%ADD20C,1.800000*%
%ADD21C,1.400000*%
%ADD22O,1.400000X1.400000*%
%ADD23R,1.905000X2.000000*%
%ADD24O,1.905000X2.000000*%
%ADD25C,0.152400*%
%ADD26C,0.254000*%
G04 APERTURE END LIST*
D10*
X64770000Y-50800000D02*
X63500000Y-50800000D01*
X119380000Y-50800000D02*
X64770000Y-50800000D01*
X119380000Y-120650000D02*
X119380000Y-50800000D01*
X63500000Y-120650000D02*
X119380000Y-120650000D01*
X63500000Y-50800000D02*
X63500000Y-120650000D01*
D11*
X110490000Y-90170000D03*
D12*
X113030000Y-90170000D03*
X110490000Y-92710000D03*
X113030000Y-92710000D03*
X110490000Y-95250000D03*
X113030000Y-95250000D03*
D13*
X102990000Y-110490000D03*
D14*
X110490000Y-110490000D03*
D11*
X110490000Y-67310000D03*
D12*
X113030000Y-67310000D03*
X110490000Y-69850000D03*
X113030000Y-69850000D03*
X110490000Y-72390000D03*
X113030000Y-72390000D03*
D11*
X97790000Y-67310000D03*
D12*
X100330000Y-67310000D03*
X97790000Y-69850000D03*
X100330000Y-69850000D03*
X97790000Y-72390000D03*
X100330000Y-72390000D03*
D11*
X97790000Y-90170000D03*
D12*
X100330000Y-90170000D03*
X97790000Y-92710000D03*
X100330000Y-92710000D03*
X97790000Y-95250000D03*
X100330000Y-95250000D03*
D15*
X80010000Y-64770000D03*
D16*
X87630000Y-97790000D03*
X80010000Y-67310000D03*
X87630000Y-95250000D03*
X80010000Y-69850000D03*
X87630000Y-92710000D03*
X80010000Y-72390000D03*
X87630000Y-90170000D03*
X80010000Y-74930000D03*
X87630000Y-87630000D03*
X80010000Y-77470000D03*
X87630000Y-85090000D03*
X80010000Y-80010000D03*
X87630000Y-82550000D03*
X80010000Y-82550000D03*
X87630000Y-80010000D03*
X80010000Y-85090000D03*
X87630000Y-77470000D03*
X80010000Y-87630000D03*
X87630000Y-74930000D03*
X80010000Y-90170000D03*
X87630000Y-72390000D03*
X80010000Y-92710000D03*
X87630000Y-69850000D03*
X80010000Y-95250000D03*
X87630000Y-67310000D03*
X80010000Y-97790000D03*
X87630000Y-64770000D03*
D17*
X77470000Y-114300000D03*
X74970000Y-114300000D03*
X86360000Y-106720000D03*
X86360000Y-109220000D03*
X72390000Y-74930000D03*
X69890000Y-74930000D03*
X72390000Y-92710000D03*
X69890000Y-92710000D03*
D18*
X71120000Y-86160000D03*
X71120000Y-81280000D03*
D19*
X91440000Y-111760000D03*
D20*
X93980000Y-111760000D03*
D10*
G36*
X90845947Y-57521196D02*
X90870060Y-57524773D01*
X90893707Y-57530696D01*
X90916659Y-57538908D01*
X90938695Y-57549331D01*
X90959604Y-57561863D01*
X90979183Y-57576384D01*
X90997245Y-57592755D01*
X91013616Y-57610817D01*
X91028137Y-57630396D01*
X91040669Y-57651305D01*
X91051092Y-57673341D01*
X91059304Y-57696293D01*
X91065227Y-57719940D01*
X91068804Y-57744053D01*
X91070000Y-57768400D01*
X91070000Y-59071600D01*
X91068804Y-59095947D01*
X91065227Y-59120060D01*
X91059304Y-59143707D01*
X91051092Y-59166659D01*
X91040669Y-59188695D01*
X91028137Y-59209604D01*
X91013616Y-59229183D01*
X90997245Y-59247245D01*
X90979183Y-59263616D01*
X90959604Y-59278137D01*
X90938695Y-59290669D01*
X90916659Y-59301092D01*
X90893707Y-59309304D01*
X90870060Y-59315227D01*
X90845947Y-59318804D01*
X90821600Y-59320000D01*
X89518400Y-59320000D01*
X89494053Y-59318804D01*
X89469940Y-59315227D01*
X89446293Y-59309304D01*
X89423341Y-59301092D01*
X89401305Y-59290669D01*
X89380396Y-59278137D01*
X89360817Y-59263616D01*
X89342755Y-59247245D01*
X89326384Y-59229183D01*
X89311863Y-59209604D01*
X89299331Y-59188695D01*
X89288908Y-59166659D01*
X89280696Y-59143707D01*
X89274773Y-59120060D01*
X89271196Y-59095947D01*
X89270000Y-59071600D01*
X89270000Y-57768400D01*
X89271196Y-57744053D01*
X89274773Y-57719940D01*
X89280696Y-57696293D01*
X89288908Y-57673341D01*
X89299331Y-57651305D01*
X89311863Y-57630396D01*
X89326384Y-57610817D01*
X89342755Y-57592755D01*
X89360817Y-57576384D01*
X89380396Y-57561863D01*
X89401305Y-57549331D01*
X89423341Y-57538908D01*
X89446293Y-57530696D01*
X89469940Y-57524773D01*
X89494053Y-57521196D01*
X89518400Y-57520000D01*
X90821600Y-57520000D01*
X90845947Y-57521196D01*
X90845947Y-57521196D01*
G37*
D20*
X90170000Y-58420000D03*
X87630000Y-58420000D03*
X85090000Y-58420000D03*
D21*
X90170000Y-104140000D03*
D22*
X95250000Y-104140000D03*
X76200000Y-62230000D03*
D21*
X76200000Y-57150000D03*
D23*
X76200000Y-107950000D03*
D24*
X78740000Y-107950000D03*
X81280000Y-107950000D03*
D25*
X91440000Y-101600000D02*
X91440000Y-99060000D01*
X90170000Y-102870000D02*
X91440000Y-101600000D01*
X90170000Y-104140000D02*
X90170000Y-102870000D01*
X80010000Y-80010000D02*
X78740000Y-80010000D01*
X73660000Y-57150000D02*
X76200000Y-57150000D01*
X72390000Y-58420000D02*
X73660000Y-57150000D01*
X72390000Y-63500000D02*
X72390000Y-58420000D01*
X74930000Y-66040000D02*
X72390000Y-63500000D01*
X74930000Y-76200000D02*
X74930000Y-66040000D01*
X78740000Y-80010000D02*
X74930000Y-76200000D01*
X76200000Y-57150000D02*
X81280000Y-57150000D01*
X87630000Y-82550000D02*
X82550000Y-82550000D01*
X82550000Y-82550000D02*
X80010000Y-80010000D01*
X97790000Y-69850000D02*
X92710000Y-69850000D01*
X91440000Y-71120000D02*
X91440000Y-88900000D01*
X92710000Y-69850000D02*
X91440000Y-71120000D01*
X91440000Y-99060000D02*
X91440000Y-88900000D01*
X91440000Y-88900000D02*
X87630000Y-85090000D01*
X87630000Y-85090000D02*
X87630000Y-82550000D01*
X91440000Y-99060000D02*
X97790000Y-92710000D01*
X86360000Y-109220000D02*
X88900000Y-109220000D01*
X90170000Y-107950000D02*
X90170000Y-104140000D01*
X88900000Y-109220000D02*
X90170000Y-107950000D01*
X81280000Y-107950000D02*
X85090000Y-107950000D01*
X85090000Y-107950000D02*
X86360000Y-109220000D01*
X113030000Y-92710000D02*
X110490000Y-92710000D01*
X110490000Y-92710000D02*
X100330000Y-92710000D01*
X100330000Y-92710000D02*
X97790000Y-92710000D01*
X113030000Y-69850000D02*
X110490000Y-69850000D01*
X110490000Y-69850000D02*
X100330000Y-69850000D01*
X100330000Y-69850000D02*
X97790000Y-69850000D01*
X83820000Y-57150000D02*
X85090000Y-58420000D01*
X76200000Y-57150000D02*
X83820000Y-57150000D01*
X80010000Y-64770000D02*
X78740000Y-64770000D01*
X78740000Y-64770000D02*
X76200000Y-62230000D01*
X80010000Y-85090000D02*
X74930000Y-85090000D01*
X74930000Y-85090000D02*
X71120000Y-81280000D01*
X71120000Y-81280000D02*
X71120000Y-76200000D01*
X71120000Y-76200000D02*
X72390000Y-74930000D01*
X80010000Y-87630000D02*
X72590000Y-87630000D01*
X72590000Y-87630000D02*
X71120000Y-86160000D01*
X71120000Y-86160000D02*
X71120000Y-91440000D01*
X71120000Y-91440000D02*
X72390000Y-92710000D01*
X95250000Y-104140000D02*
X95250000Y-110490000D01*
X95250000Y-110490000D02*
X93980000Y-111760000D01*
X102990000Y-110490000D02*
X102870000Y-110490000D01*
X102870000Y-110490000D02*
X96520000Y-116840000D01*
X96520000Y-116840000D02*
X85090000Y-116840000D01*
X85090000Y-116840000D02*
X76200000Y-107950000D01*
X76200000Y-107950000D02*
X76200000Y-113070000D01*
X76200000Y-113070000D02*
X74970000Y-114300000D01*
X90170000Y-58420000D02*
X83820000Y-64770000D01*
X81280000Y-72390000D02*
X80010000Y-72390000D01*
X83820000Y-69850000D02*
X81280000Y-72390000D01*
X83820000Y-64770000D02*
X83820000Y-69850000D01*
D26*
G36*
X118670000Y-119940000D02*
X64210000Y-119940000D01*
X64210000Y-105712255D01*
X85531861Y-105712255D01*
X86360000Y-106540395D01*
X87188139Y-105712255D01*
X87114005Y-105466136D01*
X86576777Y-105273035D01*
X86006546Y-105300222D01*
X85605995Y-105466136D01*
X85531861Y-105712255D01*
X64210000Y-105712255D01*
X64210000Y-93717745D01*
X69061861Y-93717745D01*
X69135995Y-93963864D01*
X69673223Y-94156965D01*
X70243454Y-94129778D01*
X70644005Y-93963864D01*
X70718139Y-93717745D01*
X69890000Y-92889605D01*
X69061861Y-93717745D01*
X64210000Y-93717745D01*
X64210000Y-92493223D01*
X68443035Y-92493223D01*
X68470222Y-93063454D01*
X68636136Y-93464005D01*
X68882255Y-93538139D01*
X69710395Y-92710000D01*
X68882255Y-91881861D01*
X68636136Y-91955995D01*
X68443035Y-92493223D01*
X64210000Y-92493223D01*
X64210000Y-75937745D01*
X69061861Y-75937745D01*
X69135995Y-76183864D01*
X69673223Y-76376965D01*
X70243454Y-76349778D01*
X70408801Y-76281289D01*
X70408800Y-80075475D01*
X70335460Y-80105853D01*
X69945853Y-80495460D01*
X69735000Y-81004506D01*
X69735000Y-81555494D01*
X69945853Y-82064540D01*
X70335460Y-82454147D01*
X70844506Y-82665000D01*
X71395494Y-82665000D01*
X71468834Y-82634622D01*
X74377578Y-85543367D01*
X74417254Y-85602746D01*
X74476633Y-85642422D01*
X74476635Y-85642424D01*
X74592336Y-85719733D01*
X74652504Y-85759936D01*
X74859954Y-85801200D01*
X74859958Y-85801200D01*
X74930000Y-85815132D01*
X75000042Y-85801200D01*
X78759349Y-85801200D01*
X78975423Y-86124577D01*
X79327758Y-86360000D01*
X78975423Y-86595423D01*
X78759349Y-86918800D01*
X72884589Y-86918800D01*
X72474622Y-86508833D01*
X72505000Y-86435494D01*
X72505000Y-85884506D01*
X72294147Y-85375460D01*
X71904540Y-84985853D01*
X71395494Y-84775000D01*
X70844506Y-84775000D01*
X70335460Y-84985853D01*
X69945853Y-85375460D01*
X69735000Y-85884506D01*
X69735000Y-86435494D01*
X69945853Y-86944540D01*
X70335460Y-87334147D01*
X70408800Y-87364525D01*
X70408801Y-91369954D01*
X70408496Y-91371485D01*
X70106777Y-91263035D01*
X69536546Y-91290222D01*
X69135995Y-91456136D01*
X69061861Y-91702255D01*
X69890000Y-92530395D01*
X69904143Y-92516253D01*
X70083748Y-92695858D01*
X70069605Y-92710000D01*
X70897745Y-93538139D01*
X71143864Y-93464005D01*
X71146290Y-93457254D01*
X71173466Y-93522862D01*
X71577138Y-93926534D01*
X72104561Y-94145000D01*
X72675439Y-94145000D01*
X73202862Y-93926534D01*
X73606534Y-93522862D01*
X73825000Y-92995439D01*
X73825000Y-92424561D01*
X73606534Y-91897138D01*
X73202862Y-91493466D01*
X72675439Y-91275000D01*
X72104561Y-91275000D01*
X72002898Y-91317110D01*
X71831200Y-91145412D01*
X71831200Y-87876989D01*
X72037578Y-88083367D01*
X72077254Y-88142746D01*
X72136633Y-88182422D01*
X72136635Y-88182424D01*
X72252336Y-88259733D01*
X72312504Y-88299936D01*
X72519954Y-88341200D01*
X72519958Y-88341200D01*
X72590000Y-88355132D01*
X72660042Y-88341200D01*
X78759349Y-88341200D01*
X78975423Y-88664577D01*
X79327758Y-88900000D01*
X78975423Y-89135423D01*
X78658260Y-89610091D01*
X78546887Y-90170000D01*
X78658260Y-90729909D01*
X78975423Y-91204577D01*
X79327758Y-91440000D01*
X78975423Y-91675423D01*
X78658260Y-92150091D01*
X78546887Y-92710000D01*
X78658260Y-93269909D01*
X78975423Y-93744577D01*
X79327758Y-93980000D01*
X78975423Y-94215423D01*
X78658260Y-94690091D01*
X78546887Y-95250000D01*
X78658260Y-95809909D01*
X78975423Y-96284577D01*
X79327758Y-96520000D01*
X78975423Y-96755423D01*
X78658260Y-97230091D01*
X78546887Y-97790000D01*
X78658260Y-98349909D01*
X78975423Y-98824577D01*
X79450091Y-99141740D01*
X79868667Y-99225000D01*
X80151333Y-99225000D01*
X80569909Y-99141740D01*
X81044577Y-98824577D01*
X81361740Y-98349909D01*
X81473113Y-97790000D01*
X81361740Y-97230091D01*
X81044577Y-96755423D01*
X80692242Y-96520000D01*
X81044577Y-96284577D01*
X81361740Y-95809909D01*
X81473113Y-95250000D01*
X81361740Y-94690091D01*
X81044577Y-94215423D01*
X80692242Y-93980000D01*
X81044577Y-93744577D01*
X81361740Y-93269909D01*
X81473113Y-92710000D01*
X81361740Y-92150091D01*
X81044577Y-91675423D01*
X80692242Y-91440000D01*
X81044577Y-91204577D01*
X81361740Y-90729909D01*
X81473113Y-90170000D01*
X81361740Y-89610091D01*
X81044577Y-89135423D01*
X80692242Y-88900000D01*
X81044577Y-88664577D01*
X81361740Y-88189909D01*
X81473113Y-87630000D01*
X81361740Y-87070091D01*
X81044577Y-86595423D01*
X80692242Y-86360000D01*
X81044577Y-86124577D01*
X81361740Y-85649909D01*
X81473113Y-85090000D01*
X81361740Y-84530091D01*
X81044577Y-84055423D01*
X80660892Y-83799053D01*
X80865134Y-83702389D01*
X81241041Y-83287423D01*
X81401904Y-82899039D01*
X81279915Y-82677000D01*
X80137000Y-82677000D01*
X80137000Y-82697000D01*
X79883000Y-82697000D01*
X79883000Y-82677000D01*
X78740085Y-82677000D01*
X78618096Y-82899039D01*
X78778959Y-83287423D01*
X79154866Y-83702389D01*
X79359108Y-83799053D01*
X78975423Y-84055423D01*
X78759349Y-84378800D01*
X75224589Y-84378800D01*
X72474622Y-81628834D01*
X72505000Y-81555494D01*
X72505000Y-81004506D01*
X72294147Y-80495460D01*
X71904540Y-80105853D01*
X71831200Y-80075475D01*
X71831200Y-76494588D01*
X72002898Y-76322890D01*
X72104561Y-76365000D01*
X72675439Y-76365000D01*
X73202862Y-76146534D01*
X73606534Y-75742862D01*
X73825000Y-75215439D01*
X73825000Y-74644561D01*
X73606534Y-74117138D01*
X73202862Y-73713466D01*
X72675439Y-73495000D01*
X72104561Y-73495000D01*
X71577138Y-73713466D01*
X71173466Y-74117138D01*
X71146475Y-74182299D01*
X71143864Y-74175995D01*
X70897745Y-74101861D01*
X70069605Y-74930000D01*
X70083748Y-74944142D01*
X69904143Y-75123748D01*
X69890000Y-75109605D01*
X69061861Y-75937745D01*
X64210000Y-75937745D01*
X64210000Y-74713223D01*
X68443035Y-74713223D01*
X68470222Y-75283454D01*
X68636136Y-75684005D01*
X68882255Y-75758139D01*
X69710395Y-74930000D01*
X68882255Y-74101861D01*
X68636136Y-74175995D01*
X68443035Y-74713223D01*
X64210000Y-74713223D01*
X64210000Y-73922255D01*
X69061861Y-73922255D01*
X69890000Y-74750395D01*
X70718139Y-73922255D01*
X70644005Y-73676136D01*
X70106777Y-73483035D01*
X69536546Y-73510222D01*
X69135995Y-73676136D01*
X69061861Y-73922255D01*
X64210000Y-73922255D01*
X64210000Y-58420000D01*
X71664868Y-58420000D01*
X71678801Y-58490046D01*
X71678800Y-63429958D01*
X71664868Y-63500000D01*
X71678800Y-63570041D01*
X71678800Y-63570045D01*
X71720064Y-63777495D01*
X71720065Y-63777496D01*
X71837576Y-63953364D01*
X71837578Y-63953366D01*
X71877254Y-64012745D01*
X71936634Y-64052422D01*
X74218801Y-66334590D01*
X74218800Y-76129959D01*
X74204868Y-76200000D01*
X74218800Y-76270041D01*
X74218800Y-76270045D01*
X74260064Y-76477495D01*
X74260065Y-76477496D01*
X74377576Y-76653364D01*
X74377578Y-76653366D01*
X74417254Y-76712745D01*
X74476634Y-76752422D01*
X78187578Y-80463367D01*
X78227254Y-80522746D01*
X78286633Y-80562422D01*
X78286635Y-80562424D01*
X78357935Y-80610065D01*
X78462504Y-80679936D01*
X78669954Y-80721200D01*
X78669958Y-80721200D01*
X78740000Y-80735132D01*
X78765296Y-80730100D01*
X78975423Y-81044577D01*
X79359108Y-81300947D01*
X79154866Y-81397611D01*
X78778959Y-81812577D01*
X78618096Y-82200961D01*
X78740085Y-82423000D01*
X79883000Y-82423000D01*
X79883000Y-82403000D01*
X80137000Y-82403000D01*
X80137000Y-82423000D01*
X81279915Y-82423000D01*
X81328599Y-82334388D01*
X81997578Y-83003367D01*
X82037254Y-83062746D01*
X82096633Y-83102422D01*
X82096635Y-83102424D01*
X82272502Y-83219935D01*
X82272503Y-83219935D01*
X82272504Y-83219936D01*
X82479954Y-83261200D01*
X82479957Y-83261200D01*
X82549999Y-83275132D01*
X82620041Y-83261200D01*
X86379349Y-83261200D01*
X86595423Y-83584577D01*
X86918801Y-83800651D01*
X86918800Y-83839349D01*
X86595423Y-84055423D01*
X86278260Y-84530091D01*
X86166887Y-85090000D01*
X86278260Y-85649909D01*
X86595423Y-86124577D01*
X86947758Y-86360000D01*
X86595423Y-86595423D01*
X86278260Y-87070091D01*
X86166887Y-87630000D01*
X86278260Y-88189909D01*
X86595423Y-88664577D01*
X86947758Y-88900000D01*
X86595423Y-89135423D01*
X86278260Y-89610091D01*
X86166887Y-90170000D01*
X86278260Y-90729909D01*
X86595423Y-91204577D01*
X86947758Y-91440000D01*
X86595423Y-91675423D01*
X86278260Y-92150091D01*
X86166887Y-92710000D01*
X86278260Y-93269909D01*
X86595423Y-93744577D01*
X86947758Y-93980000D01*
X86595423Y-94215423D01*
X86278260Y-94690091D01*
X86166887Y-95250000D01*
X86278260Y-95809909D01*
X86595423Y-96284577D01*
X86947758Y-96520000D01*
X86595423Y-96755423D01*
X86278260Y-97230091D01*
X86166887Y-97790000D01*
X86278260Y-98349909D01*
X86595423Y-98824577D01*
X87070091Y-99141740D01*
X87488667Y-99225000D01*
X87771333Y-99225000D01*
X88189909Y-99141740D01*
X88664577Y-98824577D01*
X88981740Y-98349909D01*
X89093113Y-97790000D01*
X88981740Y-97230091D01*
X88664577Y-96755423D01*
X88312242Y-96520000D01*
X88664577Y-96284577D01*
X88981740Y-95809909D01*
X89093113Y-95250000D01*
X88981740Y-94690091D01*
X88664577Y-94215423D01*
X88312242Y-93980000D01*
X88664577Y-93744577D01*
X88981740Y-93269909D01*
X89093113Y-92710000D01*
X88981740Y-92150091D01*
X88664577Y-91675423D01*
X88312242Y-91440000D01*
X88664577Y-91204577D01*
X88981740Y-90729909D01*
X89093113Y-90170000D01*
X88981740Y-89610091D01*
X88664577Y-89135423D01*
X88312242Y-88900000D01*
X88664577Y-88664577D01*
X88981740Y-88189909D01*
X89093113Y-87630000D01*
X89075459Y-87541248D01*
X90728801Y-89194590D01*
X90728800Y-98989959D01*
X90714868Y-99060000D01*
X90728800Y-99130041D01*
X90728800Y-99130045D01*
X90728801Y-99130050D01*
X90728800Y-101305411D01*
X89716634Y-102317578D01*
X89657255Y-102357254D01*
X89617579Y-102416633D01*
X89617576Y-102416636D01*
X89500065Y-102592504D01*
X89444868Y-102870000D01*
X89458801Y-102940046D01*
X89458801Y-102989595D01*
X89413783Y-103008242D01*
X89038242Y-103383783D01*
X88835000Y-103874452D01*
X88835000Y-104405548D01*
X89038242Y-104896217D01*
X89413783Y-105271758D01*
X89458801Y-105290405D01*
X89458800Y-107655411D01*
X88605412Y-108508800D01*
X87618644Y-108508800D01*
X87576534Y-108407138D01*
X87172862Y-108003466D01*
X87107701Y-107976475D01*
X87114005Y-107973864D01*
X87188139Y-107727745D01*
X86360000Y-106899605D01*
X86345858Y-106913748D01*
X86166253Y-106734143D01*
X86180395Y-106720000D01*
X86539605Y-106720000D01*
X87367745Y-107548139D01*
X87613864Y-107474005D01*
X87806965Y-106936777D01*
X87779778Y-106366546D01*
X87613864Y-105965995D01*
X87367745Y-105891861D01*
X86539605Y-106720000D01*
X86180395Y-106720000D01*
X85352255Y-105891861D01*
X85106136Y-105965995D01*
X84913035Y-106503223D01*
X84940222Y-107073454D01*
X85008711Y-107238800D01*
X82745798Y-107238800D01*
X82424523Y-106757977D01*
X81899410Y-106407109D01*
X81280000Y-106283900D01*
X80660589Y-106407109D01*
X80135477Y-106757977D01*
X80000841Y-106959474D01*
X79606924Y-106574027D01*
X79112980Y-106359437D01*
X78867000Y-106479406D01*
X78867000Y-107823000D01*
X78887000Y-107823000D01*
X78887000Y-108077000D01*
X78867000Y-108077000D01*
X78867000Y-108097000D01*
X78613000Y-108097000D01*
X78613000Y-108077000D01*
X78593000Y-108077000D01*
X78593000Y-107823000D01*
X78613000Y-107823000D01*
X78613000Y-106479406D01*
X78367020Y-106359437D01*
X77873076Y-106574027D01*
X77747255Y-106697143D01*
X77610309Y-106492191D01*
X77400265Y-106351843D01*
X77152500Y-106302560D01*
X75247500Y-106302560D01*
X74999735Y-106351843D01*
X74789691Y-106492191D01*
X74649343Y-106702235D01*
X74600060Y-106950000D01*
X74600060Y-108950000D01*
X74649343Y-109197765D01*
X74789691Y-109407809D01*
X74999735Y-109548157D01*
X75247500Y-109597440D01*
X75488800Y-109597440D01*
X75488801Y-112775410D01*
X75357101Y-112907110D01*
X75255439Y-112865000D01*
X74684561Y-112865000D01*
X74157138Y-113083466D01*
X73753466Y-113487138D01*
X73535000Y-114014561D01*
X73535000Y-114585439D01*
X73753466Y-115112862D01*
X74157138Y-115516534D01*
X74684561Y-115735000D01*
X75255439Y-115735000D01*
X75782862Y-115516534D01*
X75991651Y-115307745D01*
X76641861Y-115307745D01*
X76715995Y-115553864D01*
X77253223Y-115746965D01*
X77823454Y-115719778D01*
X78224005Y-115553864D01*
X78298139Y-115307745D01*
X77470000Y-114479605D01*
X76641861Y-115307745D01*
X75991651Y-115307745D01*
X76186534Y-115112862D01*
X76213525Y-115047701D01*
X76216136Y-115054005D01*
X76462255Y-115128139D01*
X77290395Y-114300000D01*
X77649605Y-114300000D01*
X78477745Y-115128139D01*
X78723864Y-115054005D01*
X78916965Y-114516777D01*
X78889778Y-113946546D01*
X78723864Y-113545995D01*
X78477745Y-113471861D01*
X77649605Y-114300000D01*
X77290395Y-114300000D01*
X77276253Y-114285858D01*
X77455858Y-114106252D01*
X77470000Y-114120395D01*
X78298139Y-113292255D01*
X78224005Y-113046136D01*
X77686777Y-112853035D01*
X77116546Y-112880222D01*
X76911200Y-112965279D01*
X76911200Y-109666988D01*
X84537578Y-117293367D01*
X84577254Y-117352746D01*
X84636633Y-117392422D01*
X84636635Y-117392424D01*
X84752336Y-117469733D01*
X84812504Y-117509936D01*
X85019954Y-117551200D01*
X85019958Y-117551200D01*
X85090000Y-117565132D01*
X85160042Y-117551200D01*
X96449959Y-117551200D01*
X96520000Y-117565132D01*
X96590041Y-117551200D01*
X96590046Y-117551200D01*
X96797496Y-117509936D01*
X97032746Y-117352746D01*
X97072424Y-117293364D01*
X101978349Y-112387440D01*
X104240000Y-112387440D01*
X104487765Y-112338157D01*
X104697809Y-112197809D01*
X104838157Y-111987765D01*
X104870866Y-111823320D01*
X109336285Y-111823320D01*
X109465533Y-112116123D01*
X110165806Y-112384388D01*
X110915435Y-112364250D01*
X111514467Y-112116123D01*
X111643715Y-111823320D01*
X110490000Y-110669605D01*
X109336285Y-111823320D01*
X104870866Y-111823320D01*
X104887440Y-111740000D01*
X104887440Y-110165806D01*
X108595612Y-110165806D01*
X108615750Y-110915435D01*
X108863877Y-111514467D01*
X109156680Y-111643715D01*
X110310395Y-110490000D01*
X110669605Y-110490000D01*
X111823320Y-111643715D01*
X112116123Y-111514467D01*
X112384388Y-110814194D01*
X112364250Y-110064565D01*
X112116123Y-109465533D01*
X111823320Y-109336285D01*
X110669605Y-110490000D01*
X110310395Y-110490000D01*
X109156680Y-109336285D01*
X108863877Y-109465533D01*
X108595612Y-110165806D01*
X104887440Y-110165806D01*
X104887440Y-109240000D01*
X104870867Y-109156680D01*
X109336285Y-109156680D01*
X110490000Y-110310395D01*
X111643715Y-109156680D01*
X111514467Y-108863877D01*
X110814194Y-108595612D01*
X110064565Y-108615750D01*
X109465533Y-108863877D01*
X109336285Y-109156680D01*
X104870867Y-109156680D01*
X104838157Y-108992235D01*
X104697809Y-108782191D01*
X104487765Y-108641843D01*
X104240000Y-108592560D01*
X101740000Y-108592560D01*
X101492235Y-108641843D01*
X101282191Y-108782191D01*
X101141843Y-108992235D01*
X101092560Y-109240000D01*
X101092560Y-111261651D01*
X96225412Y-116128800D01*
X85384589Y-116128800D01*
X81301539Y-112045750D01*
X89905000Y-112045750D01*
X89905000Y-112786310D01*
X90001673Y-113019699D01*
X90180302Y-113198327D01*
X90413691Y-113295000D01*
X91154250Y-113295000D01*
X91313000Y-113136250D01*
X91313000Y-111887000D01*
X90063750Y-111887000D01*
X89905000Y-112045750D01*
X81301539Y-112045750D01*
X79989479Y-110733690D01*
X89905000Y-110733690D01*
X89905000Y-111474250D01*
X90063750Y-111633000D01*
X91313000Y-111633000D01*
X91313000Y-110383750D01*
X91567000Y-110383750D01*
X91567000Y-111633000D01*
X91587000Y-111633000D01*
X91587000Y-111887000D01*
X91567000Y-111887000D01*
X91567000Y-113136250D01*
X91725750Y-113295000D01*
X92466309Y-113295000D01*
X92699698Y-113198327D01*
X92878327Y-113019699D01*
X92934139Y-112884956D01*
X93110493Y-113061310D01*
X93674670Y-113295000D01*
X94285330Y-113295000D01*
X94849507Y-113061310D01*
X95281310Y-112629507D01*
X95515000Y-112065330D01*
X95515000Y-111454670D01*
X95449427Y-111296362D01*
X95703367Y-111042422D01*
X95762746Y-111002746D01*
X95802422Y-110943367D01*
X95802424Y-110943365D01*
X95919935Y-110767498D01*
X95919935Y-110767497D01*
X95919936Y-110767496D01*
X95961200Y-110560046D01*
X95961200Y-110560043D01*
X95975132Y-110490001D01*
X95961200Y-110419959D01*
X95961200Y-105270382D01*
X96212481Y-105102481D01*
X96507542Y-104660891D01*
X96611154Y-104140000D01*
X96507542Y-103619109D01*
X96212481Y-103177519D01*
X95770891Y-102882458D01*
X95381485Y-102805000D01*
X95118515Y-102805000D01*
X94729109Y-102882458D01*
X94287519Y-103177519D01*
X93992458Y-103619109D01*
X93888846Y-104140000D01*
X93992458Y-104660891D01*
X94287519Y-105102481D01*
X94538800Y-105270382D01*
X94538801Y-110195410D01*
X94443638Y-110290573D01*
X94285330Y-110225000D01*
X93674670Y-110225000D01*
X93110493Y-110458690D01*
X92934139Y-110635044D01*
X92878327Y-110500301D01*
X92699698Y-110321673D01*
X92466309Y-110225000D01*
X91725750Y-110225000D01*
X91567000Y-110383750D01*
X91313000Y-110383750D01*
X91154250Y-110225000D01*
X90413691Y-110225000D01*
X90180302Y-110321673D01*
X90001673Y-110500301D01*
X89905000Y-110733690D01*
X79989479Y-110733690D01*
X78840788Y-109585000D01*
X78867002Y-109585000D01*
X78867002Y-109420595D01*
X79112980Y-109540563D01*
X79606924Y-109325973D01*
X80000841Y-108940526D01*
X80135477Y-109142023D01*
X80660590Y-109492891D01*
X81280000Y-109616100D01*
X81899411Y-109492891D01*
X82424523Y-109142023D01*
X82745797Y-108661200D01*
X84795412Y-108661200D01*
X84967110Y-108832898D01*
X84925000Y-108934561D01*
X84925000Y-109505439D01*
X85143466Y-110032862D01*
X85547138Y-110436534D01*
X86074561Y-110655000D01*
X86645439Y-110655000D01*
X87172862Y-110436534D01*
X87576534Y-110032862D01*
X87618644Y-109931200D01*
X88829959Y-109931200D01*
X88900000Y-109945132D01*
X88970041Y-109931200D01*
X88970046Y-109931200D01*
X89177496Y-109889936D01*
X89412746Y-109732746D01*
X89452424Y-109673364D01*
X90623369Y-108502420D01*
X90682745Y-108462746D01*
X90722420Y-108403369D01*
X90722424Y-108403365D01*
X90839935Y-108227498D01*
X90839935Y-108227497D01*
X90839936Y-108227496D01*
X90881200Y-108020046D01*
X90881200Y-108020043D01*
X90895132Y-107950001D01*
X90881200Y-107879959D01*
X90881200Y-105290405D01*
X90926217Y-105271758D01*
X91301758Y-104896217D01*
X91505000Y-104405548D01*
X91505000Y-103874452D01*
X91301758Y-103383783D01*
X90981882Y-103063907D01*
X91893369Y-102152420D01*
X91952745Y-102112746D01*
X91992420Y-102053369D01*
X91992424Y-102053365D01*
X92109935Y-101877498D01*
X92109935Y-101877497D01*
X92109936Y-101877496D01*
X92151200Y-101670046D01*
X92151200Y-101670043D01*
X92165132Y-101600001D01*
X92151200Y-101529959D01*
X92151200Y-99354588D01*
X95898898Y-95606890D01*
X96348524Y-95606890D01*
X96518355Y-96016924D01*
X96908642Y-96445183D01*
X97433108Y-96691486D01*
X97663000Y-96570819D01*
X97663000Y-95377000D01*
X96469845Y-95377000D01*
X96348524Y-95606890D01*
X95898898Y-95606890D01*
X96439773Y-95066016D01*
X96469845Y-95123000D01*
X97663000Y-95123000D01*
X97663000Y-95103000D01*
X97917000Y-95103000D01*
X97917000Y-95123000D01*
X97937000Y-95123000D01*
X97937000Y-95377000D01*
X97917000Y-95377000D01*
X97917000Y-96570819D01*
X98146892Y-96691486D01*
X98671358Y-96445183D01*
X99058647Y-96020214D01*
X99259375Y-96320625D01*
X99750582Y-96648839D01*
X100183744Y-96735000D01*
X100476256Y-96735000D01*
X100909418Y-96648839D01*
X101400625Y-96320625D01*
X101728839Y-95829418D01*
X101773102Y-95606890D01*
X109048524Y-95606890D01*
X109218355Y-96016924D01*
X109608642Y-96445183D01*
X110133108Y-96691486D01*
X110363000Y-96570819D01*
X110363000Y-95377000D01*
X109169845Y-95377000D01*
X109048524Y-95606890D01*
X101773102Y-95606890D01*
X101844092Y-95250000D01*
X101728839Y-94670582D01*
X101400625Y-94179375D01*
X101102239Y-93980000D01*
X101400625Y-93780625D01*
X101640785Y-93421200D01*
X109179215Y-93421200D01*
X109419375Y-93780625D01*
X109738478Y-93993843D01*
X109608642Y-94054817D01*
X109218355Y-94483076D01*
X109048524Y-94893110D01*
X109169845Y-95123000D01*
X110363000Y-95123000D01*
X110363000Y-95103000D01*
X110617000Y-95103000D01*
X110617000Y-95123000D01*
X110637000Y-95123000D01*
X110637000Y-95377000D01*
X110617000Y-95377000D01*
X110617000Y-96570819D01*
X110846892Y-96691486D01*
X111371358Y-96445183D01*
X111758647Y-96020214D01*
X111959375Y-96320625D01*
X112450582Y-96648839D01*
X112883744Y-96735000D01*
X113176256Y-96735000D01*
X113609418Y-96648839D01*
X114100625Y-96320625D01*
X114428839Y-95829418D01*
X114544092Y-95250000D01*
X114428839Y-94670582D01*
X114100625Y-94179375D01*
X113802239Y-93980000D01*
X114100625Y-93780625D01*
X114428839Y-93289418D01*
X114544092Y-92710000D01*
X114428839Y-92130582D01*
X114100625Y-91639375D01*
X113781522Y-91426157D01*
X113911358Y-91365183D01*
X114301645Y-90936924D01*
X114471476Y-90526890D01*
X114350155Y-90297000D01*
X113157000Y-90297000D01*
X113157000Y-90317000D01*
X112903000Y-90317000D01*
X112903000Y-90297000D01*
X112883000Y-90297000D01*
X112883000Y-90043000D01*
X112903000Y-90043000D01*
X112903000Y-88849181D01*
X113157000Y-88849181D01*
X113157000Y-90043000D01*
X114350155Y-90043000D01*
X114471476Y-89813110D01*
X114301645Y-89403076D01*
X113911358Y-88974817D01*
X113386892Y-88728514D01*
X113157000Y-88849181D01*
X112903000Y-88849181D01*
X112673108Y-88728514D01*
X112148642Y-88974817D01*
X111773018Y-89386987D01*
X111748922Y-89328815D01*
X111331185Y-88911078D01*
X110785385Y-88685000D01*
X110194615Y-88685000D01*
X109648815Y-88911078D01*
X109231078Y-89328815D01*
X109005000Y-89874615D01*
X109005000Y-90465385D01*
X109231078Y-91011185D01*
X109648815Y-91428922D01*
X109701611Y-91450791D01*
X109419375Y-91639375D01*
X109179215Y-91998800D01*
X101640785Y-91998800D01*
X101400625Y-91639375D01*
X101081522Y-91426157D01*
X101211358Y-91365183D01*
X101601645Y-90936924D01*
X101771476Y-90526890D01*
X101650155Y-90297000D01*
X100457000Y-90297000D01*
X100457000Y-90317000D01*
X100203000Y-90317000D01*
X100203000Y-90297000D01*
X100183000Y-90297000D01*
X100183000Y-90043000D01*
X100203000Y-90043000D01*
X100203000Y-88849181D01*
X100457000Y-88849181D01*
X100457000Y-90043000D01*
X101650155Y-90043000D01*
X101771476Y-89813110D01*
X101601645Y-89403076D01*
X101211358Y-88974817D01*
X100686892Y-88728514D01*
X100457000Y-88849181D01*
X100203000Y-88849181D01*
X99973108Y-88728514D01*
X99448642Y-88974817D01*
X99073018Y-89386987D01*
X99048922Y-89328815D01*
X98631185Y-88911078D01*
X98085385Y-88685000D01*
X97494615Y-88685000D01*
X96948815Y-88911078D01*
X96531078Y-89328815D01*
X96305000Y-89874615D01*
X96305000Y-90465385D01*
X96531078Y-91011185D01*
X96948815Y-91428922D01*
X97001611Y-91450791D01*
X96719375Y-91639375D01*
X96391161Y-92130582D01*
X96275908Y-92710000D01*
X96360241Y-93133970D01*
X92151200Y-97343012D01*
X92151200Y-88970042D01*
X92165132Y-88900000D01*
X92151200Y-88829958D01*
X92151200Y-72746890D01*
X96348524Y-72746890D01*
X96518355Y-73156924D01*
X96908642Y-73585183D01*
X97433108Y-73831486D01*
X97663000Y-73710819D01*
X97663000Y-72517000D01*
X96469845Y-72517000D01*
X96348524Y-72746890D01*
X92151200Y-72746890D01*
X92151200Y-71414588D01*
X93004589Y-70561200D01*
X96479215Y-70561200D01*
X96719375Y-70920625D01*
X97038478Y-71133843D01*
X96908642Y-71194817D01*
X96518355Y-71623076D01*
X96348524Y-72033110D01*
X96469845Y-72263000D01*
X97663000Y-72263000D01*
X97663000Y-72243000D01*
X97917000Y-72243000D01*
X97917000Y-72263000D01*
X97937000Y-72263000D01*
X97937000Y-72517000D01*
X97917000Y-72517000D01*
X97917000Y-73710819D01*
X98146892Y-73831486D01*
X98671358Y-73585183D01*
X99058647Y-73160214D01*
X99259375Y-73460625D01*
X99750582Y-73788839D01*
X100183744Y-73875000D01*
X100476256Y-73875000D01*
X100909418Y-73788839D01*
X101400625Y-73460625D01*
X101728839Y-72969418D01*
X101773102Y-72746890D01*
X109048524Y-72746890D01*
X109218355Y-73156924D01*
X109608642Y-73585183D01*
X110133108Y-73831486D01*
X110363000Y-73710819D01*
X110363000Y-72517000D01*
X109169845Y-72517000D01*
X109048524Y-72746890D01*
X101773102Y-72746890D01*
X101844092Y-72390000D01*
X101728839Y-71810582D01*
X101400625Y-71319375D01*
X101102239Y-71120000D01*
X101400625Y-70920625D01*
X101640785Y-70561200D01*
X109179215Y-70561200D01*
X109419375Y-70920625D01*
X109738478Y-71133843D01*
X109608642Y-71194817D01*
X109218355Y-71623076D01*
X109048524Y-72033110D01*
X109169845Y-72263000D01*
X110363000Y-72263000D01*
X110363000Y-72243000D01*
X110617000Y-72243000D01*
X110617000Y-72263000D01*
X110637000Y-72263000D01*
X110637000Y-72517000D01*
X110617000Y-72517000D01*
X110617000Y-73710819D01*
X110846892Y-73831486D01*
X111371358Y-73585183D01*
X111758647Y-73160214D01*
X111959375Y-73460625D01*
X112450582Y-73788839D01*
X112883744Y-73875000D01*
X113176256Y-73875000D01*
X113609418Y-73788839D01*
X114100625Y-73460625D01*
X114428839Y-72969418D01*
X114544092Y-72390000D01*
X114428839Y-71810582D01*
X114100625Y-71319375D01*
X113802239Y-71120000D01*
X114100625Y-70920625D01*
X114428839Y-70429418D01*
X114544092Y-69850000D01*
X114428839Y-69270582D01*
X114100625Y-68779375D01*
X113781522Y-68566157D01*
X113911358Y-68505183D01*
X114301645Y-68076924D01*
X114471476Y-67666890D01*
X114350155Y-67437000D01*
X113157000Y-67437000D01*
X113157000Y-67457000D01*
X112903000Y-67457000D01*
X112903000Y-67437000D01*
X112883000Y-67437000D01*
X112883000Y-67183000D01*
X112903000Y-67183000D01*
X112903000Y-65989181D01*
X113157000Y-65989181D01*
X113157000Y-67183000D01*
X114350155Y-67183000D01*
X114471476Y-66953110D01*
X114301645Y-66543076D01*
X113911358Y-66114817D01*
X113386892Y-65868514D01*
X113157000Y-65989181D01*
X112903000Y-65989181D01*
X112673108Y-65868514D01*
X112148642Y-66114817D01*
X111773018Y-66526987D01*
X111748922Y-66468815D01*
X111331185Y-66051078D01*
X110785385Y-65825000D01*
X110194615Y-65825000D01*
X109648815Y-66051078D01*
X109231078Y-66468815D01*
X109005000Y-67014615D01*
X109005000Y-67605385D01*
X109231078Y-68151185D01*
X109648815Y-68568922D01*
X109701611Y-68590791D01*
X109419375Y-68779375D01*
X109179215Y-69138800D01*
X101640785Y-69138800D01*
X101400625Y-68779375D01*
X101081522Y-68566157D01*
X101211358Y-68505183D01*
X101601645Y-68076924D01*
X101771476Y-67666890D01*
X101650155Y-67437000D01*
X100457000Y-67437000D01*
X100457000Y-67457000D01*
X100203000Y-67457000D01*
X100203000Y-67437000D01*
X100183000Y-67437000D01*
X100183000Y-67183000D01*
X100203000Y-67183000D01*
X100203000Y-65989181D01*
X100457000Y-65989181D01*
X100457000Y-67183000D01*
X101650155Y-67183000D01*
X101771476Y-66953110D01*
X101601645Y-66543076D01*
X101211358Y-66114817D01*
X100686892Y-65868514D01*
X100457000Y-65989181D01*
X100203000Y-65989181D01*
X99973108Y-65868514D01*
X99448642Y-66114817D01*
X99073018Y-66526987D01*
X99048922Y-66468815D01*
X98631185Y-66051078D01*
X98085385Y-65825000D01*
X97494615Y-65825000D01*
X96948815Y-66051078D01*
X96531078Y-66468815D01*
X96305000Y-67014615D01*
X96305000Y-67605385D01*
X96531078Y-68151185D01*
X96948815Y-68568922D01*
X97001611Y-68590791D01*
X96719375Y-68779375D01*
X96479215Y-69138800D01*
X92780041Y-69138800D01*
X92709999Y-69124868D01*
X92639957Y-69138800D01*
X92639954Y-69138800D01*
X92432504Y-69180064D01*
X92432503Y-69180065D01*
X92432502Y-69180065D01*
X92256635Y-69297576D01*
X92256633Y-69297578D01*
X92197254Y-69337254D01*
X92157578Y-69396633D01*
X90986634Y-70567578D01*
X90927254Y-70607255D01*
X90887578Y-70666634D01*
X90887576Y-70666636D01*
X90810267Y-70782337D01*
X90770064Y-70842505D01*
X90728800Y-71049955D01*
X90728800Y-71049959D01*
X90714868Y-71120000D01*
X90728800Y-71190041D01*
X90728801Y-87183012D01*
X89017238Y-85471450D01*
X89093113Y-85090000D01*
X88981740Y-84530091D01*
X88664577Y-84055423D01*
X88341200Y-83839349D01*
X88341200Y-83800651D01*
X88664577Y-83584577D01*
X88981740Y-83109909D01*
X89093113Y-82550000D01*
X88981740Y-81990091D01*
X88664577Y-81515423D01*
X88280892Y-81259053D01*
X88485134Y-81162389D01*
X88861041Y-80747423D01*
X89021904Y-80359039D01*
X88899915Y-80137000D01*
X87757000Y-80137000D01*
X87757000Y-80157000D01*
X87503000Y-80157000D01*
X87503000Y-80137000D01*
X86360085Y-80137000D01*
X86238096Y-80359039D01*
X86398959Y-80747423D01*
X86774866Y-81162389D01*
X86979108Y-81259053D01*
X86595423Y-81515423D01*
X86379349Y-81838800D01*
X82844589Y-81838800D01*
X81397238Y-80391450D01*
X81473113Y-80010000D01*
X81361740Y-79450091D01*
X81044577Y-78975423D01*
X80692242Y-78740000D01*
X81044577Y-78504577D01*
X81361740Y-78029909D01*
X81473113Y-77470000D01*
X81361740Y-76910091D01*
X81044577Y-76435423D01*
X80692242Y-76200000D01*
X81044577Y-75964577D01*
X81361740Y-75489909D01*
X81473113Y-74930000D01*
X81361740Y-74370091D01*
X81044577Y-73895423D01*
X80692242Y-73660000D01*
X81044577Y-73424577D01*
X81254704Y-73110100D01*
X81280000Y-73115132D01*
X81350041Y-73101200D01*
X81350046Y-73101200D01*
X81557496Y-73059936D01*
X81792746Y-72902746D01*
X81832424Y-72843364D01*
X84273367Y-70402422D01*
X84332746Y-70362746D01*
X84372422Y-70303367D01*
X84372424Y-70303365D01*
X84489935Y-70127498D01*
X84489935Y-70127497D01*
X84489936Y-70127496D01*
X84531200Y-69920046D01*
X84531200Y-69920043D01*
X84545132Y-69850001D01*
X84531200Y-69779959D01*
X84531200Y-65064588D01*
X84825788Y-64770000D01*
X86166887Y-64770000D01*
X86278260Y-65329909D01*
X86595423Y-65804577D01*
X86947758Y-66040000D01*
X86595423Y-66275423D01*
X86278260Y-66750091D01*
X86166887Y-67310000D01*
X86278260Y-67869909D01*
X86595423Y-68344577D01*
X86947758Y-68580000D01*
X86595423Y-68815423D01*
X86278260Y-69290091D01*
X86166887Y-69850000D01*
X86278260Y-70409909D01*
X86595423Y-70884577D01*
X86947758Y-71120000D01*
X86595423Y-71355423D01*
X86278260Y-71830091D01*
X86166887Y-72390000D01*
X86278260Y-72949909D01*
X86595423Y-73424577D01*
X86947758Y-73660000D01*
X86595423Y-73895423D01*
X86278260Y-74370091D01*
X86166887Y-74930000D01*
X86278260Y-75489909D01*
X86595423Y-75964577D01*
X86947758Y-76200000D01*
X86595423Y-76435423D01*
X86278260Y-76910091D01*
X86166887Y-77470000D01*
X86278260Y-78029909D01*
X86595423Y-78504577D01*
X86979108Y-78760947D01*
X86774866Y-78857611D01*
X86398959Y-79272577D01*
X86238096Y-79660961D01*
X86360085Y-79883000D01*
X87503000Y-79883000D01*
X87503000Y-79863000D01*
X87757000Y-79863000D01*
X87757000Y-79883000D01*
X88899915Y-79883000D01*
X89021904Y-79660961D01*
X88861041Y-79272577D01*
X88485134Y-78857611D01*
X88280892Y-78760947D01*
X88664577Y-78504577D01*
X88981740Y-78029909D01*
X89093113Y-77470000D01*
X88981740Y-76910091D01*
X88664577Y-76435423D01*
X88312242Y-76200000D01*
X88664577Y-75964577D01*
X88981740Y-75489909D01*
X89093113Y-74930000D01*
X88981740Y-74370091D01*
X88664577Y-73895423D01*
X88312242Y-73660000D01*
X88664577Y-73424577D01*
X88981740Y-72949909D01*
X89093113Y-72390000D01*
X88981740Y-71830091D01*
X88664577Y-71355423D01*
X88312242Y-71120000D01*
X88664577Y-70884577D01*
X88981740Y-70409909D01*
X89093113Y-69850000D01*
X88981740Y-69290091D01*
X88664577Y-68815423D01*
X88312242Y-68580000D01*
X88664577Y-68344577D01*
X88981740Y-67869909D01*
X89093113Y-67310000D01*
X88981740Y-66750091D01*
X88664577Y-66275423D01*
X88312242Y-66040000D01*
X88664577Y-65804577D01*
X88981740Y-65329909D01*
X89093113Y-64770000D01*
X88981740Y-64210091D01*
X88664577Y-63735423D01*
X88189909Y-63418260D01*
X87771333Y-63335000D01*
X87488667Y-63335000D01*
X87070091Y-63418260D01*
X86595423Y-63735423D01*
X86278260Y-64210091D01*
X86166887Y-64770000D01*
X84825788Y-64770000D01*
X89628349Y-59967440D01*
X90821600Y-59967440D01*
X91164423Y-59899248D01*
X91455055Y-59705055D01*
X91649248Y-59414423D01*
X91717440Y-59071600D01*
X91717440Y-57768400D01*
X91649248Y-57425577D01*
X91455055Y-57134945D01*
X91164423Y-56940752D01*
X90821600Y-56872560D01*
X89518400Y-56872560D01*
X89175577Y-56940752D01*
X88884945Y-57134945D01*
X88690752Y-57425577D01*
X88662625Y-57566980D01*
X87809605Y-58420000D01*
X87823748Y-58434143D01*
X87644143Y-58613748D01*
X87630000Y-58599605D01*
X86729446Y-59500159D01*
X86815852Y-59756643D01*
X87389336Y-59966458D01*
X87627765Y-59956446D01*
X83366634Y-64217578D01*
X83307254Y-64257255D01*
X83267578Y-64316634D01*
X83267576Y-64316636D01*
X83190267Y-64432337D01*
X83150064Y-64492505D01*
X83108800Y-64699955D01*
X83108800Y-64699959D01*
X83094868Y-64770000D01*
X83108800Y-64840042D01*
X83108801Y-69555410D01*
X81150405Y-71513806D01*
X81044577Y-71355423D01*
X80692242Y-71120000D01*
X81044577Y-70884577D01*
X81361740Y-70409909D01*
X81473113Y-69850000D01*
X81361740Y-69290091D01*
X81044577Y-68815423D01*
X80692242Y-68580000D01*
X81044577Y-68344577D01*
X81361740Y-67869909D01*
X81473113Y-67310000D01*
X81361740Y-66750091D01*
X81044577Y-66275423D01*
X80923894Y-66194785D01*
X81057765Y-66168157D01*
X81267809Y-66027809D01*
X81408157Y-65817765D01*
X81457440Y-65570000D01*
X81457440Y-63970000D01*
X81408157Y-63722235D01*
X81267809Y-63512191D01*
X81057765Y-63371843D01*
X80810000Y-63322560D01*
X79210000Y-63322560D01*
X78962235Y-63371843D01*
X78752191Y-63512191D01*
X78646362Y-63670574D01*
X77502195Y-62526407D01*
X77561154Y-62230000D01*
X77457542Y-61709109D01*
X77162481Y-61267519D01*
X76720891Y-60972458D01*
X76331485Y-60895000D01*
X76068515Y-60895000D01*
X75679109Y-60972458D01*
X75237519Y-61267519D01*
X74942458Y-61709109D01*
X74838846Y-62230000D01*
X74942458Y-62750891D01*
X75237519Y-63192481D01*
X75679109Y-63487542D01*
X76068515Y-63565000D01*
X76331485Y-63565000D01*
X76496407Y-63532195D01*
X78187578Y-65223367D01*
X78227254Y-65282746D01*
X78286633Y-65322422D01*
X78286635Y-65322424D01*
X78462502Y-65439935D01*
X78462503Y-65439935D01*
X78462504Y-65439936D01*
X78562560Y-65459838D01*
X78562560Y-65570000D01*
X78611843Y-65817765D01*
X78752191Y-66027809D01*
X78962235Y-66168157D01*
X79096106Y-66194785D01*
X78975423Y-66275423D01*
X78658260Y-66750091D01*
X78546887Y-67310000D01*
X78658260Y-67869909D01*
X78975423Y-68344577D01*
X79327758Y-68580000D01*
X78975423Y-68815423D01*
X78658260Y-69290091D01*
X78546887Y-69850000D01*
X78658260Y-70409909D01*
X78975423Y-70884577D01*
X79327758Y-71120000D01*
X78975423Y-71355423D01*
X78658260Y-71830091D01*
X78546887Y-72390000D01*
X78658260Y-72949909D01*
X78975423Y-73424577D01*
X79327758Y-73660000D01*
X78975423Y-73895423D01*
X78658260Y-74370091D01*
X78546887Y-74930000D01*
X78658260Y-75489909D01*
X78975423Y-75964577D01*
X79327758Y-76200000D01*
X78975423Y-76435423D01*
X78658260Y-76910091D01*
X78546887Y-77470000D01*
X78658260Y-78029909D01*
X78975423Y-78504577D01*
X79327758Y-78740000D01*
X78975423Y-78975423D01*
X78869595Y-79133806D01*
X75641200Y-75905412D01*
X75641200Y-66110041D01*
X75655132Y-66039999D01*
X75641200Y-65969957D01*
X75641200Y-65969954D01*
X75599936Y-65762504D01*
X75599935Y-65762502D01*
X75482424Y-65586635D01*
X75482422Y-65586633D01*
X75442746Y-65527254D01*
X75383367Y-65487578D01*
X73101200Y-63205412D01*
X73101200Y-58714588D01*
X73954589Y-57861200D01*
X75049595Y-57861200D01*
X75068242Y-57906217D01*
X75443783Y-58281758D01*
X75934452Y-58485000D01*
X76465548Y-58485000D01*
X76956217Y-58281758D01*
X77331758Y-57906217D01*
X77350405Y-57861200D01*
X83525412Y-57861200D01*
X83620573Y-57956362D01*
X83555000Y-58114670D01*
X83555000Y-58725330D01*
X83788690Y-59289507D01*
X84220493Y-59721310D01*
X84784670Y-59955000D01*
X85395330Y-59955000D01*
X85959507Y-59721310D01*
X86391310Y-59289507D01*
X86399438Y-59269885D01*
X86549841Y-59320554D01*
X87450395Y-58420000D01*
X86549841Y-57519446D01*
X86399438Y-57570115D01*
X86391310Y-57550493D01*
X86180658Y-57339841D01*
X86729446Y-57339841D01*
X87630000Y-58240395D01*
X88530554Y-57339841D01*
X88444148Y-57083357D01*
X87870664Y-56873542D01*
X87260540Y-56899161D01*
X86815852Y-57083357D01*
X86729446Y-57339841D01*
X86180658Y-57339841D01*
X85959507Y-57118690D01*
X85395330Y-56885000D01*
X84784670Y-56885000D01*
X84626362Y-56950573D01*
X84372424Y-56696636D01*
X84332746Y-56637254D01*
X84097496Y-56480064D01*
X83890046Y-56438800D01*
X83890041Y-56438800D01*
X83820000Y-56424868D01*
X83749959Y-56438800D01*
X77350405Y-56438800D01*
X77331758Y-56393783D01*
X76956217Y-56018242D01*
X76465548Y-55815000D01*
X75934452Y-55815000D01*
X75443783Y-56018242D01*
X75068242Y-56393783D01*
X75049595Y-56438800D01*
X73730041Y-56438800D01*
X73659999Y-56424868D01*
X73589957Y-56438800D01*
X73589954Y-56438800D01*
X73382504Y-56480064D01*
X73382503Y-56480065D01*
X73382502Y-56480065D01*
X73206635Y-56597576D01*
X73206633Y-56597578D01*
X73147254Y-56637254D01*
X73107578Y-56696633D01*
X71936634Y-57867578D01*
X71877255Y-57907254D01*
X71837579Y-57966633D01*
X71837576Y-57966636D01*
X71720065Y-58142504D01*
X71664868Y-58420000D01*
X64210000Y-58420000D01*
X64210000Y-51510000D01*
X118670001Y-51510000D01*
X118670000Y-119940000D01*
X118670000Y-119940000D01*
G37*
X118670000Y-119940000D02*
X64210000Y-119940000D01*
X64210000Y-105712255D01*
X85531861Y-105712255D01*
X86360000Y-106540395D01*
X87188139Y-105712255D01*
X87114005Y-105466136D01*
X86576777Y-105273035D01*
X86006546Y-105300222D01*
X85605995Y-105466136D01*
X85531861Y-105712255D01*
X64210000Y-105712255D01*
X64210000Y-93717745D01*
X69061861Y-93717745D01*
X69135995Y-93963864D01*
X69673223Y-94156965D01*
X70243454Y-94129778D01*
X70644005Y-93963864D01*
X70718139Y-93717745D01*
X69890000Y-92889605D01*
X69061861Y-93717745D01*
X64210000Y-93717745D01*
X64210000Y-92493223D01*
X68443035Y-92493223D01*
X68470222Y-93063454D01*
X68636136Y-93464005D01*
X68882255Y-93538139D01*
X69710395Y-92710000D01*
X68882255Y-91881861D01*
X68636136Y-91955995D01*
X68443035Y-92493223D01*
X64210000Y-92493223D01*
X64210000Y-75937745D01*
X69061861Y-75937745D01*
X69135995Y-76183864D01*
X69673223Y-76376965D01*
X70243454Y-76349778D01*
X70408801Y-76281289D01*
X70408800Y-80075475D01*
X70335460Y-80105853D01*
X69945853Y-80495460D01*
X69735000Y-81004506D01*
X69735000Y-81555494D01*
X69945853Y-82064540D01*
X70335460Y-82454147D01*
X70844506Y-82665000D01*
X71395494Y-82665000D01*
X71468834Y-82634622D01*
X74377578Y-85543367D01*
X74417254Y-85602746D01*
X74476633Y-85642422D01*
X74476635Y-85642424D01*
X74592336Y-85719733D01*
X74652504Y-85759936D01*
X74859954Y-85801200D01*
X74859958Y-85801200D01*
X74930000Y-85815132D01*
X75000042Y-85801200D01*
X78759349Y-85801200D01*
X78975423Y-86124577D01*
X79327758Y-86360000D01*
X78975423Y-86595423D01*
X78759349Y-86918800D01*
X72884589Y-86918800D01*
X72474622Y-86508833D01*
X72505000Y-86435494D01*
X72505000Y-85884506D01*
X72294147Y-85375460D01*
X71904540Y-84985853D01*
X71395494Y-84775000D01*
X70844506Y-84775000D01*
X70335460Y-84985853D01*
X69945853Y-85375460D01*
X69735000Y-85884506D01*
X69735000Y-86435494D01*
X69945853Y-86944540D01*
X70335460Y-87334147D01*
X70408800Y-87364525D01*
X70408801Y-91369954D01*
X70408496Y-91371485D01*
X70106777Y-91263035D01*
X69536546Y-91290222D01*
X69135995Y-91456136D01*
X69061861Y-91702255D01*
X69890000Y-92530395D01*
X69904143Y-92516253D01*
X70083748Y-92695858D01*
X70069605Y-92710000D01*
X70897745Y-93538139D01*
X71143864Y-93464005D01*
X71146290Y-93457254D01*
X71173466Y-93522862D01*
X71577138Y-93926534D01*
X72104561Y-94145000D01*
X72675439Y-94145000D01*
X73202862Y-93926534D01*
X73606534Y-93522862D01*
X73825000Y-92995439D01*
X73825000Y-92424561D01*
X73606534Y-91897138D01*
X73202862Y-91493466D01*
X72675439Y-91275000D01*
X72104561Y-91275000D01*
X72002898Y-91317110D01*
X71831200Y-91145412D01*
X71831200Y-87876989D01*
X72037578Y-88083367D01*
X72077254Y-88142746D01*
X72136633Y-88182422D01*
X72136635Y-88182424D01*
X72252336Y-88259733D01*
X72312504Y-88299936D01*
X72519954Y-88341200D01*
X72519958Y-88341200D01*
X72590000Y-88355132D01*
X72660042Y-88341200D01*
X78759349Y-88341200D01*
X78975423Y-88664577D01*
X79327758Y-88900000D01*
X78975423Y-89135423D01*
X78658260Y-89610091D01*
X78546887Y-90170000D01*
X78658260Y-90729909D01*
X78975423Y-91204577D01*
X79327758Y-91440000D01*
X78975423Y-91675423D01*
X78658260Y-92150091D01*
X78546887Y-92710000D01*
X78658260Y-93269909D01*
X78975423Y-93744577D01*
X79327758Y-93980000D01*
X78975423Y-94215423D01*
X78658260Y-94690091D01*
X78546887Y-95250000D01*
X78658260Y-95809909D01*
X78975423Y-96284577D01*
X79327758Y-96520000D01*
X78975423Y-96755423D01*
X78658260Y-97230091D01*
X78546887Y-97790000D01*
X78658260Y-98349909D01*
X78975423Y-98824577D01*
X79450091Y-99141740D01*
X79868667Y-99225000D01*
X80151333Y-99225000D01*
X80569909Y-99141740D01*
X81044577Y-98824577D01*
X81361740Y-98349909D01*
X81473113Y-97790000D01*
X81361740Y-97230091D01*
X81044577Y-96755423D01*
X80692242Y-96520000D01*
X81044577Y-96284577D01*
X81361740Y-95809909D01*
X81473113Y-95250000D01*
X81361740Y-94690091D01*
X81044577Y-94215423D01*
X80692242Y-93980000D01*
X81044577Y-93744577D01*
X81361740Y-93269909D01*
X81473113Y-92710000D01*
X81361740Y-92150091D01*
X81044577Y-91675423D01*
X80692242Y-91440000D01*
X81044577Y-91204577D01*
X81361740Y-90729909D01*
X81473113Y-90170000D01*
X81361740Y-89610091D01*
X81044577Y-89135423D01*
X80692242Y-88900000D01*
X81044577Y-88664577D01*
X81361740Y-88189909D01*
X81473113Y-87630000D01*
X81361740Y-87070091D01*
X81044577Y-86595423D01*
X80692242Y-86360000D01*
X81044577Y-86124577D01*
X81361740Y-85649909D01*
X81473113Y-85090000D01*
X81361740Y-84530091D01*
X81044577Y-84055423D01*
X80660892Y-83799053D01*
X80865134Y-83702389D01*
X81241041Y-83287423D01*
X81401904Y-82899039D01*
X81279915Y-82677000D01*
X80137000Y-82677000D01*
X80137000Y-82697000D01*
X79883000Y-82697000D01*
X79883000Y-82677000D01*
X78740085Y-82677000D01*
X78618096Y-82899039D01*
X78778959Y-83287423D01*
X79154866Y-83702389D01*
X79359108Y-83799053D01*
X78975423Y-84055423D01*
X78759349Y-84378800D01*
X75224589Y-84378800D01*
X72474622Y-81628834D01*
X72505000Y-81555494D01*
X72505000Y-81004506D01*
X72294147Y-80495460D01*
X71904540Y-80105853D01*
X71831200Y-80075475D01*
X71831200Y-76494588D01*
X72002898Y-76322890D01*
X72104561Y-76365000D01*
X72675439Y-76365000D01*
X73202862Y-76146534D01*
X73606534Y-75742862D01*
X73825000Y-75215439D01*
X73825000Y-74644561D01*
X73606534Y-74117138D01*
X73202862Y-73713466D01*
X72675439Y-73495000D01*
X72104561Y-73495000D01*
X71577138Y-73713466D01*
X71173466Y-74117138D01*
X71146475Y-74182299D01*
X71143864Y-74175995D01*
X70897745Y-74101861D01*
X70069605Y-74930000D01*
X70083748Y-74944142D01*
X69904143Y-75123748D01*
X69890000Y-75109605D01*
X69061861Y-75937745D01*
X64210000Y-75937745D01*
X64210000Y-74713223D01*
X68443035Y-74713223D01*
X68470222Y-75283454D01*
X68636136Y-75684005D01*
X68882255Y-75758139D01*
X69710395Y-74930000D01*
X68882255Y-74101861D01*
X68636136Y-74175995D01*
X68443035Y-74713223D01*
X64210000Y-74713223D01*
X64210000Y-73922255D01*
X69061861Y-73922255D01*
X69890000Y-74750395D01*
X70718139Y-73922255D01*
X70644005Y-73676136D01*
X70106777Y-73483035D01*
X69536546Y-73510222D01*
X69135995Y-73676136D01*
X69061861Y-73922255D01*
X64210000Y-73922255D01*
X64210000Y-58420000D01*
X71664868Y-58420000D01*
X71678801Y-58490046D01*
X71678800Y-63429958D01*
X71664868Y-63500000D01*
X71678800Y-63570041D01*
X71678800Y-63570045D01*
X71720064Y-63777495D01*
X71720065Y-63777496D01*
X71837576Y-63953364D01*
X71837578Y-63953366D01*
X71877254Y-64012745D01*
X71936634Y-64052422D01*
X74218801Y-66334590D01*
X74218800Y-76129959D01*
X74204868Y-76200000D01*
X74218800Y-76270041D01*
X74218800Y-76270045D01*
X74260064Y-76477495D01*
X74260065Y-76477496D01*
X74377576Y-76653364D01*
X74377578Y-76653366D01*
X74417254Y-76712745D01*
X74476634Y-76752422D01*
X78187578Y-80463367D01*
X78227254Y-80522746D01*
X78286633Y-80562422D01*
X78286635Y-80562424D01*
X78357935Y-80610065D01*
X78462504Y-80679936D01*
X78669954Y-80721200D01*
X78669958Y-80721200D01*
X78740000Y-80735132D01*
X78765296Y-80730100D01*
X78975423Y-81044577D01*
X79359108Y-81300947D01*
X79154866Y-81397611D01*
X78778959Y-81812577D01*
X78618096Y-82200961D01*
X78740085Y-82423000D01*
X79883000Y-82423000D01*
X79883000Y-82403000D01*
X80137000Y-82403000D01*
X80137000Y-82423000D01*
X81279915Y-82423000D01*
X81328599Y-82334388D01*
X81997578Y-83003367D01*
X82037254Y-83062746D01*
X82096633Y-83102422D01*
X82096635Y-83102424D01*
X82272502Y-83219935D01*
X82272503Y-83219935D01*
X82272504Y-83219936D01*
X82479954Y-83261200D01*
X82479957Y-83261200D01*
X82549999Y-83275132D01*
X82620041Y-83261200D01*
X86379349Y-83261200D01*
X86595423Y-83584577D01*
X86918801Y-83800651D01*
X86918800Y-83839349D01*
X86595423Y-84055423D01*
X86278260Y-84530091D01*
X86166887Y-85090000D01*
X86278260Y-85649909D01*
X86595423Y-86124577D01*
X86947758Y-86360000D01*
X86595423Y-86595423D01*
X86278260Y-87070091D01*
X86166887Y-87630000D01*
X86278260Y-88189909D01*
X86595423Y-88664577D01*
X86947758Y-88900000D01*
X86595423Y-89135423D01*
X86278260Y-89610091D01*
X86166887Y-90170000D01*
X86278260Y-90729909D01*
X86595423Y-91204577D01*
X86947758Y-91440000D01*
X86595423Y-91675423D01*
X86278260Y-92150091D01*
X86166887Y-92710000D01*
X86278260Y-93269909D01*
X86595423Y-93744577D01*
X86947758Y-93980000D01*
X86595423Y-94215423D01*
X86278260Y-94690091D01*
X86166887Y-95250000D01*
X86278260Y-95809909D01*
X86595423Y-96284577D01*
X86947758Y-96520000D01*
X86595423Y-96755423D01*
X86278260Y-97230091D01*
X86166887Y-97790000D01*
X86278260Y-98349909D01*
X86595423Y-98824577D01*
X87070091Y-99141740D01*
X87488667Y-99225000D01*
X87771333Y-99225000D01*
X88189909Y-99141740D01*
X88664577Y-98824577D01*
X88981740Y-98349909D01*
X89093113Y-97790000D01*
X88981740Y-97230091D01*
X88664577Y-96755423D01*
X88312242Y-96520000D01*
X88664577Y-96284577D01*
X88981740Y-95809909D01*
X89093113Y-95250000D01*
X88981740Y-94690091D01*
X88664577Y-94215423D01*
X88312242Y-93980000D01*
X88664577Y-93744577D01*
X88981740Y-93269909D01*
X89093113Y-92710000D01*
X88981740Y-92150091D01*
X88664577Y-91675423D01*
X88312242Y-91440000D01*
X88664577Y-91204577D01*
X88981740Y-90729909D01*
X89093113Y-90170000D01*
X88981740Y-89610091D01*
X88664577Y-89135423D01*
X88312242Y-88900000D01*
X88664577Y-88664577D01*
X88981740Y-88189909D01*
X89093113Y-87630000D01*
X89075459Y-87541248D01*
X90728801Y-89194590D01*
X90728800Y-98989959D01*
X90714868Y-99060000D01*
X90728800Y-99130041D01*
X90728800Y-99130045D01*
X90728801Y-99130050D01*
X90728800Y-101305411D01*
X89716634Y-102317578D01*
X89657255Y-102357254D01*
X89617579Y-102416633D01*
X89617576Y-102416636D01*
X89500065Y-102592504D01*
X89444868Y-102870000D01*
X89458801Y-102940046D01*
X89458801Y-102989595D01*
X89413783Y-103008242D01*
X89038242Y-103383783D01*
X88835000Y-103874452D01*
X88835000Y-104405548D01*
X89038242Y-104896217D01*
X89413783Y-105271758D01*
X89458801Y-105290405D01*
X89458800Y-107655411D01*
X88605412Y-108508800D01*
X87618644Y-108508800D01*
X87576534Y-108407138D01*
X87172862Y-108003466D01*
X87107701Y-107976475D01*
X87114005Y-107973864D01*
X87188139Y-107727745D01*
X86360000Y-106899605D01*
X86345858Y-106913748D01*
X86166253Y-106734143D01*
X86180395Y-106720000D01*
X86539605Y-106720000D01*
X87367745Y-107548139D01*
X87613864Y-107474005D01*
X87806965Y-106936777D01*
X87779778Y-106366546D01*
X87613864Y-105965995D01*
X87367745Y-105891861D01*
X86539605Y-106720000D01*
X86180395Y-106720000D01*
X85352255Y-105891861D01*
X85106136Y-105965995D01*
X84913035Y-106503223D01*
X84940222Y-107073454D01*
X85008711Y-107238800D01*
X82745798Y-107238800D01*
X82424523Y-106757977D01*
X81899410Y-106407109D01*
X81280000Y-106283900D01*
X80660589Y-106407109D01*
X80135477Y-106757977D01*
X80000841Y-106959474D01*
X79606924Y-106574027D01*
X79112980Y-106359437D01*
X78867000Y-106479406D01*
X78867000Y-107823000D01*
X78887000Y-107823000D01*
X78887000Y-108077000D01*
X78867000Y-108077000D01*
X78867000Y-108097000D01*
X78613000Y-108097000D01*
X78613000Y-108077000D01*
X78593000Y-108077000D01*
X78593000Y-107823000D01*
X78613000Y-107823000D01*
X78613000Y-106479406D01*
X78367020Y-106359437D01*
X77873076Y-106574027D01*
X77747255Y-106697143D01*
X77610309Y-106492191D01*
X77400265Y-106351843D01*
X77152500Y-106302560D01*
X75247500Y-106302560D01*
X74999735Y-106351843D01*
X74789691Y-106492191D01*
X74649343Y-106702235D01*
X74600060Y-106950000D01*
X74600060Y-108950000D01*
X74649343Y-109197765D01*
X74789691Y-109407809D01*
X74999735Y-109548157D01*
X75247500Y-109597440D01*
X75488800Y-109597440D01*
X75488801Y-112775410D01*
X75357101Y-112907110D01*
X75255439Y-112865000D01*
X74684561Y-112865000D01*
X74157138Y-113083466D01*
X73753466Y-113487138D01*
X73535000Y-114014561D01*
X73535000Y-114585439D01*
X73753466Y-115112862D01*
X74157138Y-115516534D01*
X74684561Y-115735000D01*
X75255439Y-115735000D01*
X75782862Y-115516534D01*
X75991651Y-115307745D01*
X76641861Y-115307745D01*
X76715995Y-115553864D01*
X77253223Y-115746965D01*
X77823454Y-115719778D01*
X78224005Y-115553864D01*
X78298139Y-115307745D01*
X77470000Y-114479605D01*
X76641861Y-115307745D01*
X75991651Y-115307745D01*
X76186534Y-115112862D01*
X76213525Y-115047701D01*
X76216136Y-115054005D01*
X76462255Y-115128139D01*
X77290395Y-114300000D01*
X77649605Y-114300000D01*
X78477745Y-115128139D01*
X78723864Y-115054005D01*
X78916965Y-114516777D01*
X78889778Y-113946546D01*
X78723864Y-113545995D01*
X78477745Y-113471861D01*
X77649605Y-114300000D01*
X77290395Y-114300000D01*
X77276253Y-114285858D01*
X77455858Y-114106252D01*
X77470000Y-114120395D01*
X78298139Y-113292255D01*
X78224005Y-113046136D01*
X77686777Y-112853035D01*
X77116546Y-112880222D01*
X76911200Y-112965279D01*
X76911200Y-109666988D01*
X84537578Y-117293367D01*
X84577254Y-117352746D01*
X84636633Y-117392422D01*
X84636635Y-117392424D01*
X84752336Y-117469733D01*
X84812504Y-117509936D01*
X85019954Y-117551200D01*
X85019958Y-117551200D01*
X85090000Y-117565132D01*
X85160042Y-117551200D01*
X96449959Y-117551200D01*
X96520000Y-117565132D01*
X96590041Y-117551200D01*
X96590046Y-117551200D01*
X96797496Y-117509936D01*
X97032746Y-117352746D01*
X97072424Y-117293364D01*
X101978349Y-112387440D01*
X104240000Y-112387440D01*
X104487765Y-112338157D01*
X104697809Y-112197809D01*
X104838157Y-111987765D01*
X104870866Y-111823320D01*
X109336285Y-111823320D01*
X109465533Y-112116123D01*
X110165806Y-112384388D01*
X110915435Y-112364250D01*
X111514467Y-112116123D01*
X111643715Y-111823320D01*
X110490000Y-110669605D01*
X109336285Y-111823320D01*
X104870866Y-111823320D01*
X104887440Y-111740000D01*
X104887440Y-110165806D01*
X108595612Y-110165806D01*
X108615750Y-110915435D01*
X108863877Y-111514467D01*
X109156680Y-111643715D01*
X110310395Y-110490000D01*
X110669605Y-110490000D01*
X111823320Y-111643715D01*
X112116123Y-111514467D01*
X112384388Y-110814194D01*
X112364250Y-110064565D01*
X112116123Y-109465533D01*
X111823320Y-109336285D01*
X110669605Y-110490000D01*
X110310395Y-110490000D01*
X109156680Y-109336285D01*
X108863877Y-109465533D01*
X108595612Y-110165806D01*
X104887440Y-110165806D01*
X104887440Y-109240000D01*
X104870867Y-109156680D01*
X109336285Y-109156680D01*
X110490000Y-110310395D01*
X111643715Y-109156680D01*
X111514467Y-108863877D01*
X110814194Y-108595612D01*
X110064565Y-108615750D01*
X109465533Y-108863877D01*
X109336285Y-109156680D01*
X104870867Y-109156680D01*
X104838157Y-108992235D01*
X104697809Y-108782191D01*
X104487765Y-108641843D01*
X104240000Y-108592560D01*
X101740000Y-108592560D01*
X101492235Y-108641843D01*
X101282191Y-108782191D01*
X101141843Y-108992235D01*
X101092560Y-109240000D01*
X101092560Y-111261651D01*
X96225412Y-116128800D01*
X85384589Y-116128800D01*
X81301539Y-112045750D01*
X89905000Y-112045750D01*
X89905000Y-112786310D01*
X90001673Y-113019699D01*
X90180302Y-113198327D01*
X90413691Y-113295000D01*
X91154250Y-113295000D01*
X91313000Y-113136250D01*
X91313000Y-111887000D01*
X90063750Y-111887000D01*
X89905000Y-112045750D01*
X81301539Y-112045750D01*
X79989479Y-110733690D01*
X89905000Y-110733690D01*
X89905000Y-111474250D01*
X90063750Y-111633000D01*
X91313000Y-111633000D01*
X91313000Y-110383750D01*
X91567000Y-110383750D01*
X91567000Y-111633000D01*
X91587000Y-111633000D01*
X91587000Y-111887000D01*
X91567000Y-111887000D01*
X91567000Y-113136250D01*
X91725750Y-113295000D01*
X92466309Y-113295000D01*
X92699698Y-113198327D01*
X92878327Y-113019699D01*
X92934139Y-112884956D01*
X93110493Y-113061310D01*
X93674670Y-113295000D01*
X94285330Y-113295000D01*
X94849507Y-113061310D01*
X95281310Y-112629507D01*
X95515000Y-112065330D01*
X95515000Y-111454670D01*
X95449427Y-111296362D01*
X95703367Y-111042422D01*
X95762746Y-111002746D01*
X95802422Y-110943367D01*
X95802424Y-110943365D01*
X95919935Y-110767498D01*
X95919935Y-110767497D01*
X95919936Y-110767496D01*
X95961200Y-110560046D01*
X95961200Y-110560043D01*
X95975132Y-110490001D01*
X95961200Y-110419959D01*
X95961200Y-105270382D01*
X96212481Y-105102481D01*
X96507542Y-104660891D01*
X96611154Y-104140000D01*
X96507542Y-103619109D01*
X96212481Y-103177519D01*
X95770891Y-102882458D01*
X95381485Y-102805000D01*
X95118515Y-102805000D01*
X94729109Y-102882458D01*
X94287519Y-103177519D01*
X93992458Y-103619109D01*
X93888846Y-104140000D01*
X93992458Y-104660891D01*
X94287519Y-105102481D01*
X94538800Y-105270382D01*
X94538801Y-110195410D01*
X94443638Y-110290573D01*
X94285330Y-110225000D01*
X93674670Y-110225000D01*
X93110493Y-110458690D01*
X92934139Y-110635044D01*
X92878327Y-110500301D01*
X92699698Y-110321673D01*
X92466309Y-110225000D01*
X91725750Y-110225000D01*
X91567000Y-110383750D01*
X91313000Y-110383750D01*
X91154250Y-110225000D01*
X90413691Y-110225000D01*
X90180302Y-110321673D01*
X90001673Y-110500301D01*
X89905000Y-110733690D01*
X79989479Y-110733690D01*
X78840788Y-109585000D01*
X78867002Y-109585000D01*
X78867002Y-109420595D01*
X79112980Y-109540563D01*
X79606924Y-109325973D01*
X80000841Y-108940526D01*
X80135477Y-109142023D01*
X80660590Y-109492891D01*
X81280000Y-109616100D01*
X81899411Y-109492891D01*
X82424523Y-109142023D01*
X82745797Y-108661200D01*
X84795412Y-108661200D01*
X84967110Y-108832898D01*
X84925000Y-108934561D01*
X84925000Y-109505439D01*
X85143466Y-110032862D01*
X85547138Y-110436534D01*
X86074561Y-110655000D01*
X86645439Y-110655000D01*
X87172862Y-110436534D01*
X87576534Y-110032862D01*
X87618644Y-109931200D01*
X88829959Y-109931200D01*
X88900000Y-109945132D01*
X88970041Y-109931200D01*
X88970046Y-109931200D01*
X89177496Y-109889936D01*
X89412746Y-109732746D01*
X89452424Y-109673364D01*
X90623369Y-108502420D01*
X90682745Y-108462746D01*
X90722420Y-108403369D01*
X90722424Y-108403365D01*
X90839935Y-108227498D01*
X90839935Y-108227497D01*
X90839936Y-108227496D01*
X90881200Y-108020046D01*
X90881200Y-108020043D01*
X90895132Y-107950001D01*
X90881200Y-107879959D01*
X90881200Y-105290405D01*
X90926217Y-105271758D01*
X91301758Y-104896217D01*
X91505000Y-104405548D01*
X91505000Y-103874452D01*
X91301758Y-103383783D01*
X90981882Y-103063907D01*
X91893369Y-102152420D01*
X91952745Y-102112746D01*
X91992420Y-102053369D01*
X91992424Y-102053365D01*
X92109935Y-101877498D01*
X92109935Y-101877497D01*
X92109936Y-101877496D01*
X92151200Y-101670046D01*
X92151200Y-101670043D01*
X92165132Y-101600001D01*
X92151200Y-101529959D01*
X92151200Y-99354588D01*
X95898898Y-95606890D01*
X96348524Y-95606890D01*
X96518355Y-96016924D01*
X96908642Y-96445183D01*
X97433108Y-96691486D01*
X97663000Y-96570819D01*
X97663000Y-95377000D01*
X96469845Y-95377000D01*
X96348524Y-95606890D01*
X95898898Y-95606890D01*
X96439773Y-95066016D01*
X96469845Y-95123000D01*
X97663000Y-95123000D01*
X97663000Y-95103000D01*
X97917000Y-95103000D01*
X97917000Y-95123000D01*
X97937000Y-95123000D01*
X97937000Y-95377000D01*
X97917000Y-95377000D01*
X97917000Y-96570819D01*
X98146892Y-96691486D01*
X98671358Y-96445183D01*
X99058647Y-96020214D01*
X99259375Y-96320625D01*
X99750582Y-96648839D01*
X100183744Y-96735000D01*
X100476256Y-96735000D01*
X100909418Y-96648839D01*
X101400625Y-96320625D01*
X101728839Y-95829418D01*
X101773102Y-95606890D01*
X109048524Y-95606890D01*
X109218355Y-96016924D01*
X109608642Y-96445183D01*
X110133108Y-96691486D01*
X110363000Y-96570819D01*
X110363000Y-95377000D01*
X109169845Y-95377000D01*
X109048524Y-95606890D01*
X101773102Y-95606890D01*
X101844092Y-95250000D01*
X101728839Y-94670582D01*
X101400625Y-94179375D01*
X101102239Y-93980000D01*
X101400625Y-93780625D01*
X101640785Y-93421200D01*
X109179215Y-93421200D01*
X109419375Y-93780625D01*
X109738478Y-93993843D01*
X109608642Y-94054817D01*
X109218355Y-94483076D01*
X109048524Y-94893110D01*
X109169845Y-95123000D01*
X110363000Y-95123000D01*
X110363000Y-95103000D01*
X110617000Y-95103000D01*
X110617000Y-95123000D01*
X110637000Y-95123000D01*
X110637000Y-95377000D01*
X110617000Y-95377000D01*
X110617000Y-96570819D01*
X110846892Y-96691486D01*
X111371358Y-96445183D01*
X111758647Y-96020214D01*
X111959375Y-96320625D01*
X112450582Y-96648839D01*
X112883744Y-96735000D01*
X113176256Y-96735000D01*
X113609418Y-96648839D01*
X114100625Y-96320625D01*
X114428839Y-95829418D01*
X114544092Y-95250000D01*
X114428839Y-94670582D01*
X114100625Y-94179375D01*
X113802239Y-93980000D01*
X114100625Y-93780625D01*
X114428839Y-93289418D01*
X114544092Y-92710000D01*
X114428839Y-92130582D01*
X114100625Y-91639375D01*
X113781522Y-91426157D01*
X113911358Y-91365183D01*
X114301645Y-90936924D01*
X114471476Y-90526890D01*
X114350155Y-90297000D01*
X113157000Y-90297000D01*
X113157000Y-90317000D01*
X112903000Y-90317000D01*
X112903000Y-90297000D01*
X112883000Y-90297000D01*
X112883000Y-90043000D01*
X112903000Y-90043000D01*
X112903000Y-88849181D01*
X113157000Y-88849181D01*
X113157000Y-90043000D01*
X114350155Y-90043000D01*
X114471476Y-89813110D01*
X114301645Y-89403076D01*
X113911358Y-88974817D01*
X113386892Y-88728514D01*
X113157000Y-88849181D01*
X112903000Y-88849181D01*
X112673108Y-88728514D01*
X112148642Y-88974817D01*
X111773018Y-89386987D01*
X111748922Y-89328815D01*
X111331185Y-88911078D01*
X110785385Y-88685000D01*
X110194615Y-88685000D01*
X109648815Y-88911078D01*
X109231078Y-89328815D01*
X109005000Y-89874615D01*
X109005000Y-90465385D01*
X109231078Y-91011185D01*
X109648815Y-91428922D01*
X109701611Y-91450791D01*
X109419375Y-91639375D01*
X109179215Y-91998800D01*
X101640785Y-91998800D01*
X101400625Y-91639375D01*
X101081522Y-91426157D01*
X101211358Y-91365183D01*
X101601645Y-90936924D01*
X101771476Y-90526890D01*
X101650155Y-90297000D01*
X100457000Y-90297000D01*
X100457000Y-90317000D01*
X100203000Y-90317000D01*
X100203000Y-90297000D01*
X100183000Y-90297000D01*
X100183000Y-90043000D01*
X100203000Y-90043000D01*
X100203000Y-88849181D01*
X100457000Y-88849181D01*
X100457000Y-90043000D01*
X101650155Y-90043000D01*
X101771476Y-89813110D01*
X101601645Y-89403076D01*
X101211358Y-88974817D01*
X100686892Y-88728514D01*
X100457000Y-88849181D01*
X100203000Y-88849181D01*
X99973108Y-88728514D01*
X99448642Y-88974817D01*
X99073018Y-89386987D01*
X99048922Y-89328815D01*
X98631185Y-88911078D01*
X98085385Y-88685000D01*
X97494615Y-88685000D01*
X96948815Y-88911078D01*
X96531078Y-89328815D01*
X96305000Y-89874615D01*
X96305000Y-90465385D01*
X96531078Y-91011185D01*
X96948815Y-91428922D01*
X97001611Y-91450791D01*
X96719375Y-91639375D01*
X96391161Y-92130582D01*
X96275908Y-92710000D01*
X96360241Y-93133970D01*
X92151200Y-97343012D01*
X92151200Y-88970042D01*
X92165132Y-88900000D01*
X92151200Y-88829958D01*
X92151200Y-72746890D01*
X96348524Y-72746890D01*
X96518355Y-73156924D01*
X96908642Y-73585183D01*
X97433108Y-73831486D01*
X97663000Y-73710819D01*
X97663000Y-72517000D01*
X96469845Y-72517000D01*
X96348524Y-72746890D01*
X92151200Y-72746890D01*
X92151200Y-71414588D01*
X93004589Y-70561200D01*
X96479215Y-70561200D01*
X96719375Y-70920625D01*
X97038478Y-71133843D01*
X96908642Y-71194817D01*
X96518355Y-71623076D01*
X96348524Y-72033110D01*
X96469845Y-72263000D01*
X97663000Y-72263000D01*
X97663000Y-72243000D01*
X97917000Y-72243000D01*
X97917000Y-72263000D01*
X97937000Y-72263000D01*
X97937000Y-72517000D01*
X97917000Y-72517000D01*
X97917000Y-73710819D01*
X98146892Y-73831486D01*
X98671358Y-73585183D01*
X99058647Y-73160214D01*
X99259375Y-73460625D01*
X99750582Y-73788839D01*
X100183744Y-73875000D01*
X100476256Y-73875000D01*
X100909418Y-73788839D01*
X101400625Y-73460625D01*
X101728839Y-72969418D01*
X101773102Y-72746890D01*
X109048524Y-72746890D01*
X109218355Y-73156924D01*
X109608642Y-73585183D01*
X110133108Y-73831486D01*
X110363000Y-73710819D01*
X110363000Y-72517000D01*
X109169845Y-72517000D01*
X109048524Y-72746890D01*
X101773102Y-72746890D01*
X101844092Y-72390000D01*
X101728839Y-71810582D01*
X101400625Y-71319375D01*
X101102239Y-71120000D01*
X101400625Y-70920625D01*
X101640785Y-70561200D01*
X109179215Y-70561200D01*
X109419375Y-70920625D01*
X109738478Y-71133843D01*
X109608642Y-71194817D01*
X109218355Y-71623076D01*
X109048524Y-72033110D01*
X109169845Y-72263000D01*
X110363000Y-72263000D01*
X110363000Y-72243000D01*
X110617000Y-72243000D01*
X110617000Y-72263000D01*
X110637000Y-72263000D01*
X110637000Y-72517000D01*
X110617000Y-72517000D01*
X110617000Y-73710819D01*
X110846892Y-73831486D01*
X111371358Y-73585183D01*
X111758647Y-73160214D01*
X111959375Y-73460625D01*
X112450582Y-73788839D01*
X112883744Y-73875000D01*
X113176256Y-73875000D01*
X113609418Y-73788839D01*
X114100625Y-73460625D01*
X114428839Y-72969418D01*
X114544092Y-72390000D01*
X114428839Y-71810582D01*
X114100625Y-71319375D01*
X113802239Y-71120000D01*
X114100625Y-70920625D01*
X114428839Y-70429418D01*
X114544092Y-69850000D01*
X114428839Y-69270582D01*
X114100625Y-68779375D01*
X113781522Y-68566157D01*
X113911358Y-68505183D01*
X114301645Y-68076924D01*
X114471476Y-67666890D01*
X114350155Y-67437000D01*
X113157000Y-67437000D01*
X113157000Y-67457000D01*
X112903000Y-67457000D01*
X112903000Y-67437000D01*
X112883000Y-67437000D01*
X112883000Y-67183000D01*
X112903000Y-67183000D01*
X112903000Y-65989181D01*
X113157000Y-65989181D01*
X113157000Y-67183000D01*
X114350155Y-67183000D01*
X114471476Y-66953110D01*
X114301645Y-66543076D01*
X113911358Y-66114817D01*
X113386892Y-65868514D01*
X113157000Y-65989181D01*
X112903000Y-65989181D01*
X112673108Y-65868514D01*
X112148642Y-66114817D01*
X111773018Y-66526987D01*
X111748922Y-66468815D01*
X111331185Y-66051078D01*
X110785385Y-65825000D01*
X110194615Y-65825000D01*
X109648815Y-66051078D01*
X109231078Y-66468815D01*
X109005000Y-67014615D01*
X109005000Y-67605385D01*
X109231078Y-68151185D01*
X109648815Y-68568922D01*
X109701611Y-68590791D01*
X109419375Y-68779375D01*
X109179215Y-69138800D01*
X101640785Y-69138800D01*
X101400625Y-68779375D01*
X101081522Y-68566157D01*
X101211358Y-68505183D01*
X101601645Y-68076924D01*
X101771476Y-67666890D01*
X101650155Y-67437000D01*
X100457000Y-67437000D01*
X100457000Y-67457000D01*
X100203000Y-67457000D01*
X100203000Y-67437000D01*
X100183000Y-67437000D01*
X100183000Y-67183000D01*
X100203000Y-67183000D01*
X100203000Y-65989181D01*
X100457000Y-65989181D01*
X100457000Y-67183000D01*
X101650155Y-67183000D01*
X101771476Y-66953110D01*
X101601645Y-66543076D01*
X101211358Y-66114817D01*
X100686892Y-65868514D01*
X100457000Y-65989181D01*
X100203000Y-65989181D01*
X99973108Y-65868514D01*
X99448642Y-66114817D01*
X99073018Y-66526987D01*
X99048922Y-66468815D01*
X98631185Y-66051078D01*
X98085385Y-65825000D01*
X97494615Y-65825000D01*
X96948815Y-66051078D01*
X96531078Y-66468815D01*
X96305000Y-67014615D01*
X96305000Y-67605385D01*
X96531078Y-68151185D01*
X96948815Y-68568922D01*
X97001611Y-68590791D01*
X96719375Y-68779375D01*
X96479215Y-69138800D01*
X92780041Y-69138800D01*
X92709999Y-69124868D01*
X92639957Y-69138800D01*
X92639954Y-69138800D01*
X92432504Y-69180064D01*
X92432503Y-69180065D01*
X92432502Y-69180065D01*
X92256635Y-69297576D01*
X92256633Y-69297578D01*
X92197254Y-69337254D01*
X92157578Y-69396633D01*
X90986634Y-70567578D01*
X90927254Y-70607255D01*
X90887578Y-70666634D01*
X90887576Y-70666636D01*
X90810267Y-70782337D01*
X90770064Y-70842505D01*
X90728800Y-71049955D01*
X90728800Y-71049959D01*
X90714868Y-71120000D01*
X90728800Y-71190041D01*
X90728801Y-87183012D01*
X89017238Y-85471450D01*
X89093113Y-85090000D01*
X88981740Y-84530091D01*
X88664577Y-84055423D01*
X88341200Y-83839349D01*
X88341200Y-83800651D01*
X88664577Y-83584577D01*
X88981740Y-83109909D01*
X89093113Y-82550000D01*
X88981740Y-81990091D01*
X88664577Y-81515423D01*
X88280892Y-81259053D01*
X88485134Y-81162389D01*
X88861041Y-80747423D01*
X89021904Y-80359039D01*
X88899915Y-80137000D01*
X87757000Y-80137000D01*
X87757000Y-80157000D01*
X87503000Y-80157000D01*
X87503000Y-80137000D01*
X86360085Y-80137000D01*
X86238096Y-80359039D01*
X86398959Y-80747423D01*
X86774866Y-81162389D01*
X86979108Y-81259053D01*
X86595423Y-81515423D01*
X86379349Y-81838800D01*
X82844589Y-81838800D01*
X81397238Y-80391450D01*
X81473113Y-80010000D01*
X81361740Y-79450091D01*
X81044577Y-78975423D01*
X80692242Y-78740000D01*
X81044577Y-78504577D01*
X81361740Y-78029909D01*
X81473113Y-77470000D01*
X81361740Y-76910091D01*
X81044577Y-76435423D01*
X80692242Y-76200000D01*
X81044577Y-75964577D01*
X81361740Y-75489909D01*
X81473113Y-74930000D01*
X81361740Y-74370091D01*
X81044577Y-73895423D01*
X80692242Y-73660000D01*
X81044577Y-73424577D01*
X81254704Y-73110100D01*
X81280000Y-73115132D01*
X81350041Y-73101200D01*
X81350046Y-73101200D01*
X81557496Y-73059936D01*
X81792746Y-72902746D01*
X81832424Y-72843364D01*
X84273367Y-70402422D01*
X84332746Y-70362746D01*
X84372422Y-70303367D01*
X84372424Y-70303365D01*
X84489935Y-70127498D01*
X84489935Y-70127497D01*
X84489936Y-70127496D01*
X84531200Y-69920046D01*
X84531200Y-69920043D01*
X84545132Y-69850001D01*
X84531200Y-69779959D01*
X84531200Y-65064588D01*
X84825788Y-64770000D01*
X86166887Y-64770000D01*
X86278260Y-65329909D01*
X86595423Y-65804577D01*
X86947758Y-66040000D01*
X86595423Y-66275423D01*
X86278260Y-66750091D01*
X86166887Y-67310000D01*
X86278260Y-67869909D01*
X86595423Y-68344577D01*
X86947758Y-68580000D01*
X86595423Y-68815423D01*
X86278260Y-69290091D01*
X86166887Y-69850000D01*
X86278260Y-70409909D01*
X86595423Y-70884577D01*
X86947758Y-71120000D01*
X86595423Y-71355423D01*
X86278260Y-71830091D01*
X86166887Y-72390000D01*
X86278260Y-72949909D01*
X86595423Y-73424577D01*
X86947758Y-73660000D01*
X86595423Y-73895423D01*
X86278260Y-74370091D01*
X86166887Y-74930000D01*
X86278260Y-75489909D01*
X86595423Y-75964577D01*
X86947758Y-76200000D01*
X86595423Y-76435423D01*
X86278260Y-76910091D01*
X86166887Y-77470000D01*
X86278260Y-78029909D01*
X86595423Y-78504577D01*
X86979108Y-78760947D01*
X86774866Y-78857611D01*
X86398959Y-79272577D01*
X86238096Y-79660961D01*
X86360085Y-79883000D01*
X87503000Y-79883000D01*
X87503000Y-79863000D01*
X87757000Y-79863000D01*
X87757000Y-79883000D01*
X88899915Y-79883000D01*
X89021904Y-79660961D01*
X88861041Y-79272577D01*
X88485134Y-78857611D01*
X88280892Y-78760947D01*
X88664577Y-78504577D01*
X88981740Y-78029909D01*
X89093113Y-77470000D01*
X88981740Y-76910091D01*
X88664577Y-76435423D01*
X88312242Y-76200000D01*
X88664577Y-75964577D01*
X88981740Y-75489909D01*
X89093113Y-74930000D01*
X88981740Y-74370091D01*
X88664577Y-73895423D01*
X88312242Y-73660000D01*
X88664577Y-73424577D01*
X88981740Y-72949909D01*
X89093113Y-72390000D01*
X88981740Y-71830091D01*
X88664577Y-71355423D01*
X88312242Y-71120000D01*
X88664577Y-70884577D01*
X88981740Y-70409909D01*
X89093113Y-69850000D01*
X88981740Y-69290091D01*
X88664577Y-68815423D01*
X88312242Y-68580000D01*
X88664577Y-68344577D01*
X88981740Y-67869909D01*
X89093113Y-67310000D01*
X88981740Y-66750091D01*
X88664577Y-66275423D01*
X88312242Y-66040000D01*
X88664577Y-65804577D01*
X88981740Y-65329909D01*
X89093113Y-64770000D01*
X88981740Y-64210091D01*
X88664577Y-63735423D01*
X88189909Y-63418260D01*
X87771333Y-63335000D01*
X87488667Y-63335000D01*
X87070091Y-63418260D01*
X86595423Y-63735423D01*
X86278260Y-64210091D01*
X86166887Y-64770000D01*
X84825788Y-64770000D01*
X89628349Y-59967440D01*
X90821600Y-59967440D01*
X91164423Y-59899248D01*
X91455055Y-59705055D01*
X91649248Y-59414423D01*
X91717440Y-59071600D01*
X91717440Y-57768400D01*
X91649248Y-57425577D01*
X91455055Y-57134945D01*
X91164423Y-56940752D01*
X90821600Y-56872560D01*
X89518400Y-56872560D01*
X89175577Y-56940752D01*
X88884945Y-57134945D01*
X88690752Y-57425577D01*
X88662625Y-57566980D01*
X87809605Y-58420000D01*
X87823748Y-58434143D01*
X87644143Y-58613748D01*
X87630000Y-58599605D01*
X86729446Y-59500159D01*
X86815852Y-59756643D01*
X87389336Y-59966458D01*
X87627765Y-59956446D01*
X83366634Y-64217578D01*
X83307254Y-64257255D01*
X83267578Y-64316634D01*
X83267576Y-64316636D01*
X83190267Y-64432337D01*
X83150064Y-64492505D01*
X83108800Y-64699955D01*
X83108800Y-64699959D01*
X83094868Y-64770000D01*
X83108800Y-64840042D01*
X83108801Y-69555410D01*
X81150405Y-71513806D01*
X81044577Y-71355423D01*
X80692242Y-71120000D01*
X81044577Y-70884577D01*
X81361740Y-70409909D01*
X81473113Y-69850000D01*
X81361740Y-69290091D01*
X81044577Y-68815423D01*
X80692242Y-68580000D01*
X81044577Y-68344577D01*
X81361740Y-67869909D01*
X81473113Y-67310000D01*
X81361740Y-66750091D01*
X81044577Y-66275423D01*
X80923894Y-66194785D01*
X81057765Y-66168157D01*
X81267809Y-66027809D01*
X81408157Y-65817765D01*
X81457440Y-65570000D01*
X81457440Y-63970000D01*
X81408157Y-63722235D01*
X81267809Y-63512191D01*
X81057765Y-63371843D01*
X80810000Y-63322560D01*
X79210000Y-63322560D01*
X78962235Y-63371843D01*
X78752191Y-63512191D01*
X78646362Y-63670574D01*
X77502195Y-62526407D01*
X77561154Y-62230000D01*
X77457542Y-61709109D01*
X77162481Y-61267519D01*
X76720891Y-60972458D01*
X76331485Y-60895000D01*
X76068515Y-60895000D01*
X75679109Y-60972458D01*
X75237519Y-61267519D01*
X74942458Y-61709109D01*
X74838846Y-62230000D01*
X74942458Y-62750891D01*
X75237519Y-63192481D01*
X75679109Y-63487542D01*
X76068515Y-63565000D01*
X76331485Y-63565000D01*
X76496407Y-63532195D01*
X78187578Y-65223367D01*
X78227254Y-65282746D01*
X78286633Y-65322422D01*
X78286635Y-65322424D01*
X78462502Y-65439935D01*
X78462503Y-65439935D01*
X78462504Y-65439936D01*
X78562560Y-65459838D01*
X78562560Y-65570000D01*
X78611843Y-65817765D01*
X78752191Y-66027809D01*
X78962235Y-66168157D01*
X79096106Y-66194785D01*
X78975423Y-66275423D01*
X78658260Y-66750091D01*
X78546887Y-67310000D01*
X78658260Y-67869909D01*
X78975423Y-68344577D01*
X79327758Y-68580000D01*
X78975423Y-68815423D01*
X78658260Y-69290091D01*
X78546887Y-69850000D01*
X78658260Y-70409909D01*
X78975423Y-70884577D01*
X79327758Y-71120000D01*
X78975423Y-71355423D01*
X78658260Y-71830091D01*
X78546887Y-72390000D01*
X78658260Y-72949909D01*
X78975423Y-73424577D01*
X79327758Y-73660000D01*
X78975423Y-73895423D01*
X78658260Y-74370091D01*
X78546887Y-74930000D01*
X78658260Y-75489909D01*
X78975423Y-75964577D01*
X79327758Y-76200000D01*
X78975423Y-76435423D01*
X78658260Y-76910091D01*
X78546887Y-77470000D01*
X78658260Y-78029909D01*
X78975423Y-78504577D01*
X79327758Y-78740000D01*
X78975423Y-78975423D01*
X78869595Y-79133806D01*
X75641200Y-75905412D01*
X75641200Y-66110041D01*
X75655132Y-66039999D01*
X75641200Y-65969957D01*
X75641200Y-65969954D01*
X75599936Y-65762504D01*
X75599935Y-65762502D01*
X75482424Y-65586635D01*
X75482422Y-65586633D01*
X75442746Y-65527254D01*
X75383367Y-65487578D01*
X73101200Y-63205412D01*
X73101200Y-58714588D01*
X73954589Y-57861200D01*
X75049595Y-57861200D01*
X75068242Y-57906217D01*
X75443783Y-58281758D01*
X75934452Y-58485000D01*
X76465548Y-58485000D01*
X76956217Y-58281758D01*
X77331758Y-57906217D01*
X77350405Y-57861200D01*
X83525412Y-57861200D01*
X83620573Y-57956362D01*
X83555000Y-58114670D01*
X83555000Y-58725330D01*
X83788690Y-59289507D01*
X84220493Y-59721310D01*
X84784670Y-59955000D01*
X85395330Y-59955000D01*
X85959507Y-59721310D01*
X86391310Y-59289507D01*
X86399438Y-59269885D01*
X86549841Y-59320554D01*
X87450395Y-58420000D01*
X86549841Y-57519446D01*
X86399438Y-57570115D01*
X86391310Y-57550493D01*
X86180658Y-57339841D01*
X86729446Y-57339841D01*
X87630000Y-58240395D01*
X88530554Y-57339841D01*
X88444148Y-57083357D01*
X87870664Y-56873542D01*
X87260540Y-56899161D01*
X86815852Y-57083357D01*
X86729446Y-57339841D01*
X86180658Y-57339841D01*
X85959507Y-57118690D01*
X85395330Y-56885000D01*
X84784670Y-56885000D01*
X84626362Y-56950573D01*
X84372424Y-56696636D01*
X84332746Y-56637254D01*
X84097496Y-56480064D01*
X83890046Y-56438800D01*
X83890041Y-56438800D01*
X83820000Y-56424868D01*
X83749959Y-56438800D01*
X77350405Y-56438800D01*
X77331758Y-56393783D01*
X76956217Y-56018242D01*
X76465548Y-55815000D01*
X75934452Y-55815000D01*
X75443783Y-56018242D01*
X75068242Y-56393783D01*
X75049595Y-56438800D01*
X73730041Y-56438800D01*
X73659999Y-56424868D01*
X73589957Y-56438800D01*
X73589954Y-56438800D01*
X73382504Y-56480064D01*
X73382503Y-56480065D01*
X73382502Y-56480065D01*
X73206635Y-56597576D01*
X73206633Y-56597578D01*
X73147254Y-56637254D01*
X73107578Y-56696633D01*
X71936634Y-57867578D01*
X71877255Y-57907254D01*
X71837579Y-57966633D01*
X71837576Y-57966636D01*
X71720065Y-58142504D01*
X71664868Y-58420000D01*
X64210000Y-58420000D01*
X64210000Y-51510000D01*
X118670001Y-51510000D01*
X118670000Y-119940000D01*
M02*
