M48
;DRILL file {KiCad 4.0.7} date Sat Jul 21 22:05:22 2018
;FORMAT={-:-/ absolute / inch / decimal}
FMAT,2
INCH,TZ
T1C0.028
T2C0.031
T3C0.035
T4C0.039
T5C0.051
%
G90
G05
M72
T1
X3.Y-2.25
X3.Y-2.45
X3.25Y-2.3
X3.45Y-2.3
X3.55Y-2.3
X3.55Y-4.1
X3.75Y-4.1
T2
X2.7516Y-2.95
X2.7516Y-3.65
X2.8Y-3.2
X2.8Y-3.3921
X2.85Y-2.95
X2.85Y-3.65
X2.9516Y-4.5
X3.05Y-4.5
X3.15Y-2.55
X3.15Y-2.65
X3.15Y-2.75
X3.15Y-2.85
X3.15Y-2.95
X3.15Y-3.05
X3.15Y-3.15
X3.15Y-3.25
X3.15Y-3.35
X3.15Y-3.45
X3.15Y-3.55
X3.15Y-3.65
X3.15Y-3.75
X3.15Y-3.85
X3.4Y-4.2016
X3.4Y-4.3
X3.45Y-2.55
X3.45Y-2.65
X3.45Y-2.75
X3.45Y-2.85
X3.45Y-2.95
X3.45Y-3.05
X3.45Y-3.15
X3.45Y-3.25
X3.45Y-3.35
X3.45Y-3.45
X3.45Y-3.55
X3.45Y-3.65
X3.45Y-3.75
X3.45Y-3.85
T3
X3.6Y-4.4
X3.7Y-4.4
T4
X3.Y-4.25
X3.1Y-4.25
X3.2Y-4.25
X3.85Y-2.65
X3.85Y-2.75
X3.85Y-2.85
X3.85Y-3.55
X3.85Y-3.65
X3.85Y-3.75
X3.95Y-2.65
X3.95Y-2.75
X3.95Y-2.85
X3.95Y-3.55
X3.95Y-3.65
X3.95Y-3.75
X4.35Y-2.65
X4.35Y-2.75
X4.35Y-2.85
X4.35Y-3.55
X4.35Y-3.65
X4.35Y-3.75
X4.45Y-2.65
X4.45Y-2.75
X4.45Y-2.85
X4.45Y-3.55
X4.45Y-3.65
X4.45Y-3.75
T5
X4.0547Y-4.35
X4.35Y-4.35
T0
M30
