%TF.GenerationSoftware,KiCad,Pcbnew,4.0.7*%
%TF.CreationDate,2018-07-21T22:05:15-04:00*%
%TF.ProjectId,arduino-ir-relay,61726475696E6F2D69722D72656C6179,rev?*%
%TF.FileFunction,Copper,L2,Bot,Signal*%
%FSLAX46Y46*%
G04 Gerber Fmt 4.6, Leading zero omitted, Abs format (unit mm)*
G04 Created by KiCad (PCBNEW 4.0.7) date Sat Jul 21 22:05:15 2018*
%MOMM*%
%LPD*%
G01*
G04 APERTURE LIST*
%ADD10C,0.150000*%
%ADD11C,1.700000*%
%ADD12O,1.700000X1.700000*%
%ADD13R,1.400000X1.400000*%
%ADD14C,1.400000*%
%ADD15C,1.600000*%
%ADD16C,1.500000*%
%ADD17R,1.800000X1.800000*%
%ADD18C,1.800000*%
%ADD19O,1.400000X1.400000*%
%ADD20O,1.800000X1.800000*%
%ADD21R,2.500000X2.500000*%
%ADD22C,2.500000*%
%ADD23R,1.600000X1.600000*%
%ADD24O,1.600000X1.600000*%
%ADD25C,0.152400*%
G04 APERTURE END LIST*
D10*
X64770000Y-50800000D02*
X63500000Y-50800000D01*
X119380000Y-50800000D02*
X64770000Y-50800000D01*
X119380000Y-120650000D02*
X119380000Y-50800000D01*
X63500000Y-120650000D02*
X119380000Y-120650000D01*
X63500000Y-50800000D02*
X63500000Y-120650000D01*
D11*
X110490000Y-90170000D03*
D12*
X113030000Y-90170000D03*
X110490000Y-92710000D03*
X113030000Y-92710000D03*
X110490000Y-95250000D03*
X113030000Y-95250000D03*
D13*
X90170000Y-58420000D03*
D14*
X87630000Y-58420000D03*
X82550000Y-58420000D03*
D15*
X74970000Y-114300000D03*
X77470000Y-114300000D03*
X86360000Y-109220000D03*
X86360000Y-106720000D03*
X72390000Y-74930000D03*
X69890000Y-74930000D03*
X72390000Y-92710000D03*
X69890000Y-92710000D03*
D16*
X71120000Y-86160000D03*
X71120000Y-81280000D03*
D17*
X91440000Y-111760000D03*
D18*
X93980000Y-111760000D03*
D14*
X90170000Y-104140000D03*
D19*
X95250000Y-104140000D03*
D14*
X76200000Y-57150000D03*
D19*
X76200000Y-62230000D03*
D17*
X76200000Y-107950000D03*
D20*
X78740000Y-107950000D03*
X81280000Y-107950000D03*
D21*
X102990000Y-110490000D03*
D22*
X110490000Y-110490000D03*
D11*
X110490000Y-67310000D03*
D12*
X113030000Y-67310000D03*
X110490000Y-69850000D03*
X113030000Y-69850000D03*
X110490000Y-72390000D03*
X113030000Y-72390000D03*
D11*
X97790000Y-67310000D03*
D12*
X100330000Y-67310000D03*
X97790000Y-69850000D03*
X100330000Y-69850000D03*
X97790000Y-72390000D03*
X100330000Y-72390000D03*
D11*
X97790000Y-90170000D03*
D12*
X100330000Y-90170000D03*
X97790000Y-92710000D03*
X100330000Y-92710000D03*
X97790000Y-95250000D03*
X100330000Y-95250000D03*
D23*
X80010000Y-64770000D03*
D24*
X87630000Y-97790000D03*
X80010000Y-67310000D03*
X87630000Y-95250000D03*
X80010000Y-69850000D03*
X87630000Y-92710000D03*
X80010000Y-72390000D03*
X87630000Y-90170000D03*
X80010000Y-74930000D03*
X87630000Y-87630000D03*
X80010000Y-77470000D03*
X87630000Y-85090000D03*
X80010000Y-80010000D03*
X87630000Y-82550000D03*
X80010000Y-82550000D03*
X87630000Y-80010000D03*
X80010000Y-85090000D03*
X87630000Y-77470000D03*
X80010000Y-87630000D03*
X87630000Y-74930000D03*
X80010000Y-90170000D03*
X87630000Y-72390000D03*
X80010000Y-92710000D03*
X87630000Y-69850000D03*
X80010000Y-95250000D03*
X87630000Y-67310000D03*
X80010000Y-97790000D03*
X87630000Y-64770000D03*
D25*
X113030000Y-72390000D02*
X113030000Y-73660000D01*
X77470000Y-74930000D02*
X80010000Y-74930000D01*
X73660000Y-71120000D02*
X77470000Y-74930000D01*
X73660000Y-55880000D02*
X73660000Y-71120000D01*
X74930000Y-54610000D02*
X73660000Y-55880000D01*
X93980000Y-54610000D02*
X74930000Y-54610000D01*
X105410000Y-66040000D02*
X93980000Y-54610000D01*
X105410000Y-73660000D02*
X105410000Y-66040000D01*
X106680000Y-74930000D02*
X105410000Y-73660000D01*
X111760000Y-74930000D02*
X106680000Y-74930000D01*
X113030000Y-73660000D02*
X111760000Y-74930000D01*
X100330000Y-95250000D02*
X100330000Y-96520000D01*
X99060000Y-97790000D02*
X87630000Y-97790000D01*
X100330000Y-96520000D02*
X99060000Y-97790000D01*
X92710000Y-90170000D02*
X87630000Y-95250000D01*
X97790000Y-90170000D02*
X92710000Y-90170000D01*
X110490000Y-67310000D02*
X109220000Y-67310000D01*
X77470000Y-77470000D02*
X80010000Y-77470000D01*
X72390000Y-72390000D02*
X77470000Y-77470000D01*
X72390000Y-54610000D02*
X72390000Y-72390000D01*
X73660000Y-53340000D02*
X72390000Y-54610000D01*
X95250000Y-53340000D02*
X73660000Y-53340000D01*
X109220000Y-67310000D02*
X95250000Y-53340000D01*
X100330000Y-72390000D02*
X101600000Y-72390000D01*
X81280000Y-90170000D02*
X80010000Y-90170000D01*
X82550000Y-88900000D02*
X81280000Y-90170000D01*
X82550000Y-64770000D02*
X82550000Y-88900000D01*
X86360000Y-60960000D02*
X82550000Y-64770000D01*
X97790000Y-60960000D02*
X86360000Y-60960000D01*
X102870000Y-66040000D02*
X97790000Y-60960000D01*
X102870000Y-71120000D02*
X102870000Y-66040000D01*
X101600000Y-72390000D02*
X102870000Y-71120000D01*
X97790000Y-67310000D02*
X97790000Y-66040000D01*
X83820000Y-92710000D02*
X80010000Y-92710000D01*
X85090000Y-91440000D02*
X83820000Y-92710000D01*
X85090000Y-64770000D02*
X85090000Y-91440000D01*
X87630000Y-62230000D02*
X85090000Y-64770000D01*
X93980000Y-62230000D02*
X87630000Y-62230000D01*
X97790000Y-66040000D02*
X93980000Y-62230000D01*
X113030000Y-95250000D02*
X113030000Y-96520000D01*
X77470000Y-95250000D02*
X80010000Y-95250000D01*
X76200000Y-96520000D02*
X77470000Y-95250000D01*
X76200000Y-99060000D02*
X76200000Y-96520000D01*
X78740000Y-101600000D02*
X76200000Y-99060000D01*
X107950000Y-101600000D02*
X78740000Y-101600000D01*
X113030000Y-96520000D02*
X107950000Y-101600000D01*
X110490000Y-90170000D02*
X106680000Y-90170000D01*
X82550000Y-100330000D02*
X80010000Y-97790000D01*
X100330000Y-100330000D02*
X82550000Y-100330000D01*
X105410000Y-95250000D02*
X100330000Y-100330000D01*
X105410000Y-91440000D02*
X105410000Y-95250000D01*
X106680000Y-90170000D02*
X105410000Y-91440000D01*
M02*
